<svg width="1920" height="1441" viewBox="0 0 1920 1441" fill="none" xmlns="http://www.w3.org/2000/svg">
<mask id="mask0_7303_12120" style="mask-type:alpha" maskUnits="userSpaceOnUse" x="0" y="0" width="1920" height="1441">
<rect width="1920" height="1441" fill="white"/>
</mask>
<g mask="url(#mask0_7303_12120)">
<g clip-path="url(#clip0_7303_12120)">
<path d="M3748.07 1820.23C3185.27 1001.66 2308.77 74.1742 1398.18 455.878C428.092 862.527 -894.687 -193.818 -1763.41 -1039L-1763.56 -1037.87C-894.409 -192.391 428.62 863.763 1399.2 456.902C2309.28 75.4083 3185.46 1003.34 3747.87 1821.71L3748.07 1820.23Z" fill="url(#paint0_linear_7303_12120)" fill-opacity="0.12"/>
<path d="M3733.42 1928C3264.38 1098.88 2463.89 114.421 1432.16 487.936C337.597 884.208 -936.305 -205.811 -1760.82 -1058.04L-1760.98 -1056.87C-936.024 -204.326 338.104 885.426 1433.15 488.974C2464.42 115.626 3264.6 1100.81 3733.19 1929.73L3733.42 1928Z" fill="url(#paint1_linear_7303_12120)" fill-opacity="0.12"/>
<path d="M3715.33 2061.06C3348.31 1219.81 2636.17 151.715 1466.16 520.001C239.779 906.031 -976.941 -222.862 -1757.48 -1082.65L-1757.64 -1081.43C-976.679 -221.319 240.267 907.217 1467.11 521.048C2636.84 152.856 3348.55 1222.21 3715.04 2063.22L3715.33 2061.06Z" fill="url(#paint2_linear_7303_12120)" fill-opacity="0.12"/>
<path d="M3690.65 2242.63C3440.25 1391.15 2842.01 182.979 1500.14 552.051C199.503 909.771 -903.812 -135.905 -1643.19 -985.626C-1680.82 -1028.89 -1717.52 -1071.63 -1753.25 -1113.66L-1753.42 -1112.38C-1717.96 -1070.67 -1681.55 -1028.25 -1644.2 -985.344C-904.42 -135.158 199.525 911.087 1501.07 553.112C2843.04 184.016 3440.56 1394.48 3690.25 2245.56L3690.65 2242.63Z" fill="url(#paint3_linear_7303_12120)" fill-opacity="0.12"/>
<path d="M3648.4 2553.45C3547.5 1727.03 3144.23 195.809 1534.12 584.119C181.284 910.382 -813.786 -28.8789 -1507.83 -856.904C-1592.32 -957.707 -1672.37 -1056.88 -1748.06 -1151.91L-1748.24 -1150.58C-1672.81 -1055.88 -1593.07 -957.092 -1508.88 -856.653C-814.429 -28.1384 181.25 911.674 1535.01 585.189C3146.9 196.45 3547.99 1734.03 3647.7 2558.6L3648.4 2553.45Z" fill="url(#paint4_linear_7303_12120)" fill-opacity="0.12"/>
<path d="M3514.92 3038.72C3554.43 2651.43 3727.74 158.42 1568.1 616.172C175.561 911.327 -727.74 77.5463 -1373 -719.326C-1506.26 -883.893 -1628.51 -1046.88 -1741.79 -1198.03L-1741.98 -1196.63C-1628.94 -1045.8 -1506.97 -883.233 -1374.07 -719.099C-728.394 78.2818 175.494 912.596 1568.97 617.241C3726.18 160.006 3553.05 2650.98 3513.54 3038.13L3514.92 3038.72Z" fill="url(#paint5_linear_7303_12120)" fill-opacity="0.12"/>
<path d="M3369.63 2976.23C3485.76 2379.69 3757.94 246.162 1602.08 648.231C177.415 913.931 -651.859 176.222 -1247.53 -583.318C-1388.08 -762.526 -1515.63 -942.973 -1634.94 -1111.74C-1668.74 -1159.55 -1701.86 -1206.41 -1734.45 -1252.05L-1734.64 -1250.6C-1702.37 -1205.38 -1669.55 -1158.96 -1636.09 -1111.61C-1516.78 -942.832 -1389.2 -762.375 -1248.62 -583.109C-652.526 176.96 177.315 915.186 1602.93 649.314C3756.31 247.707 3484.3 2379.47 3368.25 2975.64L3369.63 2976.23Z" fill="url(#paint6_linear_7303_12120)" fill-opacity="0.12"/>
<path d="M3244.26 2922.31C3447.9 2228.58 3821.81 321.567 1636.06 680.294C183.434 918.694 -587.759 264.758 -1135.43 -454.647C-1280.78 -645.578 -1410.41 -841.14 -1532.84 -1025.85C-1598.91 -1125.55 -1662.91 -1222.07 -1726.16 -1313.03L-1726.36 -1311.55C-1663.43 -1221 -1599.76 -1124.95 -1534.02 -1025.76C-1411.57 -841.027 -1281.93 -645.453 -1136.54 -454.464C-588.45 265.494 183.312 919.94 1636.88 681.383C3820.05 323.082 3446.4 2228.46 3242.89 2921.72L3244.26 2922.31Z" fill="url(#paint7_linear_7303_12120)" fill-opacity="0.12"/>
<path d="M3136.97 2876.16C3432.38 2127.87 3896.4 391.121 1670.04 712.357C191.57 925.683 -534.82 343.292 -1037.59 -335.69C-1185.96 -536.065 -1314.87 -744.872 -1437.88 -944.122C-1532.43 -1097.26 -1623.5 -1244.75 -1717.25 -1378.47L-1717.45 -1376.99C-1624.06 -1243.67 -1533.3 -1096.68 -1439.08 -944.075C-1316.05 -744.793 -1187.12 -535.96 -1038.7 -335.526C-535.521 344.023 191.427 926.912 1670.84 713.443C3894.47 392.6 3430.79 2127.82 3135.59 2875.57L3136.97 2876.16Z" fill="url(#paint8_linear_7303_12120)" fill-opacity="0.12"/>
<path d="M3045.96 2837.01C3433.83 2056.98 3975.71 456.825 1704.01 744.411C200.592 934.745 -491.651 412.957 -953.324 -226.901C-1102.95 -434.274 -1228.37 -654.054 -1349.33 -866.017C-1467.13 -1072.43 -1580.71 -1271.43 -1708.3 -1444.4L-1708.49 -1442.98C-1581.34 -1270.38 -1468.05 -1071.89 -1350.56 -866.024C-1229.58 -654.012 -1104.12 -434.19 -954.452 -226.758C-492.363 413.684 200.427 935.956 1704.81 745.505C3973.61 458.28 3432.15 2056.96 3044.55 2836.4L3045.96 2837.01Z" fill="url(#paint9_linear_7303_12120)" fill-opacity="0.12"/>
<path d="M2969.51 2804.13C3448.6 2006.34 4057.51 519.681 1737.99 776.478C209.811 945.668 -456.744 475.115 -881.313 -127.789C-1030.66 -339.861 -1150.09 -568.329 -1266.54 -791.109C-1401.1 -1048.51 -1531.67 -1298.29 -1699.86 -1506.48L-1700.04 -1505.15C-1532.4 -1297.31 -1402.08 -1048.03 -1267.8 -791.153C-1151.33 -568.341 -1031.87 -339.827 -882.454 -127.651C-457.469 475.845 209.635 946.875 1738.76 777.579C4055.25 521.107 3446.84 2006.35 2968.09 2803.52L2969.51 2804.13Z" fill="url(#paint10_linear_7303_12120)" fill-opacity="0.12"/>
<path d="M2906.29 2776.94C3474.2 1970.45 4140.33 580.292 1771.97 808.54C218.842 958.218 -428.724 531.048 -820.063 -37.4865C-967.924 -252.302 -1079.24 -487.335 -1189 -719.061C-1333.08 -1023.26 -1474.5 -1321.75 -1692.38 -1561.51L-1692.55 -1560.28C-1475.3 -1320.85 -1334.11 -1022.85 -1190.28 -719.153C-1080.5 -487.379 -969.163 -252.306 -821.211 -37.3687C-429.47 531.761 218.645 959.407 1772.72 809.631C4137.9 581.686 3472.33 1970.47 2904.85 2776.32L2906.29 2776.94Z" fill="url(#paint11_linear_7303_12120)" fill-opacity="0.12"/>
<path d="M2854.84 2754.81C3508.58 1945.83 4223.8 639.032 1805.94 840.599C227.469 972.191 -406.449 581.866 -768.112 45.0302C-913.591 -170.91 -1015.06 -410.596 -1116.24 -649.561C-1262.64 -995.36 -1408.42 -1339.62 -1686 -1608.5L-1686.16 -1607.36C-1409.31 -1338.83 -1263.73 -995.029 -1117.54 -649.715C-1016.34 -410.694 -914.847 -170.955 -769.282 45.1226C-407.207 582.574 227.24 973.357 1806.67 841.688C4221.19 640.408 3506.62 1945.86 2853.39 2754.19L2854.84 2754.81Z" fill="url(#paint12_linear_7303_12120)" fill-opacity="0.12"/>
<path d="M2814.17 2737.32C3550.38 1930.13 4307.25 696.222 1839.92 872.672C235.574 987.405 -388.941 628.51 -724.157 120.737C-866.604 -95.0246 -956.867 -337.712 -1047.85 -582.373C-1178 -932.294 -1309.68 -1286.23 -1597.66 -1571.45L-1599.99 -1572.45C-1311.28 -1287.24 -1179.46 -932.891 -1049.17 -582.569C-958.147 -337.842 -867.857 -95.0924 -725.325 120.821C-389.697 629.21 235.345 988.563 1840.65 873.762C4304.47 697.566 3548.31 1930.16 2812.7 2736.69L2814.17 2737.32Z" fill="url(#paint13_linear_7303_12120)" fill-opacity="0.12"/>
<path d="M2783.25 2724.02C3598.38 1921.65 4390.49 752.049 1873.89 904.728C243.111 1003.67 -375.424 671.696 -687.056 190.521C-826.019 -24.0397 -904.029 -268.32 -983.537 -517.297C-1096.17 -870.055 -1211.89 -1232.23 -1508.19 -1532.97L-1510.51 -1533.97C-1213.47 -1233.21 -1097.63 -870.655 -984.871 -517.548C-905.34 -268.487 -827.305 -24.1296 -688.234 190.593C-376.181 672.404 242.871 1004.82 1874.6 905.828C4387.54 753.367 3596.22 1921.69 2781.76 2723.38L2783.25 2724.02Z" fill="url(#paint14_linear_7303_12120)" fill-opacity="0.12"/>
<path d="M2761.2 2714.53C3651.66 1919.13 4473.38 806.703 1907.87 936.79C250.086 1020.85 -365.241 712.068 -655.831 255.183C-791.029 42.614 -856.016 -202.068 -922.958 -454.157C-1017.24 -809.177 -1115.43 -1178.91 -1419.1 -1494.65L-1421.39 -1495.63C-1116.97 -1179.86 -1018.67 -809.79 -924.31 -454.457C-857.335 -202.264 -792.335 42.4988 -657.031 255.238C-366.033 712.769 249.813 1021.99 1908.56 937.888C4470.26 807.996 3649.39 1919.16 2759.69 2713.88L2761.2 2714.53Z" fill="url(#paint15_linear_7303_12120)" fill-opacity="0.12"/>
<path d="M2747.23 2708.52C3709.44 1921.6 4555.8 860.318 1941.84 968.847C256.478 1038.83 -357.916 750.096 -629.669 315.411C-760.938 105.442 -812.343 -138.633 -865.869 -392.797C-941.026 -749.636 -1020.44 -1126.32 -1330.79 -1456.66L-1333 -1457.61C-1021.91 -1127.23 -942.431 -750.241 -867.227 -393.134C-813.678 -138.876 -762.252 105.298 -630.858 315.47C-358.696 750.802 256.216 1039.98 1942.54 969.958C4552.52 861.58 3707.08 1921.63 2745.69 2707.86L2747.23 2708.52Z" fill="url(#paint16_linear_7303_12120)" fill-opacity="0.12"/>
<path d="M2740.68 2705.71C3771.14 1928.32 4637.69 912.993 1975.82 1000.92C262.33 1057.51 -352.979 786.189 -607.846 371.816C-735.105 164.902 -772.59 -77.7489 -812.023 -333.063C-867.34 -691.24 -926.59 -1074.3 -1242.84 -1418.83L-1245.04 -1419.78C-928.038 -1075.2 -868.742 -691.86 -813.376 -333.446C-773.932 -78.0366 -736.437 164.718 -609.033 371.859C-353.769 786.883 262.069 1058.65 1976.51 1002.02C4634.26 914.227 3768.67 1928.35 2739.12 2705.04L2740.68 2705.71Z" fill="url(#paint17_linear_7303_12120)" fill-opacity="0.12"/>
<path d="M3795.41 1472.02C3734.16 1187.8 3246.07 1001.88 2009.79 1032.98C267.672 1076.8 -350.135 820.643 -589.797 424.881C-713.054 221.343 -736.394 -19.1932 -761.208 -274.85C-796.047 -633.927 -833.831 -1022.81 -1155.26 -1381.16L-1157.44 -1382.1C-835.268 -1023.7 -797.447 -634.562 -762.577 -275.282C-737.755 -19.5138 -714.406 221.134 -591.005 424.908C-350.936 821.324 267.378 1077.92 2010.46 1034.07C3252.83 1002.83 3738.56 1191.11 3794.58 1478.09L3795.41 1472.02ZM2740.73 2705.73C3207.72 2378.66 3635.35 2014.24 3763.22 1708.81L3764.31 1700.75C3640.88 2007.53 3210.01 2375.28 2739.16 2705.05L2740.73 2705.73Z" fill="url(#paint18_linear_7303_12120)" fill-opacity="0.12"/>
<path d="M3806.2 1392.67C3645.22 1178.51 3126.33 1045.74 2043.77 1065.05C272.529 1096.63 -349.053 853.745 -575.001 475.07C-694.289 275.148 -703.42 37.2841 -713.211 -218.03C-727.009 -577.632 -742.17 -971.821 -1068.13 -1343.69L-1070.23 -1344.59C-743.541 -972.675 -728.397 -578.27 -714.596 -218.518C-704.797 36.9149 -695.671 274.893 -576.217 475.076C-349.864 854.413 272.225 1097.74 2044.42 1066.14C3129.89 1046.78 3647.3 1180.72 3805.72 1396.19L3806.2 1392.67ZM2746.95 2708.41C3167.41 2433.49 3552.74 2135.04 3741.5 1868.59L3742.06 1864.46C3554.74 2131.65 3167.7 2431.58 2745.35 2707.72L2746.95 2708.41Z" fill="url(#paint19_linear_7303_12120)" fill-opacity="0.12"/>
<path d="M3809.65 1367.24C3596.62 1192.51 3070.29 1086.19 2077.74 1097.11C276.933 1116.92 -349.513 885.679 -563.058 522.716C-678.468 326.555 -673.393 91.8323 -667.888 -162.542C-660.106 -522.297 -651.587 -921.333 -981.553 -1306.45L-983.637 -1307.34C-652.946 -922.182 -661.48 -522.954 -669.269 -163.062C-674.767 91.4395 -679.848 326.292 -564.275 522.73C-350.336 886.359 276.629 1118.03 2078.39 1098.2C3072.43 1087.26 3597.86 1194.21 3809.32 1369.67L3809.65 1367.24ZM2758.96 2713.57C3152.9 2471.93 3513.66 2214.01 3726.81 1976.6L3727.26 1973.35C3515 2211.33 3152.75 2470.33 2757.34 2712.88L2758.96 2713.57Z" fill="url(#paint20_linear_7303_12120)" fill-opacity="0.12"/>
<path d="M3810.67 1359.74C3561.67 1213.31 3033.82 1124.9 2111.71 1129.16C280.916 1137.62 -351.325 916.635 -553.611 568.155C-665.228 375.867 -646.056 144.644 -625.08 -108.268C-595.254 -467.852 -561.927 -871.258 -895.319 -1269.36L-897.393 -1270.25C-563.275 -872.102 -596.615 -468.52 -626.443 -108.83C-647.427 144.228 -666.617 375.575 -554.828 568.161C-352.16 917.309 280.6 1138.73 2112.35 1130.27C3035.59 1125.99 3562.64 1214.86 3810.39 1361.85L3810.67 1359.74ZM2776.17 2720.97C3148.37 2505.88 3489.34 2279.2 3714.61 2066.37L3714.98 2063.66C3490.01 2277.01 3147.93 2504.48 2774.54 2720.27L2776.17 2720.97Z" fill="url(#paint21_linear_7303_12120)" fill-opacity="0.12"/>
<path d="M3810.05 1364.33C3535.57 1238.69 3011.37 1162.4 2145.69 1161.23C284.527 1158.72 -354.3 946.768 -546.334 611.669C-654.282 423.291 -621.16 195.877 -584.605 -55.1386C-532.31 -414.219 -473.134 -821.565 -809.387 -1232.4L-811.45 -1233.28C-474.46 -822.408 -533.656 -414.906 -585.964 -55.7313C-622.539 195.433 -655.678 422.971 -547.55 611.668C-355.136 947.442 284.212 1159.81 2146.33 1162.34C3012.53 1163.5 3536.32 1240.03 3809.82 1365.99L3810.05 1364.33ZM2798.07 2730.39C3150.2 2537.91 3473.31 2337.14 3703.8 2145.89L3704.15 2143.32C3473.73 2335.08 3149.72 2536.55 2796.41 2729.68L2798.07 2730.39Z" fill="url(#paint22_linear_7303_12120)" fill-opacity="0.12"/>
<path d="M3808.53 1375.52C3515.06 1266.16 2996.41 1198.98 2179.66 1193.29C287.765 1180.12 -358.332 976.165 -540.993 653.458C-645.394 469.019 -598.542 245.643 -546.367 -3.09463C-471.217 -361.366 -385.153 -772.237 -723.766 -1195.57L-725.828 -1196.46C-386.479 -773.072 -472.56 -362.076 -547.722 -3.71094C-599.929 245.17 -646.81 468.675 -542.219 653.452C-359.167 976.84 287.429 1181.21 2180.28 1194.38C2997.58 1200.08 3515.67 1267.5 3808.3 1377.16L3808.53 1375.52ZM2824.67 2741.83C3157.36 2569.25 3462.9 2390.64 3693.9 2218.68L3694.21 2216.43C3463.12 2388.83 3156.69 2568 2822.99 2741.11L2824.67 2741.83Z" fill="url(#paint23_linear_7303_12120)" fill-opacity="0.12"/>
<path d="M3806.25 1392.24C3498.82 1295.55 2988.52 1234.84 2213.63 1225.36C290.667 1201.82 -363.273 1004.96 -537.362 693.75C-638.341 513.23 -577.999 294.085 -510.225 47.9565C-411.868 -309.247 -297.956 -723.238 -638.448 -1158.87L-640.499 -1159.75C-299.281 -724.081 -413.209 -309.972 -511.585 47.2887C-579.403 293.564 -639.787 512.84 -538.597 693.723C-364.117 1005.61 290.321 1202.9 2214.25 1226.45C2989.51 1235.94 3499.32 1296.83 3806.05 1393.75L3806.25 1392.24ZM2855.05 2754.9C3168.24 2600.22 3456.61 2441.25 3684.64 2286.85L3684.93 2284.68C3456.84 2439.48 3167.54 2598.99 2853.35 2754.17L2855.05 2754.9Z" fill="url(#paint24_linear_7303_12120)" fill-opacity="0.12"/>
<path d="M3803.56 1412.09C3485.63 1325.71 2984.6 1270.1 2247.6 1257.41C293.275 1223.79 -369.024 1033.2 -535.244 732.689C-632.941 556.053 -559.386 341.277 -476.085 98.0386C-354.192 -257.823 -211.492 -674.555 -553.407 -1122.29L-555.458 -1123.18C-212.829 -675.402 -355.531 -258.564 -477.432 97.3521C-560.788 340.74 -634.396 555.651 -536.48 732.67C-369.881 1033.87 292.916 1224.87 2248.2 1258.51C2985.43 1271.2 3486.1 1326.93 3803.37 1413.48L3803.56 1412.09ZM2889.52 2769.73C3182.62 2631.51 3453.69 2490.18 3675.78 2352.03L3676.06 2349.94C3453.85 2488.47 3181.89 2630.31 2887.8 2768.99L2889.52 2769.73Z" fill="url(#paint25_linear_7303_12120)" fill-opacity="0.12"/>
<path d="M3800.62 1433.71C3475.14 1356.01 2982.92 1304.84 2281.58 1289.48C295.59 1245.99 -375.492 1060.99 -534.465 770.448C-629.013 597.647 -542.542 387.335 -443.81 147.245C-298.125 -207.073 -125.833 -626.217 -468.79 -1085.9L-470.752 -1086.74C-127.102 -627.036 -299.452 -207.818 -445.151 146.519C-543.941 386.774 -630.478 597.224 -535.713 770.424C-376.362 1061.66 295.23 1247.07 2282.17 1290.58C2983.61 1305.94 3475.56 1357.19 3800.44 1435.02L3800.62 1433.71ZM2927.28 2785.97C3200.11 2662.82 3453.45 2537.46 3667.32 2414.24L3667.58 2412.34C3453.44 2535.91 3199.25 2661.68 2925.56 2785.23L2927.28 2785.97Z" fill="url(#paint26_linear_7303_12120)" fill-opacity="0.12"/>
<path d="M3797.33 1457.88C3466.78 1387.16 2985.24 1339.18 2315.55 1321.54C297.64 1268.41 -382.624 1088.37 -534.909 807.135C-626.431 638.117 -527.35 432.351 -413.352 195.586C-243.589 -156.95 -40.887 -578.17 -384.496 -1049.64L-386.458 -1050.48C-42.1555 -578.997 -244.913 -157.709 -414.677 194.834C-528.756 431.755 -627.904 637.665 -536.156 807.103C-383.504 1089.02 297.272 1269.47 2316.14 1322.63C2985.92 1340.28 3467.09 1388.35 3797.15 1459.17L3797.33 1457.88ZM2968.59 2803.73C3220.8 2694.5 3455.49 2583.69 3659.15 2474.31L3659.4 2472.47C3455.47 2582.17 3219.9 2693.37 2966.84 2802.98L2968.59 2803.73Z" fill="url(#paint27_linear_7303_12120)" fill-opacity="0.12"/>
<path d="M3793.91 1483.05C3460.24 1418.29 2989.13 1373.13 2349.51 1353.6C299.441 1291.01 -390.344 1115.38 -536.429 842.88C-625.056 677.563 -513.7 476.382 -384.581 243.136C-318.322 123.436 -247.387 -4.7117 -196.396 -140.827C-98.0669 -403.3 -74.0216 -695.367 -300.448 -1013.49L-302.343 -1014.31C-75.4059 -696.12 -99.3969 -404.021 -197.728 -141.532C-248.701 -5.45895 -319.634 122.674 -385.88 242.363C-515.082 475.78 -626.527 677.095 -537.664 842.845C-391.202 1116.05 299.082 1292.09 2350.12 1354.7C2989.71 1374.23 3460.54 1419.43 3793.74 1484.27L3793.91 1483.05ZM3012.64 2822.69C3243.57 2726.5 3459.66 2629.25 3651.19 2532.89L3651.44 2531.08C3459.52 2627.76 3242.64 2725.38 3010.88 2821.93L3012.64 2822.69Z" fill="url(#paint28_linear_7303_12120)" fill-opacity="0.12"/>
<path d="M3790.31 1509.54C3455.16 1449.76 2995.46 1406.79 2383.49 1385.67C301.026 1313.81 -398.579 1142.1 -538.931 877.764C-624.781 716.072 -501.474 519.511 -357.44 289.919C-270.711 151.671 -176.479 1.45247 -115.844 -160.389C-23.7017 -406.34 -9.21932 -679.103 -216.523 -977.392L-218.419 -978.207C-10.6503 -679.859 -25.0436 -407.057 -117.187 -161.099C-177.804 0.692493 -272.021 150.892 -358.735 289.122C-502.875 518.876 -626.261 715.584 -540.176 877.725C-399.459 1142.75 300.645 1314.87 2384.08 1386.77C2996.04 1407.89 3455.4 1450.89 3790.14 1510.76L3790.31 1509.54ZM3059.96 2843.04C3269.15 2759.07 3465.62 2674.35 3643.4 2590.2L3643.64 2588.44C3465.45 2672.91 3268.19 2757.97 3058.17 2842.27L3059.96 2843.04Z" fill="url(#paint29_linear_7303_12120)" fill-opacity="0.12"/>
</g>
</g>
<defs>
<linearGradient id="paint0_linear_7303_12120" x1="2898.1" y1="767.83" x2="2456.23" y2="1577.77" gradientUnits="userSpaceOnUse">
<stop stop-color="#0061FE"/>
<stop offset="1" stop-color="#5F96FF"/>
</linearGradient>
<linearGradient id="paint1_linear_7303_12120" x1="2896.34" y1="780.781" x2="2443.41" y2="1607.08" gradientUnits="userSpaceOnUse">
<stop stop-color="#0061FE"/>
<stop offset="1" stop-color="#5F96FF"/>
</linearGradient>
<linearGradient id="paint2_linear_7303_12120" x1="2893.83" y1="799.219" x2="2365.69" y2="1733.15" gradientUnits="userSpaceOnUse">
<stop stop-color="#0061FE"/>
<stop offset="1" stop-color="#5F96FF"/>
</linearGradient>
<linearGradient id="paint3_linear_7303_12120" x1="2890.91" y1="820.685" x2="2247.82" y2="1908.22" gradientUnits="userSpaceOnUse">
<stop stop-color="#0061FE"/>
<stop offset="1" stop-color="#5F96FF"/>
</linearGradient>
<linearGradient id="paint4_linear_7303_12120" x1="2886.98" y1="849.602" x2="2031.71" y2="2191.48" gradientUnits="userSpaceOnUse">
<stop stop-color="#0061FE"/>
<stop offset="1" stop-color="#5F96FF"/>
</linearGradient>
<linearGradient id="paint5_linear_7303_12120" x1="2828.48" y1="866.871" x2="1602.33" y2="2575.32" gradientUnits="userSpaceOnUse">
<stop stop-color="#0061FE"/>
<stop offset="1" stop-color="#5F96FF"/>
</linearGradient>
<linearGradient id="paint6_linear_7303_12120" x1="2718.02" y1="781.104" x2="1457.17" y2="2504.38" gradientUnits="userSpaceOnUse">
<stop stop-color="#0061FE"/>
<stop offset="1" stop-color="#5F96FF"/>
</linearGradient>
<linearGradient id="paint7_linear_7303_12120" x1="2654.54" y1="693.002" x2="1343.32" y2="2448.62" gradientUnits="userSpaceOnUse">
<stop stop-color="#0061FE"/>
<stop offset="1" stop-color="#5F96FF"/>
</linearGradient>
<linearGradient id="paint8_linear_7303_12120" x1="2627.65" y1="616.19" x2="1264.04" y2="2409.14" gradientUnits="userSpaceOnUse">
<stop stop-color="#0061FE"/>
<stop offset="1" stop-color="#5F96FF"/>
</linearGradient>
<linearGradient id="paint9_linear_7303_12120" x1="2625.26" y1="549.433" x2="1209.92" y2="2381.51" gradientUnits="userSpaceOnUse">
<stop stop-color="#0061FE"/>
<stop offset="1" stop-color="#5F96FF"/>
</linearGradient>
<linearGradient id="paint10_linear_7303_12120" x1="2639.09" y1="493.491" x2="1175.73" y2="2363.48" gradientUnits="userSpaceOnUse">
<stop stop-color="#0061FE"/>
<stop offset="1" stop-color="#5F96FF"/>
</linearGradient>
<linearGradient id="paint11_linear_7303_12120" x1="2663.79" y1="449.244" x2="1158.45" y2="2353.89" gradientUnits="userSpaceOnUse">
<stop stop-color="#0061FE"/>
<stop offset="1" stop-color="#5F96FF"/>
</linearGradient>
<linearGradient id="paint12_linear_7303_12120" x1="2695.99" y1="416.258" x2="1155.38" y2="2351.69" gradientUnits="userSpaceOnUse">
<stop stop-color="#0061FE"/>
<stop offset="1" stop-color="#5F96FF"/>
</linearGradient>
<linearGradient id="paint13_linear_7303_12120" x1="2743.14" y1="435.645" x2="1199.71" y2="2365.97" gradientUnits="userSpaceOnUse">
<stop stop-color="#0061FE"/>
<stop offset="1" stop-color="#5F96FF"/>
</linearGradient>
<linearGradient id="paint14_linear_7303_12120" x1="2795.66" y1="458.23" x2="1250.21" y2="2383.11" gradientUnits="userSpaceOnUse">
<stop stop-color="#0061FE"/>
<stop offset="1" stop-color="#5F96FF"/>
</linearGradient>
<linearGradient id="paint15_linear_7303_12120" x1="2851.93" y1="482.433" x2="1304.68" y2="2402.4" gradientUnits="userSpaceOnUse">
<stop stop-color="#0061FE"/>
<stop offset="1" stop-color="#5F96FF"/>
</linearGradient>
<linearGradient id="paint16_linear_7303_12120" x1="2911.11" y1="507.886" x2="1362.25" y2="2423.42" gradientUnits="userSpaceOnUse">
<stop stop-color="#0061FE"/>
<stop offset="1" stop-color="#5F96FF"/>
</linearGradient>
<linearGradient id="paint17_linear_7303_12120" x1="2972.68" y1="534.374" x2="1422.38" y2="2445.86" gradientUnits="userSpaceOnUse">
<stop stop-color="#0061FE"/>
<stop offset="1" stop-color="#5F96FF"/>
</linearGradient>
<linearGradient id="paint18_linear_7303_12120" x1="3021.14" y1="555.214" x2="1468.67" y2="2460.61" gradientUnits="userSpaceOnUse">
<stop stop-color="#0061FE"/>
<stop offset="1" stop-color="#5F96FF"/>
</linearGradient>
<linearGradient id="paint19_linear_7303_12120" x1="3035.82" y1="561.528" x2="1479.33" y2="2455.34" gradientUnits="userSpaceOnUse">
<stop stop-color="#0061FE"/>
<stop offset="1" stop-color="#5F96FF"/>
</linearGradient>
<linearGradient id="paint20_linear_7303_12120" x1="3050.39" y1="567.796" x2="1489.89" y2="2449.73" gradientUnits="userSpaceOnUse">
<stop stop-color="#0061FE"/>
<stop offset="1" stop-color="#5F96FF"/>
</linearGradient>
<linearGradient id="paint21_linear_7303_12120" x1="3064.91" y1="574.04" x2="1500.4" y2="2443.75" gradientUnits="userSpaceOnUse">
<stop stop-color="#0061FE"/>
<stop offset="1" stop-color="#5F96FF"/>
</linearGradient>
<linearGradient id="paint22_linear_7303_12120" x1="3079.37" y1="580.261" x2="1510.86" y2="2437.37" gradientUnits="userSpaceOnUse">
<stop stop-color="#0061FE"/>
<stop offset="1" stop-color="#5F96FF"/>
</linearGradient>
<linearGradient id="paint23_linear_7303_12120" x1="3093.78" y1="586.46" x2="1521.27" y2="2430.59" gradientUnits="userSpaceOnUse">
<stop stop-color="#0061FE"/>
<stop offset="1" stop-color="#5F96FF"/>
</linearGradient>
<linearGradient id="paint24_linear_7303_12120" x1="3108.14" y1="592.637" x2="1531.66" y2="2423.39" gradientUnits="userSpaceOnUse">
<stop stop-color="#0061FE"/>
<stop offset="1" stop-color="#5F96FF"/>
</linearGradient>
<linearGradient id="paint25_linear_7303_12120" x1="3122.46" y1="598.793" x2="1542.02" y2="2415.75" gradientUnits="userSpaceOnUse">
<stop stop-color="#0061FE"/>
<stop offset="1" stop-color="#5F96FF"/>
</linearGradient>
<linearGradient id="paint26_linear_7303_12120" x1="3136.71" y1="604.925" x2="1552.36" y2="2407.66" gradientUnits="userSpaceOnUse">
<stop stop-color="#0061FE"/>
<stop offset="1" stop-color="#5F96FF"/>
</linearGradient>
<linearGradient id="paint27_linear_7303_12120" x1="3150.9" y1="611.028" x2="1562.67" y2="2399.11" gradientUnits="userSpaceOnUse">
<stop stop-color="#0061FE"/>
<stop offset="1" stop-color="#5F96FF"/>
</linearGradient>
<linearGradient id="paint28_linear_7303_12120" x1="3159.36" y1="614.665" x2="1568.83" y2="2393.77" gradientUnits="userSpaceOnUse">
<stop stop-color="#0061FE"/>
<stop offset="1" stop-color="#5F96FF"/>
</linearGradient>
<linearGradient id="paint29_linear_7303_12120" x1="3160.64" y1="615.218" x2="1569.77" y2="2392.94" gradientUnits="userSpaceOnUse">
<stop stop-color="#0061FE"/>
<stop offset="1" stop-color="#5F96FF"/>
</linearGradient>
<clipPath id="clip0_7303_12120">
<rect width="7295.01" height="1667.82" fill="white" transform="matrix(-0.956392 -0.295529 -0.185674 0.981222 4589.69 1188.74)"/>
</clipPath>
</defs>
</svg>
