<svg width="239" height="27" viewBox="0 0 239 27" fill="none" xmlns="http://www.w3.org/2000/svg">
<path d="M206.84 1.13672H204.695V23.9464C204.695 25.352 205.484 26.1889 206.805 26.1889H208.948V3.24522C208.95 1.98378 208.102 1.13672 206.84 1.13672Z" fill="url(#paint0_linear_7303_14316)"/>
<path d="M238.677 14.9787C238.476 20.4897 235.145 24.6702 230.183 26.1307C228.933 26.4983 227.577 26.6933 226.142 26.6933C218.904 26.6933 213.234 20.9874 213.234 13.695C213.234 6.51222 219.025 0.664062 226.142 0.664062C230.197 0.664062 233.955 2.54506 236.445 5.82767L236.574 5.9983L234.736 7.04646C234.321 7.27599 233.943 7.38569 233.575 7.38569C233.031 7.38569 232.512 7.15208 231.89 6.62394C230.278 5.15124 228.294 4.37325 226.142 4.37325C221.353 4.37325 217.454 8.55776 217.454 13.695C217.454 14.0301 217.47 14.3592 217.503 14.6862C217.95 19.3278 221.54 22.8948 226.04 22.9862H226.199C230.597 22.9862 234.012 20.2764 234.405 16.5144H227.319C225.979 16.5144 225.211 15.7567 225.211 14.4384V12.7016H238.592L238.608 12.8702C238.677 13.5873 238.677 14.4567 238.677 14.9787Z" fill="url(#paint1_linear_7303_14316)"/>
<path d="M10.3594 8.32812L19.0816 13.6563L10.3594 18.9986V17.1339C10.3594 16.3924 10.7557 15.7099 11.3981 15.3402L14.3373 13.6563L11.396 11.9601C10.7557 11.5904 10.3614 10.9079 10.3614 10.1705V8.32812H10.3594Z" fill="url(#paint2_linear_7303_14316)"/>
<path d="M26.0847 16.9694C25.357 19.7969 23.7207 22.2609 21.5051 24.0282C19.2448 25.834 16.3807 26.9126 13.2585 26.9126C12.419 26.9126 11.5978 26.8334 10.801 26.6851C7.32719 26.0351 4.33306 24.0302 2.38169 21.2412C0.751488 18.9113 -0.146954 16.0309 0.0197253 12.9352C0.391705 5.99619 6.2702 0.430383 13.224 0.414133C16.3828 0.403976 19.2834 1.49885 21.564 3.33516C22.0844 3.75362 22.5722 4.20863 23.0215 4.70021C23.0235 4.70224 23.0255 4.70427 23.0276 4.7063C23.0398 4.72052 23.054 4.73271 23.0682 4.74693C23.0682 4.74896 23.0703 4.74896 23.0703 4.74896C23.0723 4.75099 23.0763 4.75505 23.0784 4.75709C23.178 4.86678 23.2735 4.9785 23.3691 5.09022C23.4036 5.13085 23.4361 5.16944 23.4687 5.21007C23.4727 5.21616 23.4788 5.22226 23.4829 5.22835C23.5357 5.28929 23.5845 5.35023 23.6333 5.41117C23.6821 5.47211 23.7309 5.53305 23.7776 5.59399C23.7797 5.59805 23.7817 5.60008 23.7837 5.60211C23.7918 5.6143 23.802 5.62446 23.8101 5.63665C23.8203 5.64883 23.8284 5.65899 23.8366 5.67118C23.8691 5.71384 23.9016 5.75649 23.9341 5.80118C23.9443 5.8154 23.9545 5.82759 23.9646 5.84181C24.0114 5.90478 24.0561 5.96775 24.1008 6.03072C24.1598 6.11604 24.2146 6.20338 24.2655 6.29073C24.2817 6.31714 24.296 6.34354 24.3102 6.36995C24.5683 6.84934 24.6883 7.35717 24.6883 7.85281C24.6883 7.8975 24.6862 7.94219 24.6842 7.98688C24.6822 8.02547 24.6801 8.06204 24.6781 8.0986C24.6761 8.1311 24.672 8.1636 24.6679 8.19407C24.6659 8.20626 24.6659 8.21845 24.6639 8.2286C24.6598 8.2672 24.6537 8.30376 24.6476 8.34236C24.6435 8.3647 24.6415 8.38502 24.6374 8.40736C24.6374 8.40939 24.6354 8.41142 24.6354 8.41142C24.6313 8.43174 24.6273 8.45408 24.6232 8.47439C24.6191 8.49674 24.613 8.51908 24.609 8.5394C24.5988 8.58408 24.5887 8.62674 24.5765 8.67143C24.5643 8.71409 24.5521 8.75675 24.5378 8.80144C24.5317 8.82378 24.5236 8.84409 24.5175 8.86441C24.5094 8.88675 24.5033 8.90706 24.4952 8.92738C24.487 8.94769 24.4789 8.97003 24.4708 8.99035C24.4382 9.07363 24.4017 9.15692 24.363 9.23614C24.3427 9.27676 24.3224 9.31739 24.3021 9.35598C24.2817 9.39661 24.2594 9.43521 24.235 9.47177C24.2228 9.49005 24.2126 9.51037 24.2004 9.52865C24.1882 9.54693 24.176 9.56724 24.1638 9.58552C24.1516 9.60381 24.1394 9.62209 24.1252 9.6424C24.113 9.66068 24.0988 9.67896 24.0866 9.69724C24.048 9.75209 24.0073 9.8049 23.9646 9.85772L23.9626 9.85975C23.9341 9.89428 23.9057 9.92678 23.8772 9.96132C23.863 9.97757 23.8467 9.99585 23.8325 10.0101C23.8162 10.0263 23.802 10.0426 23.7858 10.0588C23.7553 10.0913 23.7227 10.1218 23.6902 10.1543C23.674 10.1705 23.6577 10.1848 23.6414 10.201C23.6252 10.2152 23.6069 10.2315 23.5906 10.2457C23.5561 10.2762 23.5215 10.3046 23.4869 10.333C23.4687 10.3473 23.4504 10.3615 23.4321 10.3737C23.3386 10.4448 23.241 10.5098 23.1394 10.5687C23.1231 10.5788 23.1048 10.589 23.0885 10.5971C23.0682 10.6093 23.0479 10.6195 23.0276 10.6317C22.9158 10.6906 22.7979 10.7434 22.6779 10.7901C22.6617 10.7962 22.6434 10.8023 22.6271 10.8084C22.5966 10.8206 22.5661 10.8287 22.5357 10.8388C22.5153 10.8449 22.495 10.851 22.4747 10.8571C22.3934 10.8815 22.31 10.9018 22.2247 10.9201C22.1982 10.9262 22.1718 10.9303 22.1454 10.9363C22.1271 10.9404 22.1068 10.9424 22.0885 10.9465C22.0641 10.9506 22.0397 10.9546 22.0153 10.9587C22.0031 10.9607 21.9909 10.9628 21.9787 10.9628C21.9584 10.9668 21.936 10.9689 21.9137 10.9709C21.8669 10.9749 21.8202 10.979 21.7714 10.9831C21.7531 10.9851 21.7328 10.9851 21.7145 10.9871C21.6921 10.9892 21.6697 10.9892 21.6453 10.9892C21.6169 10.9892 21.5884 10.9912 21.56 10.9912C20.4339 7.48311 17.145 4.94194 13.2606 4.94194C10.3884 4.94194 7.83942 6.33136 6.24987 8.47439V8.47643C5.84944 9.01472 5.51404 9.59974 5.24776 10.2213C4.96929 10.8713 4.76805 11.56 4.65422 12.279C4.53429 13.0408 4.5099 13.833 4.60137 14.6455C4.72943 15.8095 5.09531 16.9084 5.65023 17.8956C5.91042 18.3588 6.21125 18.7955 6.54868 19.2038C6.62795 19.2993 6.71129 19.3947 6.79463 19.4902C7.03855 19.7584 7.2967 20.0123 7.57111 20.2499C7.6077 20.2824 7.64632 20.3129 7.68494 20.3454C7.71746 20.3738 7.74999 20.4002 7.78454 20.4267C7.83942 20.4713 7.89431 20.514 7.94919 20.5567C7.97968 20.581 8.0122 20.6054 8.04269 20.6278C8.124 20.6887 8.20531 20.7496 8.28864 20.8065C8.3293 20.837 8.37198 20.8654 8.41467 20.8918C8.44923 20.9162 8.48581 20.9406 8.52037 20.9629C8.52443 20.965 8.5285 20.967 8.53257 20.9711C8.58541 21.0056 8.63826 21.0381 8.69111 21.0706C8.77039 21.1214 8.8517 21.1701 8.93503 21.2168C8.97162 21.2372 9.00618 21.2575 9.04277 21.2778C9.05496 21.2859 9.06919 21.292 9.08342 21.3001C9.12001 21.3204 9.1566 21.3407 9.19318 21.359C9.19928 21.3631 9.20538 21.3651 9.20945 21.3692C9.25213 21.3915 9.29482 21.4139 9.3375 21.4342C9.42898 21.4809 9.52044 21.5256 9.61395 21.5683C9.6607 21.5906 9.70745 21.6109 9.7542 21.6312C9.80095 21.6536 9.8477 21.6719 9.89446 21.6922C10.0835 21.7714 10.2766 21.8465 10.4717 21.9115C10.5124 21.9258 10.5551 21.94 10.5957 21.9522C10.5978 21.9522 10.6018 21.9542 10.6039 21.9542C10.612 21.9583 10.6201 21.9603 10.6283 21.9623C10.6323 21.9644 10.6364 21.9664 10.6404 21.9664C10.6831 21.9806 10.7258 21.9928 10.7665 22.005C10.8112 22.0192 10.8559 22.0314 10.9027 22.0456C10.9149 22.0497 10.9271 22.0517 10.9393 22.0558C11.0328 22.0822 11.1242 22.1045 11.2198 22.1269C11.2706 22.1391 11.3214 22.1512 11.3722 22.1614C11.4637 22.1817 11.5552 22.2 11.6466 22.2162C11.6527 22.2183 11.6588 22.2183 11.6649 22.2203C11.6812 22.2244 11.6954 22.2264 11.7117 22.2284C11.7157 22.2284 11.7198 22.2305 11.7239 22.2305C11.7605 22.2386 11.7991 22.2447 11.8377 22.2487C11.8885 22.2569 11.9414 22.265 11.9942 22.2731C13.0105 22.4153 13.9964 22.3828 14.9314 22.202C15.0554 22.1797 15.1774 22.1533 15.2973 22.1228C15.3786 22.1045 15.4579 22.0842 15.5392 22.0619C15.8583 21.9765 16.1714 21.8709 16.4742 21.7511C16.5881 21.7064 16.7019 21.6576 16.8116 21.6089C16.8482 21.5926 16.8869 21.5764 16.9234 21.5581C16.9966 21.5236 17.0698 21.489 17.143 21.4525C17.2507 21.3997 17.3584 21.3428 17.4641 21.2839C17.4662 21.2839 17.4682 21.2818 17.4702 21.2798C17.5393 21.2412 17.6085 21.2026 17.6776 21.162C17.7121 21.1417 17.7467 21.1214 17.7812 21.099C17.8503 21.0584 17.9195 21.0137 17.9865 20.969C18.0211 20.9487 18.0536 20.9264 18.0882 20.902C18.1227 20.8796 18.1552 20.8573 18.1878 20.835C18.2101 20.8207 18.2305 20.8065 18.2528 20.7903C18.3301 20.7374 18.4073 20.6806 18.4825 20.6237C18.5069 20.6054 18.5313 20.5892 18.5536 20.5688C18.6309 20.5099 18.7061 20.451 18.7813 20.3881C18.8037 20.3698 18.826 20.3515 18.8484 20.3332C18.8829 20.3048 18.9175 20.2743 18.9521 20.2459C18.9825 20.2195 19.013 20.1931 19.0435 20.1666C19.074 20.1402 19.1045 20.1138 19.133 20.0854C19.2224 20.0041 19.3098 19.9209 19.3952 19.8355C19.4236 19.8091 19.4521 19.7787 19.4805 19.7502C19.5334 19.6974 19.5842 19.6446 19.633 19.5898C19.6655 19.5552 19.698 19.5207 19.7285 19.4862C19.755 19.4557 19.7834 19.4272 19.8078 19.3968C19.8871 19.3054 19.9664 19.214 20.0416 19.1205C20.068 19.0901 20.0924 19.0575 20.1168 19.0271C20.1432 18.9946 20.1656 18.9641 20.19 18.9316C20.2143 18.8991 20.2387 18.8666 20.2631 18.8341C20.2875 18.8016 20.3119 18.7691 20.3343 18.7366C20.3831 18.6696 20.4278 18.6046 20.4745 18.5355C20.5192 18.4705 20.564 18.4035 20.6066 18.3364C20.6087 18.3344 20.6087 18.3324 20.6107 18.3303C20.627 18.3039 20.6432 18.2796 20.6595 18.2531C20.6778 18.2247 20.6941 18.1963 20.7123 18.1678C20.7245 18.1496 20.7367 18.1292 20.7469 18.1089C20.7591 18.0906 20.7693 18.0703 20.7815 18.05C20.8079 18.0074 20.8323 17.9647 20.8567 17.92C21.186 17.337 21.7836 16.9592 22.4544 16.9592H26.0847V16.9694Z" fill="url(#paint3_linear_7303_14316)"/>
<path d="M22.4478 16.9713C21.777 16.9713 21.1794 17.3491 20.8501 17.9321C20.8257 17.9747 20.8013 18.0174 20.7749 18.0621C20.7627 18.0824 20.7525 18.1007 20.7403 18.121C20.7282 18.1413 20.716 18.1596 20.7058 18.1799C20.6875 18.2083 20.6712 18.2368 20.6529 18.2652C20.6367 18.2916 20.6204 18.318 20.6042 18.3424C20.6021 18.3444 20.6021 18.3465 20.6001 18.3485C20.5574 18.4155 20.5147 18.4826 20.468 18.5476C20.4212 18.6146 20.3745 18.6816 20.3277 18.7487C20.3054 18.7812 20.281 18.8137 20.2566 18.8462C20.2322 18.8787 20.2078 18.9112 20.1834 18.9437C20.159 18.9762 20.1346 19.0066 20.1102 19.0391C20.0858 19.0716 20.0614 19.1021 20.035 19.1326C19.9598 19.226 19.8826 19.3195 19.8013 19.4088C19.7748 19.4393 19.7484 19.4698 19.722 19.4982C19.6915 19.5328 19.659 19.5673 19.6264 19.6018C19.5777 19.6567 19.5268 19.7095 19.474 19.7623C19.4476 19.7907 19.4171 19.8192 19.3886 19.8476C19.3032 19.9329 19.2158 20.0162 19.1264 20.0975C19.098 20.1259 19.0675 20.1523 19.037 20.1787C19.0065 20.2051 18.976 20.2336 18.9455 20.2579C18.9109 20.2884 18.8764 20.3168 18.8418 20.3453C18.8195 20.3636 18.7971 20.3818 18.7748 20.4001C18.6995 20.4611 18.6243 20.522 18.5471 20.5809C18.5227 20.5992 18.5003 20.6175 18.476 20.6358C18.4007 20.6926 18.3235 20.7495 18.2463 20.8023C18.2239 20.8186 18.2036 20.8328 18.1812 20.847C18.1487 20.8714 18.1141 20.8937 18.0816 20.914C18.0491 20.9364 18.0145 20.9587 17.98 20.9811C17.9129 21.0258 17.8438 21.0684 17.7747 21.1111C17.7401 21.1334 17.7056 21.1537 17.671 21.1741C17.6019 21.2147 17.5328 21.2533 17.4637 21.2919C17.4616 21.2939 17.4596 21.2939 17.4576 21.2959C17.3519 21.3548 17.2442 21.4117 17.1364 21.4645C17.0632 21.5011 16.9901 21.5356 16.9169 21.5702C16.8803 21.5884 16.8437 21.6047 16.8051 21.6209C16.6933 21.6717 16.5815 21.7185 16.4677 21.7631C16.1648 21.885 15.8518 21.9886 15.5326 22.0739C15.4534 22.0963 15.3721 22.1166 15.2908 22.1349C15.1688 22.1653 15.0468 22.1917 14.9249 22.2141C13.9919 22.3969 13.004 22.4274 11.9877 22.2852C11.9348 22.2771 11.882 22.2689 11.8311 22.2608C11.7925 22.2547 11.7559 22.2486 11.7173 22.2425C11.7132 22.2425 11.7092 22.2405 11.7051 22.2405C11.6889 22.2385 11.6746 22.2364 11.6584 22.2324C11.6523 22.2303 11.6462 22.2303 11.6401 22.2283C11.5486 22.2121 11.4571 22.1938 11.3657 22.1735C11.3148 22.1633 11.264 22.1511 11.2132 22.1389C11.1197 22.1166 11.0262 22.0922 10.9327 22.0678C10.9205 22.0638 10.9083 22.0617 10.8961 22.0577C10.8494 22.0455 10.8046 22.0313 10.7599 22.0171C10.7172 22.0049 10.6745 21.9927 10.6339 21.9785C10.6298 21.9764 10.6258 21.9744 10.6217 21.9744C10.6136 21.9724 10.6054 21.9703 10.5973 21.9663C10.5953 21.9663 10.5912 21.9642 10.5892 21.9642C10.5465 21.952 10.5058 21.9378 10.4652 21.9236C10.27 21.8586 10.0769 21.7855 9.8879 21.7042C9.84115 21.6859 9.7944 21.6656 9.74765 21.6433C9.7009 21.623 9.65414 21.6027 9.60739 21.5803C9.51389 21.5377 9.42242 21.493 9.33095 21.4463C9.28826 21.4259 9.24558 21.4036 9.20289 21.3813C9.19679 21.3792 9.1907 21.3752 9.18663 21.3711C9.15004 21.3528 9.11345 21.3325 9.07687 21.3122C9.06264 21.3041 9.05044 21.298 9.03621 21.2898C8.99962 21.2695 8.96304 21.2492 8.92848 21.2289C8.84717 21.1822 8.76587 21.1334 8.68456 21.0826C8.63171 21.0501 8.57886 21.0176 8.52601 20.9831C8.52195 20.9811 8.51788 20.979 8.51381 20.975C8.47926 20.9526 8.44267 20.9283 8.40811 20.9039C8.36543 20.8755 8.32274 20.847 8.28209 20.8186C8.19875 20.7617 8.11541 20.7008 8.03614 20.6398C8.00361 20.6175 7.97312 20.5931 7.94263 20.5687C7.88775 20.5261 7.83287 20.4834 7.77799 20.4387C7.74343 20.4123 7.71091 20.3839 7.67838 20.3575C7.63976 20.325 7.60318 20.2945 7.56456 20.262C7.29014 20.0243 7.032 19.7704 6.78807 19.5023C6.70473 19.4088 6.61936 19.3134 6.54212 19.2159C6.2047 18.8076 5.90386 18.3708 5.64368 17.9077C5.08876 16.9205 4.72288 15.8215 4.59482 14.6576C4.50538 13.8451 4.52774 13.0529 4.64767 12.2911C4.7615 11.572 4.96273 10.8834 5.24121 10.2334C5.50952 9.61181 5.84491 9.02679 6.24332 8.48849V8.48646C7.8349 6.34342 10.3839 4.95197 13.256 4.95197C17.1405 4.95197 20.4294 7.49315 21.5555 11.0012C21.5839 11.0012 21.6124 11.0012 21.6408 10.9992C21.6632 10.9992 21.6876 10.9972 21.7099 10.9972C21.7282 10.9972 21.7486 10.9951 21.7669 10.9931C21.8156 10.989 21.8624 10.987 21.9091 10.9809C21.9315 10.9789 21.9518 10.9769 21.9742 10.9728C21.9864 10.9708 21.9986 10.9687 22.0108 10.9687C22.0352 10.9647 22.0596 10.9626 22.0839 10.9565C22.1043 10.9525 22.1226 10.9504 22.1409 10.9464C22.1673 10.9423 22.1957 10.9362 22.2201 10.9301C22.3055 10.9119 22.3889 10.8915 22.4702 10.8672C22.4905 10.8611 22.5108 10.855 22.5311 10.8489C22.5616 10.8387 22.5921 10.8286 22.6226 10.8184C22.6409 10.8123 22.6572 10.8062 22.6734 10.8001C22.7954 10.7534 22.9112 10.7006 23.023 10.6417C23.0434 10.6295 23.0637 10.6193 23.084 10.6072C23.1023 10.597 23.1186 10.5889 23.1348 10.5787C23.2365 10.5198 23.334 10.4528 23.4275 10.3837C23.4458 10.3695 23.4641 10.3573 23.4824 10.3431C23.517 10.3146 23.5536 10.2862 23.5861 10.2557C23.6044 10.2415 23.6206 10.2253 23.6369 10.211C23.6532 10.1968 23.6715 10.1806 23.6857 10.1643C23.7182 10.1339 23.7507 10.1014 23.7812 10.0689C23.7975 10.0526 23.8117 10.0364 23.828 10.0201C23.8442 10.0039 23.8585 9.9876 23.8727 9.97135C23.9012 9.93885 23.9296 9.90432 23.9581 9.86979C23.9581 9.86979 23.9581 9.86775 23.9601 9.86775C24.0028 9.81494 24.0434 9.76213 24.0821 9.70728C24.0943 9.689 24.1085 9.67072 24.1207 9.65243C24.1329 9.63415 24.1471 9.61587 24.1593 9.59556C24.1715 9.57728 24.1837 9.55899 24.1959 9.53868C24.2081 9.5204 24.2203 9.50009 24.2305 9.4818C24.2548 9.44321 24.2752 9.40461 24.2975 9.36602C24.3179 9.32742 24.3382 9.2868 24.3585 9.24617C24.3971 9.16492 24.4337 9.08367 24.4662 9.00038C24.4744 8.98007 24.4825 8.95976 24.4906 8.93741C24.4988 8.9171 24.5049 8.89475 24.513 8.87444C24.5211 8.85413 24.5272 8.83178 24.5333 8.81147C24.5476 8.76881 24.5597 8.72616 24.5719 8.68147C24.5841 8.63881 24.5943 8.59412 24.6045 8.54943C24.6085 8.52709 24.6146 8.50474 24.6187 8.48443C24.6228 8.46412 24.6268 8.44177 24.6309 8.42146C24.6309 8.41943 24.6309 8.41739 24.6329 8.41739C24.637 8.39505 24.639 8.37474 24.6431 8.35239C24.6492 8.31583 24.6553 8.27723 24.6593 8.23864C24.6614 8.22645 24.6614 8.21426 24.6634 8.20411C24.6675 8.17161 24.6695 8.14114 24.6736 8.10863C24.6776 8.07207 24.6797 8.03348 24.6797 7.99691C24.6817 7.95222 24.6837 7.90754 24.6837 7.86285C24.6837 7.36721 24.5658 6.85938 24.3057 6.37999C24.2914 6.35358 24.2772 6.32717 24.2609 6.30076C24.2122 6.21342 24.1573 6.12607 24.0963 6.04076C24.0516 5.97779 24.0069 5.91481 23.9601 5.85184C23.9499 5.83762 23.9398 5.8234 23.9296 5.81122C23.8971 5.76856 23.8646 5.72387 23.832 5.68121C23.8239 5.66902 23.8138 5.65887 23.8056 5.64668C23.7975 5.63449 23.7873 5.6223 23.7792 5.61215C23.7772 5.60809 23.7751 5.60605 23.7731 5.60402C23.7264 5.54308 23.6796 5.48214 23.6288 5.4212C23.58 5.36026 23.5312 5.29932 23.4784 5.23839C23.4743 5.23229 23.4682 5.2262 23.4641 5.2201V5.21807C23.3401 5.05963 23.2101 4.90931 23.0739 4.76509C23.0718 4.76103 23.0678 4.759 23.0657 4.75696C23.0657 4.75696 23.0657 4.75696 23.0637 4.75493C23.0495 4.74071 23.0373 4.7265 23.023 4.71431C23.021 4.71228 23.019 4.71024 23.0169 4.70821C22.5657 4.21663 22.0779 3.76162 21.5595 3.34317C20.9131 2.90847 20.037 2.47173 18.8947 2.19141C18.8866 2.18938 18.8805 2.18735 18.8723 2.18735C18.3438 2.05938 17.7564 1.9639 17.11 1.91718C14.1748 1.66733 11.9511 2.43517 11.9511 2.43517C11.6604 2.52252 11.3738 2.62002 11.0912 2.72768C10.953 2.78049 10.8168 2.83534 10.6827 2.89425C10.6766 2.88612 10.6705 2.89018 10.6705 2.89018C6.21079 4.80775 3.07031 9.39852 3.07031 14.7612C3.07031 20.1747 6.27177 24.804 10.7985 26.687C11.5933 26.8353 12.4165 26.9146 13.256 26.9146C16.3782 26.9146 19.2423 25.8359 21.5026 24.0301C23.7182 22.2649 25.3545 19.7989 26.0822 16.9713H22.4478Z" fill="url(#paint4_linear_7303_14316)"/>
<path d="M26.0822 16.9688H22.4478C21.779 16.9688 21.1794 17.3466 20.8501 17.9296C19.5797 20.1843 17.3315 21.8175 14.6789 22.2542C13.8191 22.3964 12.9166 22.4127 11.9897 22.2806C10.3168 22.045 8.79024 21.3158 7.5625 20.2534C7.5625 20.2534 7.81658 20.5418 8.32272 20.9339C8.36134 20.9623 8.40199 20.9908 8.44265 21.0212C8.44875 21.0253 8.45484 21.0314 8.46094 21.0354C8.87154 21.3097 9.30044 21.5595 9.74559 21.787C9.75982 21.7931 9.77202 21.7992 9.78625 21.8073C9.82893 21.8297 9.87162 21.85 9.9143 21.8683C10.6908 22.2481 11.5161 22.5508 12.3799 22.7641C12.382 22.7641 12.384 22.7661 12.386 22.7661C12.9653 22.9083 13.5609 23.0119 14.1728 23.0708C14.6504 23.1175 15.124 23.1358 15.5916 23.1277C16.3376 23.1155 17.0693 23.0363 17.7808 22.8961C17.795 22.8941 17.8092 22.8921 17.8234 22.89L17.8255 22.888C21.3318 22.1872 24.3605 20.0015 26.0822 16.9688Z" fill="url(#paint5_linear_7303_14316)"/>
<path d="M126.889 17.0006C126.162 19.8282 124.525 22.2922 122.31 24.0594C120.049 25.8653 117.185 26.9439 114.063 26.9439C113.224 26.9439 112.403 26.8647 111.606 26.7164C108.132 26.0664 105.138 24.0615 103.186 21.2725C101.556 18.9425 100.658 16.0621 100.824 12.9664C101.196 6.02744 107.075 0.461633 114.029 0.445383C117.187 0.435226 120.088 1.53011 122.369 3.36642C122.889 3.78487 123.377 4.23988 123.826 4.73146C123.828 4.73349 123.83 4.73552 123.832 4.73755C123.844 4.75177 123.859 4.76396 123.873 4.77818C123.873 4.78021 123.875 4.78021 123.875 4.78021C123.877 4.78224 123.881 4.7863 123.883 4.78834C123.983 4.89803 124.078 5.00975 124.174 5.12147C124.208 5.1621 124.241 5.20069 124.273 5.24132C124.277 5.24741 124.284 5.25351 124.288 5.2596C124.34 5.32054 124.389 5.38148 124.438 5.44242C124.487 5.50336 124.536 5.5643 124.582 5.62524C124.584 5.6293 124.586 5.63133 124.588 5.63336C124.597 5.64555 124.607 5.65571 124.615 5.6679C124.625 5.68008 124.633 5.69024 124.641 5.70243C124.674 5.74509 124.706 5.78774 124.739 5.83243C124.749 5.84665 124.759 5.85884 124.769 5.87306C124.816 5.93603 124.861 5.999 124.906 6.06197C124.964 6.14729 125.019 6.23463 125.07 6.32198C125.086 6.34839 125.101 6.37479 125.115 6.4012C125.373 6.88059 125.493 7.38842 125.493 7.88406C125.493 7.92875 125.491 7.97344 125.489 8.01813C125.487 8.05672 125.485 8.09329 125.483 8.12985C125.481 8.16235 125.477 8.19485 125.473 8.22532C125.471 8.23751 125.471 8.2497 125.469 8.25985C125.464 8.29845 125.458 8.33501 125.452 8.37361C125.448 8.39595 125.446 8.41627 125.442 8.43861C125.442 8.44064 125.44 8.44267 125.44 8.44267C125.436 8.46299 125.432 8.48533 125.428 8.50564C125.424 8.52799 125.418 8.55033 125.414 8.57065C125.404 8.61534 125.393 8.65799 125.381 8.70268C125.369 8.74534 125.357 8.788 125.343 8.83269C125.336 8.85503 125.328 8.87534 125.322 8.89566C125.314 8.918 125.308 8.93831 125.3 8.95863C125.292 8.97894 125.284 9.00128 125.275 9.0216C125.243 9.10488 125.206 9.18817 125.168 9.26739C125.147 9.30801 125.127 9.34864 125.107 9.38724C125.086 9.42786 125.064 9.46646 125.04 9.50302C125.027 9.5213 125.017 9.54162 125.005 9.5599C124.993 9.57818 124.981 9.59849 124.969 9.61677C124.956 9.63506 124.944 9.65334 124.93 9.67365C124.918 9.69193 124.903 9.71021 124.891 9.7285C124.853 9.78334 124.812 9.83616 124.769 9.88897L124.767 9.891C124.739 9.92554 124.71 9.95804 124.682 9.99257C124.668 10.0088 124.651 10.0271 124.637 10.0413C124.621 10.0576 124.607 10.0738 124.59 10.0901C124.56 10.1226 124.527 10.153 124.495 10.1855C124.479 10.2018 124.462 10.216 124.446 10.2323C124.43 10.2465 124.412 10.2627 124.395 10.277C124.361 10.3074 124.326 10.3359 124.292 10.3643C124.273 10.3785 124.255 10.3927 124.237 10.4049C124.143 10.476 124.046 10.541 123.944 10.5999C123.928 10.6101 123.909 10.6202 123.893 10.6284C123.873 10.6406 123.853 10.6507 123.832 10.6629C123.72 10.7218 123.603 10.7746 123.483 10.8213C123.466 10.8274 123.448 10.8335 123.432 10.8396C123.401 10.8518 123.371 10.8599 123.34 10.8701C123.32 10.8762 123.3 10.8823 123.279 10.8884C123.198 10.9128 123.115 10.9331 123.029 10.9513C123.003 10.9574 122.976 10.9615 122.95 10.9676C122.932 10.9717 122.911 10.9737 122.893 10.9778C122.869 10.9818 122.844 10.9859 122.82 10.9899C122.808 10.992 122.796 10.994 122.783 10.994C122.763 10.9981 122.741 11.0001 122.718 11.0021C122.672 11.0062 122.625 11.0103 122.576 11.0143C122.558 11.0164 122.537 11.0164 122.519 11.0184C122.497 11.0204 122.474 11.0204 122.45 11.0204C122.422 11.0204 122.393 11.0224 122.365 11.0224C121.239 7.51436 117.95 4.97319 114.065 4.97319C111.193 4.97319 108.644 6.36261 107.055 8.50564V8.50768C106.654 9.04597 106.319 9.63099 106.052 10.2526C105.774 10.9026 105.573 11.5912 105.459 12.3103C105.339 13.072 105.315 13.8643 105.406 14.6768C105.534 15.8407 105.9 16.9397 106.455 17.9269C106.715 18.39 107.016 18.8268 107.353 19.2351C107.433 19.3305 107.516 19.426 107.599 19.5215C107.843 19.7896 108.101 20.0435 108.376 20.2812C108.412 20.3137 108.451 20.3442 108.49 20.3767C108.522 20.4051 108.555 20.4315 108.589 20.4579C108.644 20.5026 108.699 20.5453 108.754 20.5879C108.784 20.6123 108.817 20.6367 108.847 20.659C108.929 20.7199 109.01 20.7809 109.093 20.8378C109.134 20.8682 109.177 20.8967 109.219 20.9231C109.254 20.9475 109.291 20.9718 109.325 20.9942C109.329 20.9962 109.333 20.9982 109.337 21.0023C109.39 21.0368 109.443 21.0693 109.496 21.1018C109.575 21.1526 109.656 21.2014 109.74 21.2481C109.776 21.2684 109.811 21.2887 109.847 21.309C109.86 21.3172 109.874 21.3232 109.888 21.3314C109.925 21.3517 109.961 21.372 109.998 21.3903C110.004 21.3943 110.01 21.3964 110.014 21.4004C110.057 21.4228 110.1 21.4451 110.142 21.4654C110.234 21.5122 110.325 21.5568 110.419 21.5995C110.465 21.6219 110.512 21.6422 110.559 21.6625C110.606 21.6848 110.652 21.7031 110.699 21.7234C110.888 21.8026 111.081 21.8778 111.276 21.9428C111.317 21.957 111.36 21.9712 111.4 21.9834C111.402 21.9834 111.407 21.9855 111.409 21.9855C111.417 21.9895 111.425 21.9916 111.433 21.9936C111.437 21.9956 111.441 21.9976 111.445 21.9976C111.488 22.0119 111.531 22.0241 111.571 22.0362C111.616 22.0505 111.661 22.0626 111.707 22.0769C111.72 22.0809 111.732 22.083 111.744 22.087C111.837 22.1134 111.929 22.1358 112.024 22.1581C112.075 22.1703 112.126 22.1825 112.177 22.1927C112.268 22.213 112.36 22.2312 112.451 22.2475C112.457 22.2495 112.464 22.2495 112.47 22.2516C112.486 22.2556 112.5 22.2577 112.516 22.2597C112.52 22.2597 112.524 22.2617 112.529 22.2617C112.565 22.2698 112.604 22.2759 112.642 22.28C112.693 22.2881 112.746 22.2962 112.799 22.3044C113.815 22.4466 114.801 22.4141 115.736 22.2333C115.86 22.2109 115.982 22.1845 116.102 22.1541C116.183 22.1358 116.263 22.1155 116.344 22.0931C116.663 22.0078 116.976 21.9022 117.279 21.7823C117.393 21.7376 117.507 21.6889 117.616 21.6401C117.653 21.6239 117.692 21.6076 117.728 21.5894C117.801 21.5548 117.874 21.5203 117.948 21.4837C118.055 21.4309 118.163 21.374 118.269 21.3151C118.271 21.3151 118.273 21.3131 118.275 21.3111C118.344 21.2725 118.413 21.2339 118.482 21.1932C118.517 21.1729 118.551 21.1526 118.586 21.1303C118.655 21.0896 118.724 21.045 118.791 21.0003C118.826 20.98 118.858 20.9576 118.893 20.9332C118.927 20.9109 118.96 20.8885 118.992 20.8662C119.015 20.852 119.035 20.8378 119.058 20.8215C119.135 20.7687 119.212 20.7118 119.287 20.6549C119.312 20.6367 119.336 20.6204 119.358 20.6001C119.436 20.5412 119.511 20.4823 119.586 20.4193C119.608 20.401 119.631 20.3827 119.653 20.3645C119.688 20.336 119.722 20.3056 119.757 20.2771C119.787 20.2507 119.818 20.2243 119.848 20.1979C119.879 20.1715 119.909 20.1451 119.938 20.1166C120.027 20.0354 120.114 19.9521 120.2 19.8668C120.228 19.8404 120.257 19.8099 120.285 19.7815C120.338 19.7287 120.389 19.6759 120.438 19.621C120.47 19.5865 120.503 19.5519 120.533 19.5174C120.56 19.4869 120.588 19.4585 120.612 19.428C120.692 19.3366 120.771 19.2452 120.846 19.1518C120.873 19.1213 120.897 19.0888 120.921 19.0583C120.948 19.0258 120.97 18.9954 120.995 18.9629C121.019 18.9304 121.043 18.8979 121.068 18.8654C121.092 18.8329 121.117 18.8004 121.139 18.7679C121.188 18.7008 121.232 18.6358 121.279 18.5668C121.324 18.5018 121.369 18.4347 121.411 18.3677C121.413 18.3657 121.413 18.3636 121.415 18.3616C121.432 18.3352 121.448 18.3108 121.464 18.2844C121.482 18.256 121.499 18.2275 121.517 18.1991C121.529 18.1808 121.541 18.1605 121.552 18.1402C121.564 18.1219 121.574 18.1016 121.586 18.0813C121.613 18.0386 121.637 17.996 121.661 17.9513C121.991 17.3683 122.588 16.9904 123.259 16.9904H126.889V17.0006Z" fill="url(#paint6_linear_7303_14316)"/>
<path d="M123.262 17.0005C122.592 17.0005 121.994 17.3783 121.665 17.9613C121.64 18.004 121.616 18.0466 121.589 18.0913C121.577 18.1116 121.567 18.1299 121.555 18.1502C121.543 18.1705 121.53 18.1888 121.52 18.2091C121.502 18.2376 121.486 18.266 121.467 18.2944C121.451 18.3208 121.435 18.3472 121.419 18.3716C121.417 18.3737 121.417 18.3757 121.415 18.3777C121.372 18.4447 121.329 18.5118 121.283 18.5768C121.236 18.6438 121.189 18.7109 121.142 18.7779C121.12 18.8104 121.095 18.8429 121.071 18.8754C121.047 18.9079 121.022 18.9404 120.998 18.9729C120.974 19.0054 120.949 19.0359 120.925 19.0684C120.9 19.1009 120.876 19.1313 120.85 19.1618C120.774 19.2552 120.697 19.3487 120.616 19.4381C120.589 19.4685 120.563 19.499 120.537 19.5274C120.506 19.562 120.474 19.5965 120.441 19.631C120.392 19.6859 120.341 19.7387 120.289 19.7915C120.262 19.82 120.232 19.8484 120.203 19.8768C120.118 19.9621 120.03 20.0454 119.941 20.1267C119.912 20.1551 119.882 20.1815 119.852 20.2079C119.821 20.2343 119.791 20.2628 119.76 20.2872C119.725 20.3176 119.691 20.3461 119.656 20.3745C119.634 20.3928 119.612 20.4111 119.589 20.4293C119.514 20.4903 119.439 20.5512 119.362 20.6101C119.337 20.6284 119.315 20.6467 119.29 20.665C119.215 20.7219 119.138 20.7787 119.061 20.8315C119.038 20.8478 119.018 20.862 118.996 20.8762C118.963 20.9006 118.929 20.923 118.896 20.9433C118.864 20.9656 118.829 20.988 118.795 21.0103C118.727 21.055 118.658 21.0976 118.589 21.1403C118.555 21.1627 118.52 21.183 118.486 21.2033C118.416 21.2439 118.347 21.2825 118.278 21.3211C118.276 21.3231 118.274 21.3231 118.272 21.3252C118.166 21.3841 118.059 21.4409 117.951 21.4938C117.878 21.5303 117.805 21.5648 117.731 21.5994C117.695 21.6177 117.658 21.6339 117.62 21.6502C117.508 21.7009 117.396 21.7477 117.282 21.7924C116.979 21.9142 116.666 22.0178 116.347 22.1032C116.268 22.1255 116.187 22.1458 116.105 22.1641C115.983 22.1946 115.861 22.221 115.739 22.2433C114.806 22.4261 113.819 22.4566 112.802 22.3144C112.749 22.3063 112.696 22.2982 112.646 22.29C112.607 22.2839 112.57 22.2778 112.532 22.2717C112.528 22.2717 112.524 22.2697 112.52 22.2697C112.503 22.2677 112.489 22.2657 112.473 22.2616C112.467 22.2596 112.461 22.2596 112.455 22.2575C112.363 22.2413 112.272 22.223 112.18 22.2027C112.129 22.1925 112.079 22.1803 112.028 22.1682C111.934 22.1458 111.841 22.1214 111.747 22.0971C111.735 22.093 111.723 22.091 111.711 22.0869C111.664 22.0747 111.619 22.0605 111.574 22.0463C111.532 22.0341 111.489 22.0219 111.448 22.0077C111.444 22.0056 111.44 22.0036 111.436 22.0036C111.428 22.0016 111.42 21.9996 111.412 21.9955C111.41 21.9955 111.406 21.9935 111.404 21.9935C111.361 21.9813 111.32 21.9671 111.28 21.9528C111.085 21.8878 110.891 21.8147 110.702 21.7334C110.656 21.7152 110.609 21.6949 110.562 21.6725C110.515 21.6522 110.469 21.6319 110.422 21.6095C110.328 21.5669 110.237 21.5222 110.145 21.4755C110.103 21.4552 110.06 21.4328 110.017 21.4105C110.011 21.4084 110.007 21.4044 110.001 21.4003C109.965 21.382 109.928 21.3617 109.891 21.3414C109.877 21.3333 109.865 21.3272 109.851 21.3191C109.814 21.2987 109.778 21.2784 109.743 21.2581C109.662 21.2114 109.58 21.1627 109.499 21.1119C109.446 21.0794 109.393 21.0469 109.341 21.0123C109.336 21.0103 109.332 21.0083 109.328 21.0042C109.294 20.9819 109.257 20.9575 109.223 20.9331C109.18 20.9047 109.137 20.8762 109.097 20.8478C109.013 20.7909 108.93 20.73 108.851 20.669C108.818 20.6467 108.788 20.6223 108.757 20.5979C108.702 20.5553 108.647 20.5126 108.593 20.4679C108.558 20.4415 108.525 20.4131 108.493 20.3867C108.454 20.3542 108.418 20.3237 108.379 20.2912C108.105 20.0536 107.847 19.7996 107.603 19.5315C107.519 19.4381 107.434 19.3426 107.357 19.2451C107.019 18.8368 106.718 18.4001 106.458 17.9369C105.903 16.9497 105.537 15.8508 105.409 14.6868C105.32 13.8743 105.342 13.0821 105.462 12.3203C105.576 11.6012 105.777 10.9126 106.056 10.2626C106.324 9.64103 106.659 9.05601 107.058 8.51771V8.51568C108.647 6.37264 111.196 4.98322 114.069 4.98322C117.953 4.98322 121.242 7.5244 122.368 11.0325C122.396 11.0325 122.425 11.0325 122.453 11.0304C122.476 11.0304 122.5 11.0284 122.522 11.0284C122.541 11.0284 122.561 11.0264 122.579 11.0244C122.628 11.0203 122.675 11.0183 122.722 11.0122C122.744 11.0101 122.764 11.0081 122.787 11.004C122.799 11.002 122.811 11 122.823 11C122.848 10.9959 122.872 10.9939 122.896 10.9878C122.917 10.9837 122.935 10.9817 122.953 10.9776C122.98 10.9736 123.008 10.9675 123.033 10.9614C123.118 10.9431 123.201 10.9228 123.283 10.8984C123.303 10.8923 123.323 10.8862 123.344 10.8801C123.374 10.87 123.405 10.8598 123.435 10.8497C123.453 10.8436 123.47 10.8375 123.486 10.8314C123.608 10.7847 123.724 10.7318 123.836 10.6729C123.856 10.6607 123.876 10.6506 123.897 10.6384C123.915 10.6282 123.931 10.6201 123.947 10.61C124.049 10.5511 124.147 10.484 124.24 10.415C124.258 10.4007 124.277 10.3886 124.295 10.3743C124.329 10.3459 124.366 10.3175 124.399 10.287C124.417 10.2728 124.433 10.2565 124.449 10.2423C124.466 10.2281 124.484 10.2118 124.498 10.1956C124.531 10.1651 124.563 10.1326 124.594 10.1001C124.61 10.0839 124.624 10.0676 124.64 10.0514C124.657 10.0351 124.671 10.0189 124.685 10.0026C124.714 9.9701 124.742 9.93557 124.771 9.90104C124.771 9.90104 124.771 9.899 124.773 9.899C124.815 9.84619 124.856 9.79338 124.895 9.73853C124.907 9.72025 124.921 9.70197 124.933 9.68369C124.945 9.6654 124.96 9.64712 124.972 9.62681C124.984 9.60853 124.996 9.59025 125.008 9.56993C125.021 9.55165 125.033 9.53134 125.043 9.51306C125.067 9.47446 125.088 9.43587 125.11 9.39727C125.13 9.35868 125.151 9.31805 125.171 9.27742C125.21 9.19617 125.246 9.11492 125.279 9.03163C125.287 9.01132 125.295 8.99101 125.303 8.96866C125.311 8.94835 125.317 8.926 125.325 8.90569C125.334 8.88538 125.34 8.86303 125.346 8.84272C125.36 8.80006 125.372 8.75741 125.384 8.71272C125.397 8.67006 125.407 8.62537 125.417 8.58068C125.421 8.55834 125.427 8.53599 125.431 8.51568C125.435 8.49537 125.439 8.47302 125.443 8.45271C125.443 8.45068 125.443 8.44864 125.445 8.44864C125.449 8.4263 125.452 8.40599 125.456 8.38364C125.462 8.34708 125.468 8.30848 125.472 8.26989C125.474 8.2577 125.474 8.24551 125.476 8.23536C125.48 8.20286 125.482 8.17239 125.486 8.13989C125.49 8.10332 125.492 8.06473 125.492 8.02816C125.494 7.98347 125.496 7.93879 125.496 7.8941C125.496 7.39846 125.378 6.89063 125.118 6.41123C125.104 6.38483 125.09 6.35842 125.073 6.33201C125.025 6.24467 124.97 6.15732 124.909 6.07201C124.864 6.00904 124.819 5.94606 124.773 5.88309C124.762 5.86887 124.752 5.85466 124.742 5.84247C124.71 5.79981 124.677 5.75512 124.645 5.71246C124.636 5.70028 124.626 5.69012 124.618 5.67793C124.61 5.66574 124.6 5.65355 124.592 5.6434C124.59 5.63934 124.588 5.6373 124.586 5.63527C124.539 5.57433 124.492 5.51339 124.441 5.45245C124.392 5.39151 124.344 5.33058 124.291 5.26964C124.287 5.26354 124.281 5.25745 124.277 5.25135V5.24932C124.153 5.09088 124.023 4.94056 123.886 4.79634C123.884 4.79228 123.88 4.79025 123.878 4.78821C123.878 4.78821 123.878 4.78821 123.876 4.78618C123.862 4.77196 123.85 4.75774 123.836 4.74556C123.834 4.74353 123.831 4.74149 123.829 4.73946C123.378 4.24788 122.89 3.79287 122.372 3.37442C121.726 2.93972 120.85 2.50298 119.707 2.22266C119.699 2.22063 119.693 2.2186 119.685 2.2186C119.156 2.09063 118.569 1.99515 117.922 1.94843C114.987 1.69858 112.764 2.46642 112.764 2.46642C112.473 2.55377 112.186 2.65127 111.904 2.75893C111.766 2.81174 111.629 2.86659 111.495 2.9255C111.487 2.92956 111.481 2.93159 111.481 2.93159C107.023 4.84915 103.883 9.43993 103.883 14.8026C103.883 20.2161 107.084 24.8454 111.611 26.7285C112.406 26.8767 113.229 26.956 114.069 26.956C117.191 26.956 120.055 25.8773 122.315 24.0715C124.531 22.3063 126.167 19.8403 126.895 17.0127H123.262V17.0005Z" fill="url(#paint7_linear_7303_14316)"/>
<path d="M62.6672 22.5774H61.5513V4.70996H62.47C62.4477 3.51961 62.4619 2.32723 62.529 1.13281H57.2969V26.1891H62.6347C62.6347 24.9845 62.653 23.7799 62.6672 22.5774Z" fill="url(#paint8_linear_7303_14316)"/>
<path d="M78.3867 7.50708C76.5227 3.43226 72.5854 1.13281 67.1033 1.13281H58.375C60.1292 1.13281 61.5541 2.55676 61.5541 4.30979V4.70996H66.7334C68.077 4.70996 71.4492 4.99841 73.5428 7.66552C74.4474 8.81931 75.1161 10.4159 75.2787 12.624C75.3072 12.9652 75.3194 13.3207 75.3194 13.6924C75.3194 21.7121 69.3169 22.5754 66.7354 22.5754H61.5561V23.0101C61.5561 24.7631 60.1312 26.1871 58.377 26.1871H67.1887C74.9149 26.1871 79.5453 21.5618 79.6043 13.8062V13.6599C79.6022 11.3117 79.1835 9.24792 78.3867 7.50708Z" fill="url(#paint9_linear_7303_14316)"/>
<path d="M202.006 1.13281V2.70302C202.006 3.999 201.248 4.74246 199.928 4.74246H188.747V12.2929H198.31C198.329 12.2929 198.347 12.299 198.369 12.299C198.416 12.303 198.465 12.3091 198.512 12.3152C198.575 12.3254 198.634 12.3335 198.692 12.3497C198.757 12.368 198.823 12.3863 198.886 12.4127C198.89 12.4127 198.892 12.4127 198.896 12.4168C199.231 12.5447 199.522 12.7702 199.723 13.0607C199.924 13.3491 200.046 13.7046 200.046 14.0825C200.046 15.0676 199.247 15.8659 198.262 15.8659H197.822C197.794 15.87 197.766 15.872 197.735 15.872H188.747V24.0806C188.747 25.2466 187.801 26.1871 186.635 26.1871H184.492V1.13281H202.006Z" fill="url(#paint10_linear_7303_14316)"/>
<path d="M202.242 1.13281V2.70302C202.242 3.999 201.483 4.74449 200.164 4.74449H188.072C186.094 4.74449 184.492 3.14381 184.492 1.16734V1.13281H202.242Z" fill="url(#paint11_linear_7303_14316)"/>
<path d="M52.591 8.9959C52.2211 7.96399 51.7292 7.00317 51.1295 6.12362C48.8367 2.75366 44.9705 0.628906 40.4153 0.628906C37.8806 0.628906 35.5592 1.29315 33.6058 2.46522C30.2153 4.50669 27.9326 8.09196 27.5627 12.4065C27.5586 12.4248 27.5566 12.443 27.5566 12.4593C27.5261 12.827 27.5098 13.1987 27.5078 13.5745V13.6618C27.5078 14.1189 27.5302 14.5698 27.5729 15.0106C27.5769 15.0573 27.579 15.1 27.5851 15.1447C28.266 21.8237 33.553 26.6927 40.4153 26.6927C47.3264 26.6927 52.652 21.8013 53.3167 15.0959C53.3634 14.6267 53.3878 14.1473 53.3878 13.6639C53.3878 12.0022 53.1114 10.432 52.591 8.9959ZM49.1355 13.6618C49.1355 17.0155 47.5581 19.9041 45.1352 21.5352C44.7063 21.8277 44.2489 22.0796 43.7692 22.2868C42.7407 22.7377 41.6085 22.9835 40.4133 22.9835C39.1916 22.9835 38.033 22.7215 36.9882 22.2502C33.8863 20.8486 31.7602 17.5701 31.7602 13.6618C31.7602 13.2413 31.7846 12.8249 31.8374 12.4207C32.4005 7.86445 36.0328 4.34012 40.4133 4.34012C40.8462 4.34012 41.269 4.37465 41.6817 4.43965C41.9581 4.48231 42.2325 4.53919 42.5028 4.61029C44.8201 5.21968 46.7755 6.82645 47.9484 8.97761C48.5744 10.1212 48.9769 11.4172 49.0968 12.8006C49.1233 13.0849 49.1355 13.3693 49.1355 13.6618Z" fill="url(#paint12_linear_7303_14316)"/>
<path d="M43.7656 22.2839C43.9526 22.2026 44.1356 22.1152 44.3165 22.0156C44.2067 22.0868 44.1051 22.1579 44.0095 22.227C43.9282 22.2514 43.8469 22.2697 43.7656 22.2839Z" fill="url(#paint13_linear_7303_14316)"/>
<path d="M48.2919 17.7324C48.2878 17.7324 48.2878 17.7365 48.2858 17.7365C48.8306 16.5116 49.1355 15.1323 49.1355 13.6637C49.1355 13.3712 49.1233 13.0848 49.0989 12.8024C48.981 11.4191 48.5765 10.1231 47.9504 8.97949C46.7776 6.82833 44.8221 5.22156 42.5049 4.61216C42.2345 4.54106 41.9601 4.48419 41.6837 4.44153C41.269 4.37653 40.8462 4.342 40.4153 4.342C36.0369 4.342 32.4025 7.86633 31.8394 12.4226C31.7866 12.8268 31.7622 13.2432 31.7622 13.6637C31.7622 17.5699 33.8904 20.8505 36.9902 22.2521C32.8822 21.2893 29.4754 18.6506 27.644 15.1506C27.6196 15.1039 27.5952 15.0572 27.5729 15.0145C27.5302 14.5737 27.5078 14.1228 27.5078 13.6657V13.4728C27.5078 13.1315 27.5241 12.7943 27.5566 12.4632C27.5566 12.4469 27.5607 12.4287 27.5627 12.4104C27.9326 8.09587 30.2153 4.51263 33.6058 2.46912C35.5592 1.29705 37.8785 0.632812 40.4153 0.632812C43.9765 0.632812 47.115 1.92879 49.4099 4.10433C49.4099 4.10433 49.7392 4.40293 50.2006 4.92498C50.2636 4.99608 50.3226 5.06514 50.3835 5.1403C50.4059 5.16468 50.4303 5.19312 50.4486 5.22156C50.6905 5.51406 50.9161 5.8147 51.1295 6.12955C51.7292 7.00911 52.2211 7.96992 52.591 9.00183C52.65 9.16637 52.7089 9.33497 52.7597 9.5056C53.4 12.0549 52.7658 15.11 48.2919 17.7324Z" fill="url(#paint14_linear_7303_14316)"/>
<path d="M49.0989 12.8006C48.981 11.4173 48.5765 10.1213 47.9504 8.97769C46.7776 6.82653 44.8221 5.21976 42.5049 4.61036C42.2345 4.53927 41.9601 4.48239 41.6837 4.43973C41.269 4.37473 40.8462 4.3402 40.4153 4.3402C36.0369 4.3402 32.4025 7.86453 31.8394 12.4208C31.7866 12.825 31.7622 13.2414 31.7622 13.6619C31.7622 17.5681 33.8904 20.8487 36.9902 22.2503C38.035 22.7236 39.1916 22.9836 40.4153 22.9836C41.6105 22.9836 42.7427 22.7378 43.7712 22.2869C44.2509 22.0776 44.7083 21.8278 45.1372 21.5353C44.8445 21.7648 44.5376 21.9822 44.2205 22.1812C42.5232 23.2538 40.4946 23.8754 38.3135 23.8754C32.9412 23.8754 28.4815 20.0951 27.644 15.1468C27.5607 14.6349 27.5139 14.1088 27.5078 13.5746V13.4689C27.5078 13.1277 27.5241 12.7905 27.5566 12.4594C27.5566 12.4431 27.5607 12.4248 27.5627 12.4066C28.1156 7.15763 32.7196 3.0625 38.3115 3.0625C44.0477 3.0625 48.7411 7.36483 49.0989 12.8006Z" fill="url(#paint15_linear_7303_14316)"/>
<path d="M45.1354 21.5312C44.8732 21.7081 44.6008 21.8727 44.3203 22.0171C44.5703 21.8544 44.8407 21.6939 45.1354 21.5312Z" fill="url(#paint16_linear_7303_14316)"/>
<path d="M153.896 13.6617C153.896 13.1762 153.871 12.6988 153.824 12.2296C153.16 5.52422 147.834 0.632812 140.923 0.632812C134.061 0.632812 128.774 5.49984 128.093 12.1808C128.087 12.2235 128.083 12.2682 128.081 12.3149C128.038 12.7557 128.016 13.2067 128.016 13.6637V13.751C128.02 14.1268 128.034 14.5006 128.064 14.8662C128.064 14.8825 128.068 14.9008 128.071 14.9191C128.44 19.2336 130.723 22.8168 134.114 24.8603C136.067 26.0324 138.386 26.6966 140.923 26.6966C145.48 26.6966 149.347 24.5698 151.637 21.2019C152.237 20.3224 152.729 19.3615 153.099 18.3296C153.617 16.8915 153.896 15.3213 153.896 13.6617ZM149.607 14.5229C149.489 15.9063 149.084 17.2023 148.458 18.3459C147.285 20.497 145.33 22.1038 143.013 22.7132C142.742 22.7843 142.468 22.8412 142.191 22.8838C141.777 22.9488 141.354 22.9834 140.923 22.9834C136.545 22.9834 132.91 19.459 132.347 14.9028C132.294 14.4986 132.27 14.0822 132.27 13.6617C132.27 9.75545 134.398 6.47488 137.498 5.07327C138.543 4.59997 139.699 4.33996 140.923 4.33996C142.118 4.33996 143.251 4.58575 144.279 5.03671C144.759 5.24593 145.216 5.49578 145.645 5.78829C148.068 7.41944 149.645 10.308 149.645 13.6617C149.643 13.9542 149.631 14.2386 149.607 14.5229Z" fill="url(#paint17_linear_7303_14316)"/>
<path d="M144.273 5.03516C144.46 5.11646 144.643 5.20387 144.824 5.30347C144.715 5.23233 144.613 5.16118 144.517 5.09207C144.436 5.06768 144.355 5.04938 144.273 5.03516Z" fill="url(#paint18_linear_7303_14316)"/>
<path d="M148.8 9.5939C148.796 9.5939 148.796 9.58983 148.794 9.58983C149.338 10.8147 149.643 12.194 149.643 13.6626C149.643 13.9551 149.631 14.2415 149.607 14.5239C149.489 15.9072 149.084 17.2032 148.458 18.3468C147.285 20.498 145.33 22.1048 143.013 22.7142C142.742 22.7853 142.468 22.8421 142.191 22.8848C141.777 22.9498 141.354 22.9843 140.923 22.9843C136.545 22.9843 132.91 19.46 132.347 14.9038C132.294 14.4995 132.27 14.0831 132.27 13.6626C132.27 9.7564 134.398 6.47583 137.498 5.07422C133.39 6.03706 129.983 8.67574 128.152 12.1757C128.127 12.2224 128.103 12.2691 128.081 12.3118C128.038 12.7526 128.016 13.2035 128.016 13.6606V13.8536C128.016 14.1948 128.032 14.532 128.064 14.8631C128.064 14.8794 128.068 14.8977 128.071 14.9159C128.44 19.2305 130.723 22.8137 134.114 24.8572C136.067 26.0293 138.386 26.6935 140.923 26.6935C144.484 26.6935 147.623 25.3975 149.918 23.222C149.918 23.222 150.247 22.9234 150.708 22.4013C150.771 22.3302 150.83 22.2612 150.891 22.186C150.914 22.1616 150.938 22.1332 150.956 22.1048C151.198 21.8123 151.424 21.5116 151.637 21.1968C152.237 20.3172 152.729 19.3564 153.099 18.3245C153.158 18.16 153.217 17.9914 153.268 17.8207C153.908 15.2714 153.274 12.2163 148.8 9.5939Z" fill="url(#paint19_linear_7303_14316)"/>
<path d="M149.607 14.52C149.489 15.9034 149.084 17.1994 148.458 18.343C147.285 20.4941 145.33 22.1009 143.013 22.7103C142.742 22.7814 142.468 22.8383 142.191 22.8809C141.777 22.9459 141.354 22.9805 140.923 22.9805C136.545 22.9805 132.91 19.4561 132.347 14.8999C132.294 14.4957 132.27 14.0793 132.27 13.6588C132.27 9.75255 134.398 6.47197 137.498 5.07037C138.543 4.59707 139.699 4.33706 140.923 4.33706C142.118 4.33706 143.251 4.58285 144.279 5.0338C144.759 5.24303 145.216 5.49288 145.645 5.78539C145.352 5.55585 145.045 5.3385 144.728 5.13943C143.031 4.06689 141.002 3.44531 138.821 3.44531C133.449 3.44531 128.989 7.22559 128.152 12.1739C128.068 12.6858 128.022 13.2119 128.016 13.7461V13.8517C128.016 14.193 128.032 14.5302 128.064 14.8613C128.064 14.8776 128.068 14.8958 128.071 14.9141C128.623 20.163 133.227 24.2582 138.819 24.2582C144.553 24.2582 149.249 19.9558 149.607 14.52Z" fill="url(#paint20_linear_7303_14316)"/>
<path d="M145.643 5.78659C145.381 5.60975 145.109 5.4451 144.828 5.30078C145.078 5.4634 145.348 5.62398 145.643 5.78659Z" fill="url(#paint21_linear_7303_14316)"/>
<path d="M236.576 5.99627L234.738 7.04443C234.323 7.27396 233.945 7.38365 233.577 7.38365C233.033 7.38365 232.514 7.15005 231.892 6.62191C231.4 6.17502 230.876 5.78907 230.321 5.47219C230.321 5.47219 230.317 5.46812 230.309 5.46609C229.902 5.23249 229.477 5.03748 229.04 4.87904C228.126 4.54387 227.156 4.37324 226.144 4.37324C221.355 4.37324 217.456 8.55775 217.456 13.695C217.456 14.0301 217.473 14.3592 217.505 14.6862H217.501C217.501 14.6862 217.759 27.1605 230.183 26.1307C228.933 26.4983 227.577 26.6933 226.142 26.6933C218.904 26.6933 213.234 20.9874 213.234 13.695C213.234 10.3961 214.456 7.37959 216.466 5.07811C216.47 5.07811 216.47 5.07811 216.472 5.07405C218.836 2.37037 222.298 0.664062 226.142 0.664062C230.197 0.664062 233.955 2.54506 236.445 5.82767L236.576 5.99627Z" fill="url(#paint22_linear_7303_14316)"/>
<path d="M236.578 5.99626L234.74 7.04442C234.325 7.27396 233.947 7.38365 233.579 7.38365C233.035 7.38365 232.516 7.15005 231.894 6.62191C231.402 6.17502 230.878 5.78907 230.323 5.47219C230.323 5.47219 230.319 5.46812 230.311 5.46609C230.23 5.42547 229.766 5.18577 229.043 4.87904C226.38 3.75369 220.188 1.70613 216.477 5.07405C218.841 2.37037 222.302 0.664062 226.146 0.664062C230.201 0.664062 233.96 2.54506 236.45 5.82767L236.578 5.99626Z" fill="url(#paint23_linear_7303_14316)"/>
<path d="M87.4255 4.78152H98.8125C100.132 4.78152 100.89 4.03603 100.89 2.74005V1.20234C100.89 1.18406 100.878 1.17188 100.859 1.17188H83.1711C83.1528 1.17188 83.1406 1.18406 83.1406 1.20234V26.1591V26.1936H100.892V24.6234C100.892 23.3274 100.134 22.5819 98.8146 22.5819H87.397V15.6714C87.397 15.6531 87.4092 15.6409 87.4275 15.6409H95.6924H95.916H96.3855C97.3714 15.6409 98.1723 14.8406 98.1723 13.8554C98.1723 12.8702 97.3714 12.0699 96.3855 12.0699H96.2046C96.1457 12.0638 96.1111 12.0638 96.1111 12.0638H87.4296C87.4113 12.0638 87.3991 12.0516 87.3991 12.0333V4.81199C87.395 4.79371 87.4072 4.78152 87.4255 4.78152Z" fill="url(#paint24_linear_7303_14316)"/>
<path d="M177.385 25.4903L175.448 23.457L170.176 17.9277L162.055 9.40839V24.0136C162.055 25.3156 161.193 26.1891 159.913 26.1891H157.805V1.13281H158.327C159.024 1.13281 159.693 1.41923 160.175 1.92503L168.753 10.9055C168.753 10.9055 168.757 10.9095 168.759 10.9156L175.448 17.9176V20.6497C175.448 21.5516 175.623 22.4332 175.952 23.2579C176.278 24.0786 176.763 24.8362 177.385 25.4903Z" fill="url(#paint25_linear_7303_14316)"/>
<path d="M179.705 1.13281V26.1891H179.02C178.405 26.1891 177.817 25.9372 177.39 25.4903C176.146 24.1862 175.453 22.4515 175.453 20.6497V3.30835C175.453 2.10784 176.427 1.13281 177.63 1.13281H179.705Z" fill="url(#paint26_linear_7303_14316)"/>
<path d="M162.055 9.40625V24.0094C162.055 25.3115 161.193 26.1849 159.913 26.1849H157.805V14.9578C157.805 14.0559 157.98 13.1703 158.305 12.3496C158.634 11.529 159.12 10.7672 159.742 10.1152C160.169 9.66829 160.756 9.41641 161.372 9.41641L162.055 9.40625Z" fill="url(#paint27_linear_7303_14316)"/>
<path d="M188.747 21.9617V24.0824C188.747 25.2483 187.801 26.1888 186.635 26.1888H184.498V25.7155C184.494 25.6851 184.492 25.6505 184.492 25.616V18.8984C185.706 18.9025 186.803 19.3575 187.602 20.105C188.143 20.6088 188.547 21.2466 188.747 21.9617Z" fill="url(#paint28_linear_7303_14316)"/>
<path d="M83.1406 1.13281V1.16734C83.1406 1.21 83.1447 1.2486 83.1467 1.29125V1.64064C83.1427 1.67111 83.1406 1.70564 83.1406 1.74018V8.45774C84.3541 8.45367 85.4518 7.99866 86.2506 7.25114C86.7913 6.74737 87.1958 6.10954 87.395 5.39451V4.74449H98.778C100.04 4.74449 100.89 3.8954 100.89 2.63395V1.13281H83.1406Z" fill="url(#paint29_linear_7303_14316)"/>
<path d="M98.816 22.5781H92.5391C92.5391 24.5729 94.1571 26.1898 96.1532 26.1898H100.893V24.6196C100.893 23.3236 100.135 22.5781 98.816 22.5781Z" fill="url(#paint30_linear_7303_14316)"/>
<defs>
<linearGradient id="paint0_linear_7303_14316" x1="204.697" y1="13.663" x2="208.95" y2="13.663" gradientUnits="userSpaceOnUse">
<stop stop-color="#3D56DE"/>
<stop offset="0.2691" stop-color="#4B79FF"/>
<stop offset="1" stop-color="#90ECFF"/>
</linearGradient>
<linearGradient id="paint1_linear_7303_14316" x1="213.236" y1="13.6804" x2="238.678" y2="13.6804" gradientUnits="userSpaceOnUse">
<stop stop-color="#3D56DE"/>
<stop offset="0.2691" stop-color="#4B79FF"/>
<stop offset="1" stop-color="#90ECFF"/>
</linearGradient>
<linearGradient id="paint2_linear_7303_14316" x1="5.12044" y1="4.48445" x2="20.0698" y2="22.951" gradientUnits="userSpaceOnUse">
<stop stop-color="#3D56DE"/>
<stop offset="0.2691" stop-color="#4B79FF"/>
<stop offset="1" stop-color="#90ECFF"/>
</linearGradient>
<linearGradient id="paint3_linear_7303_14316" x1="5.54246" y1="4.14123" x2="20.4918" y2="22.6078" gradientUnits="userSpaceOnUse">
<stop stop-color="#5F96FF"/>
<stop offset="0.583" stop-color="#4F54D9"/>
</linearGradient>
<linearGradient id="paint4_linear_7303_14316" x1="6.19437" y1="3.61339" x2="21.1437" y2="22.08" gradientUnits="userSpaceOnUse">
<stop stop-color="#3D56DE"/>
<stop offset="0.2691" stop-color="#4B79FF"/>
<stop offset="1" stop-color="#90ECFF"/>
</linearGradient>
<linearGradient id="paint5_linear_7303_14316" x1="5.26326" y1="4.35036" x2="20.2246" y2="22.8318" gradientUnits="userSpaceOnUse">
<stop stop-color="#4F54D9"/>
<stop offset="0.2259" stop-color="#5059DC"/>
<stop offset="0.4952" stop-color="#5468E4"/>
<stop offset="0.7857" stop-color="#5A7FF2"/>
<stop offset="1" stop-color="#5F96FF"/>
</linearGradient>
<linearGradient id="paint6_linear_7303_14316" x1="106.347" y1="4.17368" x2="121.296" y2="22.6402" gradientUnits="userSpaceOnUse">
<stop stop-color="#5F96FF"/>
<stop offset="0.583" stop-color="#4F54D9"/>
</linearGradient>
<linearGradient id="paint7_linear_7303_14316" x1="108.081" y1="0.954958" x2="123.968" y2="29.1818" gradientUnits="userSpaceOnUse">
<stop stop-color="#3D56DE"/>
<stop offset="0.2691" stop-color="#4B79FF"/>
<stop offset="1" stop-color="#90ECFF"/>
</linearGradient>
<linearGradient id="paint8_linear_7303_14316" x1="57.2952" y1="13.6608" x2="79.5996" y2="13.6608" gradientUnits="userSpaceOnUse">
<stop stop-color="#5F96FF"/>
<stop offset="0.583" stop-color="#4F54D9"/>
</linearGradient>
<linearGradient id="paint9_linear_7303_14316" x1="52.7088" y1="16.2882" x2="75.264" y2="10.9298" gradientUnits="userSpaceOnUse">
<stop stop-color="#3D56DE"/>
<stop offset="0.1494" stop-color="#3E58E0"/>
<stop offset="0.2032" stop-color="#405FE6"/>
<stop offset="0.2415" stop-color="#456AF1"/>
<stop offset="0.2691" stop-color="#4B79FF"/>
<stop offset="1" stop-color="#90ECFF"/>
</linearGradient>
<linearGradient id="paint10_linear_7303_14316" x1="183.721" y1="6.4071" x2="210.704" y2="26.9727" gradientUnits="userSpaceOnUse">
<stop stop-color="#5F96FF"/>
<stop offset="0.583" stop-color="#4F54D9"/>
</linearGradient>
<linearGradient id="paint11_linear_7303_14316" x1="184.49" y1="2.93879" x2="202.241" y2="2.93879" gradientUnits="userSpaceOnUse">
<stop stop-color="#3D56DE"/>
<stop offset="0.2691" stop-color="#4B79FF"/>
<stop offset="1" stop-color="#90ECFF"/>
</linearGradient>
<linearGradient id="paint12_linear_7303_14316" x1="27.5061" y1="13.6606" x2="53.3873" y2="13.6606" gradientUnits="userSpaceOnUse">
<stop stop-color="#5F96FF"/>
<stop offset="0.583" stop-color="#4F54D9"/>
</linearGradient>
<linearGradient id="paint13_linear_7303_14316" x1="43.7665" y1="22.151" x2="44.3171" y2="22.151" gradientUnits="userSpaceOnUse">
<stop stop-color="#3D56DE"/>
<stop offset="0.2691" stop-color="#4B79FF"/>
<stop offset="1" stop-color="#90ECFF"/>
</linearGradient>
<linearGradient id="paint14_linear_7303_14316" x1="47.9061" y1="28.2783" x2="31.8579" y2="-5.29941" gradientUnits="userSpaceOnUse">
<stop stop-color="#3D56DE"/>
<stop offset="0.2691" stop-color="#4B79FF"/>
<stop offset="1" stop-color="#90ECFF"/>
</linearGradient>
<linearGradient id="paint15_linear_7303_14316" x1="27.5061" y1="13.4696" x2="49.0981" y2="13.4696" gradientUnits="userSpaceOnUse">
<stop stop-color="#4F54D9"/>
<stop offset="0.2259" stop-color="#5059DC"/>
<stop offset="0.4952" stop-color="#5468E4"/>
<stop offset="0.7857" stop-color="#5A7FF2"/>
<stop offset="1" stop-color="#5F96FF"/>
</linearGradient>
<linearGradient id="paint16_linear_7303_14316" x1="44.3209" y1="21.7741" x2="45.1358" y2="21.7741" gradientUnits="userSpaceOnUse">
<stop stop-color="#4F54D9"/>
<stop offset="0.2259" stop-color="#5059DC"/>
<stop offset="0.4952" stop-color="#5468E4"/>
<stop offset="0.7857" stop-color="#5A7FF2"/>
<stop offset="1" stop-color="#5F96FF"/>
</linearGradient>
<linearGradient id="paint17_linear_7303_14316" x1="128.014" y1="13.6629" x2="153.895" y2="13.6629" gradientUnits="userSpaceOnUse">
<stop stop-color="#5F96FF"/>
<stop offset="0.583" stop-color="#4F54D9"/>
</linearGradient>
<linearGradient id="paint18_linear_7303_14316" x1="144.274" y1="5.16807" x2="144.825" y2="5.16807" gradientUnits="userSpaceOnUse">
<stop stop-color="#3D56DE"/>
<stop offset="0.2691" stop-color="#4B79FF"/>
<stop offset="1" stop-color="#90ECFF"/>
</linearGradient>
<linearGradient id="paint19_linear_7303_14316" x1="148.414" y1="-0.951943" x2="132.365" y2="32.6257" gradientUnits="userSpaceOnUse">
<stop stop-color="#3D56DE"/>
<stop offset="0.2691" stop-color="#4B79FF"/>
<stop offset="1" stop-color="#90ECFF"/>
</linearGradient>
<linearGradient id="paint20_linear_7303_14316" x1="128.014" y1="13.8511" x2="149.606" y2="13.8511" gradientUnits="userSpaceOnUse">
<stop stop-color="#4F54D9"/>
<stop offset="0.2259" stop-color="#5059DC"/>
<stop offset="0.4952" stop-color="#5468E4"/>
<stop offset="0.7857" stop-color="#5A7FF2"/>
<stop offset="1" stop-color="#5F96FF"/>
</linearGradient>
<linearGradient id="paint21_linear_7303_14316" x1="144.828" y1="5.54377" x2="145.643" y2="5.54377" gradientUnits="userSpaceOnUse">
<stop stop-color="#4F54D9"/>
<stop offset="0.2259" stop-color="#5059DC"/>
<stop offset="0.4952" stop-color="#5468E4"/>
<stop offset="0.7857" stop-color="#5A7FF2"/>
<stop offset="1" stop-color="#5F96FF"/>
</linearGradient>
<linearGradient id="paint22_linear_7303_14316" x1="213.236" y1="13.6763" x2="236.576" y2="13.6763" gradientUnits="userSpaceOnUse">
<stop stop-color="#5F96FF"/>
<stop offset="0.583" stop-color="#4F54D9"/>
</linearGradient>
<linearGradient id="paint23_linear_7303_14316" x1="216.476" y1="4.02203" x2="236.578" y2="4.02203" gradientUnits="userSpaceOnUse">
<stop stop-color="#3D56DE"/>
<stop offset="0.2691" stop-color="#4B79FF"/>
<stop offset="1" stop-color="#90ECFF"/>
</linearGradient>
<linearGradient id="paint24_linear_7303_14316" x1="83.2946" y1="7.05012" x2="121.668" y2="36.2979" gradientUnits="userSpaceOnUse">
<stop stop-color="#5F96FF"/>
<stop offset="0.583" stop-color="#4F54D9"/>
</linearGradient>
<linearGradient id="paint25_linear_7303_14316" x1="171.645" y1="23.0576" x2="135.513" y2="-2.75038" gradientUnits="userSpaceOnUse">
<stop stop-color="#3D56DE"/>
<stop offset="0.2691" stop-color="#4B79FF"/>
<stop offset="1" stop-color="#90ECFF"/>
</linearGradient>
<linearGradient id="paint26_linear_7303_14316" x1="169.861" y1="-1.08325" x2="193.774" y2="39.0681" gradientUnits="userSpaceOnUse">
<stop stop-color="#3D56DE"/>
<stop offset="0.2691" stop-color="#4B79FF"/>
<stop offset="1" stop-color="#90ECFF"/>
</linearGradient>
<linearGradient id="paint27_linear_7303_14316" x1="154.672" y1="8.98047" x2="169.626" y2="34.0898" gradientUnits="userSpaceOnUse">
<stop stop-color="#3D56DE"/>
<stop offset="0.2691" stop-color="#4B79FF"/>
<stop offset="1" stop-color="#90ECFF"/>
</linearGradient>
<linearGradient id="paint28_linear_7303_14316" x1="175.393" y1="17.9605" x2="204.19" y2="31.6892" gradientUnits="userSpaceOnUse">
<stop stop-color="#3D56DE"/>
<stop offset="0.2691" stop-color="#4B79FF"/>
<stop offset="1" stop-color="#90ECFF"/>
</linearGradient>
<linearGradient id="paint29_linear_7303_14316" x1="92.7392" y1="8.8018" x2="88.0392" y2="-17.3088" gradientUnits="userSpaceOnUse">
<stop stop-color="#90ECFF"/>
<stop offset="0.324" stop-color="#3D56DE"/>
</linearGradient>
<linearGradient id="paint30_linear_7303_14316" x1="81.2313" y1="12.1523" x2="117.43" y2="39.743" gradientUnits="userSpaceOnUse">
<stop stop-color="#3D56DE"/>
<stop offset="0.1494" stop-color="#3E58E0"/>
<stop offset="0.2032" stop-color="#405FE6"/>
<stop offset="0.2415" stop-color="#456AF1"/>
<stop offset="0.2691" stop-color="#4B79FF"/>
<stop offset="0.7374" stop-color="#90ECFF"/>
</linearGradient>
</defs>
</svg>
