<svg width="36" height="36" viewBox="0 0 36 36" fill="none" xmlns="http://www.w3.org/2000/svg">
<path d="M35.6158 22.2378C33.4579 29.2152 29.0904 33.7919 22.0759 35.2575C12.1615 37.3304 3.03125 32.1946 0.562385 22.1285C-2.467 9.7837 7.27887 0.434324 16.9405 0.0229387C23.7509 -0.266317 29.2557 2.16986 33.0691 7.90997C34.5725 10.1726 33.3445 13.303 30.7364 14.1386C29.8421 14.4246 29.3334 14.3314 28.8928 13.3351C26.9067 8.84523 23.2779 6.4187 18.4374 6.22907C13.6584 6.04266 9.10622 8.76166 7.15575 13.7851C4.78084 19.9076 8.12451 25.9209 12.8516 28.2446C18.2495 30.8961 24.7845 29.106 27.9953 23.9733C28.8086 22.6748 29.787 22.1156 31.3066 22.2185C32.6479 22.3117 33.999 22.2378 35.6158 22.2378Z" fill="white"/>
<path d="M26.0677 17.844C22.0339 20.2995 18.2334 22.6103 14.1705 25.0818C14.2094 23.3495 13.5776 21.6686 15.0518 20.4955C16.2959 19.5089 17.7701 18.805 19.348 17.8537C16.7787 16.0635 12.7676 15.3468 14.3617 10.7219C18.1427 13.0199 21.9853 15.3596 26.0677 17.844Z" fill="white"/>
</svg>
