<svg width="34" height="34" viewBox="0 0 34 34" fill="none" xmlns="http://www.w3.org/2000/svg">
<path d="M7.17188 27.8906H26.8281C27.4149 27.8906 27.8906 28.3664 27.8906 28.9531C27.8906 29.5399 27.4149 30.0156 26.8281 30.0156H7.17188C6.58511 30.0156 6.10938 29.5399 6.10938 28.9531C6.10938 28.3664 6.58511 27.8906 7.17188 27.8906Z" fill="#FFE161"/>
<path d="M17 26.8281H26.2969C26.2969 26.8281 26.0312 21.7812 28.4219 14.875C28.4219 14.875 20.1875 19.3906 17 8.23438C13.8125 19.3906 5.57812 14.875 5.57812 14.875C7.96875 21.7812 7.70312 26.8281 7.70312 26.8281H17Z" fill="#FFE161"/>
<path d="M26.7824 27.8906H26.2969V26.8281C26.2969 26.8281 26.0312 21.7812 28.4219 14.875C28.4219 14.875 21.7693 18.5212 18.1087 11.1562H18.1085C17.6508 10.2181 17.2797 9.24003 17 8.23438C16.7036 9.3067 16.3017 10.3469 15.7999 11.3398C16.2926 11.6575 16.8927 11.7635 17.4646 11.6333C17.9292 12.6945 19.1853 15.2726 20.9844 16.7344C25.2344 20.1875 26.2969 26.8281 19.125 26.8281H7.70312V27.8906H21.7504C22.2511 27.8869 22.7479 27.9785 23.2143 28.1608C23.3763 28.2104 23.523 28.3002 23.6409 28.4219C24.1721 29.2188 23.3753 29.75 22.0471 30.0156H26.8284C27.4154 30.0156 27.8912 29.5396 27.8909 28.9529C27.8909 28.9181 27.8893 28.8833 27.8858 28.8487C27.8165 28.2944 27.341 27.8813 26.7824 27.8906Z" fill="#FBBC05"/>
<path d="M5.57812 16.4688C6.45833 16.4688 7.17188 15.7552 7.17188 14.875C7.17188 13.9948 6.45833 13.2812 5.57812 13.2812C4.69792 13.2812 3.98438 13.9948 3.98438 14.875C3.98438 15.7552 4.69792 16.4688 5.57812 16.4688Z" fill="#FF1849"/>
<path d="M7.17234 14.8736C7.17155 15.7536 6.45861 16.4665 5.57859 16.4673C5.26223 16.4684 4.95305 16.3741 4.69141 16.1964C4.72116 16.2009 4.75144 16.2028 4.78172 16.2017C5.66147 16.2023 6.37494 15.4893 6.37547 14.6096C6.37573 14.0778 6.11064 13.5811 5.66891 13.2852C6.51173 13.3327 7.17128 14.0294 7.17234 14.8736Z" fill="#E00E45"/>
<path d="M28.4219 16.4688C29.3021 16.4688 30.0156 15.7552 30.0156 14.875C30.0156 13.9948 29.3021 13.2812 28.4219 13.2812C27.5417 13.2812 26.8281 13.9948 26.8281 14.875C26.8281 15.7552 27.5417 16.4688 28.4219 16.4688Z" fill="#FF1849"/>
<path d="M30.0153 14.8756C30.0158 15.7554 29.3029 16.4688 28.4231 16.4694C27.8669 16.4696 27.3505 16.1796 27.0615 15.7044C27.3107 15.8579 27.5976 15.9389 27.8903 15.9381C28.7703 15.9373 29.4832 15.2244 29.484 14.3444C29.4848 14.0517 29.4038 13.7648 29.2503 13.5156C29.7257 13.8038 30.0161 14.3197 30.0153 14.8756Z" fill="#E00E45"/>
<path d="M17 10.625C18.247 10.625 19.2578 9.61414 19.2578 8.36719C19.2578 7.12023 18.247 6.10938 17 6.10938C15.753 6.10938 14.7422 7.12023 14.7422 8.36719C14.7422 9.61414 15.753 10.625 17 10.625Z" fill="#FF1849"/>
<path d="M19.2576 8.36828C19.257 9.61566 18.2455 10.6266 16.9982 10.6261C16.243 10.6258 15.5378 10.2481 15.1191 9.61937C15.4169 9.7583 15.7415 9.83001 16.0701 9.82922C17.3177 9.82842 18.3287 8.81639 18.3279 7.56875C18.3276 7.12462 18.1964 6.69033 17.9507 6.32031C18.7476 6.69086 19.2573 7.48959 19.2576 8.36828Z" fill="#E00E45"/>
<path d="M17 5.04688C17.2934 5.04688 17.5312 4.80903 17.5312 4.51562C17.5312 4.22222 17.2934 3.98438 17 3.98438C16.7066 3.98438 16.4688 4.22222 16.4688 4.51562C16.4688 4.80903 16.7066 5.04688 17 5.04688Z" fill="#E00E45"/>
<path d="M28.4219 12.2188C28.7153 12.2188 28.9531 11.9809 28.9531 11.6875C28.9531 11.3941 28.7153 11.1562 28.4219 11.1562C28.1285 11.1562 27.8906 11.3941 27.8906 11.6875C27.8906 11.9809 28.1285 12.2188 28.4219 12.2188Z" fill="#E00E45"/>
<path d="M5.57812 12.2188C5.87153 12.2188 6.10938 11.9809 6.10938 11.6875C6.10938 11.3941 5.87153 11.1562 5.57812 11.1562C5.28472 11.1562 5.04688 11.3941 5.04688 11.6875C5.04688 11.9809 5.28472 12.2188 5.57812 12.2188Z" fill="#E00E45"/>
</svg>
