<svg width="69" height="66" viewBox="0 0 69 66" fill="none" xmlns="http://www.w3.org/2000/svg">
<path d="M48.9041 6.21472C51.1881 6.65365 53.2082 7.41318 55.0131 8.70525C58.0012 10.8315 59.7747 13.7256 60.3544 17.3367C60.519 18.3355 60.5521 19.3736 60.5653 20.3914C60.5799 21.1776 59.9419 21.6465 59.2277 21.4802C58.7146 21.3659 58.4252 20.9609 58.389 20.3662C58.3157 19.3078 58.303 18.2398 58.0881 17.2105C57.2591 13.2147 54.8393 10.5478 51.0707 9.1013C50.0759 8.72162 49.0091 8.55309 47.9728 8.29403C47.8722 8.27321 47.7407 8.33277 47.63 8.35213C47.6693 8.46327 47.6887 8.59434 47.7487 8.68544C48.4673 9.66777 49.2059 10.6502 49.9246 11.6424C50.1941 12.0072 50.2118 12.3902 49.9775 12.7815C49.7737 13.1225 49.4397 13.322 49.0471 13.2284C48.7859 13.1662 48.4846 13.0131 48.3248 12.8106C47.0666 11.1496 45.8388 9.47842 44.611 7.79736C44.1915 7.22012 44.3167 6.62652 44.9441 6.258C46.674 5.23209 48.414 4.20622 50.1544 3.18039C50.7006 2.86173 51.2737 3.0067 51.5626 3.50241C51.8512 4.00822 51.6963 4.56132 51.1501 4.89009C50.4518 5.30845 49.7234 5.72665 48.9041 6.21472Z" fill="#0061FE"/>
<path d="M19.8214 59.6153C17.5343 59.1922 15.5089 58.4462 13.6952 57.1668C10.6926 55.061 8.89918 52.1793 8.29477 48.5722C8.12359 47.5747 8.083 46.537 8.06271 45.5192C8.04286 44.7331 8.67771 44.2597 9.39286 44.4211C9.90683 44.5319 10.1989 44.9347 10.2395 45.5294C10.3198 46.5873 10.3401 47.6554 10.5615 48.6829C11.4183 52.6729 13.8567 55.3231 17.6349 56.7437C18.6324 57.1165 19.7005 57.2775 20.7382 57.5294C20.8392 57.5497 20.9702 57.4893 21.081 57.469C21.0404 57.3582 21.0205 57.2272 20.9601 57.1368C20.2343 56.1591 19.4888 55.1819 18.7635 54.1945C18.4913 53.8319 18.471 53.449 18.703 53.0559C18.9046 52.7135 19.2368 52.5119 19.6299 52.6023C19.892 52.6628 20.1942 52.8141 20.3552 53.0157C21.6249 54.6679 22.8642 56.3303 24.1035 58.0032C24.5266 58.5772 24.4057 59.1719 23.781 59.5447C22.0582 60.5823 20.3252 61.6204 18.5923 62.6581C18.0479 62.9806 17.4739 62.8394 17.1814 62.3457C16.8893 61.8419 17.0402 61.2878 17.5846 60.9551C18.2799 60.5321 19.0052 60.109 19.8214 59.6153Z" fill="#0061FE"/>
<path d="M40.3434 6.26714V25.9754H34.8724C31.4061 25.9754 28.605 28.7866 28.605 32.2423V40.3432H6.26736C2.80103 40.3432 0 37.532 0 34.0763V6.26714C0 2.80108 2.80103 0 6.26736 0H34.0761C37.5323 0 40.3434 2.80108 40.3434 6.26714Z" fill="#0061FE"/>
<path d="M14.7693 17.3081C16.6739 18.5271 18.548 19.7262 20.4521 20.9456C19.8878 21.3083 19.3642 21.6409 18.84 21.9833C17.5403 22.8096 16.2406 23.6359 14.9405 24.4719C14.8297 24.5425 14.7393 24.573 14.6083 24.4922C12.8047 23.3236 10.9911 22.1646 9.18753 20.9959C9.15709 20.9756 9.12709 20.9456 9.06665 20.905C10.9606 19.6962 12.8347 18.4971 14.7592 17.2781C12.855 16.079 10.9809 14.89 9.1068 13.7112C9.09665 13.6203 9.16724 13.6102 9.20739 13.5802C11.0114 12.4313 12.8047 11.2829 14.6083 10.1342C14.7089 10.0737 14.7795 10.0435 14.8902 10.1241C16.7039 11.2829 18.5175 12.4415 20.3312 13.6005C20.3617 13.6203 20.3917 13.6507 20.442 13.6909C18.548 14.89 16.6739 16.0891 14.7693 17.3081Z" fill="#F7F5F2"/>
<path d="M26.0949 25.7328C25.4504 26.1458 24.8354 26.5389 24.2107 26.9417C23.0018 27.7177 21.7926 28.4836 20.5935 29.2592C20.4726 29.3399 20.3923 29.3399 20.2714 29.2592C18.478 28.1108 16.674 26.962 14.8806 25.8131C14.8405 25.7831 14.8101 25.7527 14.7598 25.7125C16.3215 24.715 17.8833 23.7175 19.4349 22.7302C19.7173 22.5489 20.0093 22.3675 20.2811 22.1862C20.3821 22.1156 20.4629 22.1055 20.5736 22.1761C22.3974 23.3447 24.2208 24.5134 26.0446 25.6825C26.0446 25.6825 26.0548 25.6927 26.0949 25.7328Z" fill="#F7F5F2"/>
<path d="M20.4622 20.9055C21.3688 20.3311 22.2353 19.7668 23.1119 19.2127C24.0591 18.6083 24.9961 18.0039 25.9433 17.4092C26.0342 17.3487 26.0942 17.2883 26.2253 17.369C28.0491 18.5377 29.8729 19.6967 31.7064 20.8654C31.7369 20.8852 31.7572 20.9055 31.8075 20.9461C31.5454 21.1173 31.3036 21.2783 31.0517 21.4296C29.4798 22.4373 27.8978 23.4348 26.3263 24.442C26.1851 24.5329 26.0845 24.5532 25.9332 24.4521C24.1195 23.2733 22.3058 22.1046 20.4622 20.9055Z" fill="#F7F5F2"/>
<path d="M20.4622 13.6706C21.2479 13.1668 22.0036 12.6731 22.7594 12.1896C23.8173 11.5044 24.8854 10.8294 25.9433 10.1543C26.0439 10.0939 26.1145 10.0334 26.2455 10.114C28.0592 11.2829 29.8831 12.4415 31.7064 13.6C31.7369 13.6203 31.7572 13.6406 31.7973 13.6706C31.5353 13.8422 31.2834 14.0134 31.0314 14.1744C29.46 15.1719 27.8881 16.1694 26.3161 17.1771C26.2354 17.2274 26.175 17.298 26.0541 17.2274C24.2104 16.0384 22.3464 14.8697 20.4622 13.6706Z" fill="#F7F5F2"/>
<path d="M68.5546 31.4588V59.2675C68.5546 62.7338 65.7434 65.545 62.2877 65.545H34.4785C31.0122 65.545 28.2112 62.7338 28.2112 59.2675V39.5597H33.6827C37.1384 39.5597 39.9496 36.7485 39.9496 33.2923V25.1914H62.2877C65.7434 25.1914 68.5546 28.0026 68.5546 31.4588Z" fill="#0061FE"/>
<path d="M48.6683 35.2679C43.0861 35.3583 38.29 40.0436 38.29 45.8777C38.3002 51.9633 43.4487 56.5781 48.9603 56.4973C54.6127 56.4069 59.429 51.7317 59.4189 45.8976C59.429 39.9735 54.5421 35.177 48.6683 35.2679ZM49.0411 55.9331C43.4589 56.0341 38.9147 51.5098 38.8442 45.8676C38.7837 40.5779 43.3177 35.9733 48.5571 35.822C54.0383 35.661 58.8851 40.2554 58.8749 45.9077C58.8749 50.9861 54.6833 55.8426 49.0411 55.9331Z" fill="#F7F5F2"/>
<path d="M54.9273 39.0567C54.5443 39.268 54.1918 39.4092 53.9095 39.6408C53.3355 40.1146 53.2248 40.7998 53.557 41.5855C53.7083 41.9583 53.8896 42.3209 54.1111 42.6536C54.9877 43.9533 55.1492 45.354 54.7261 46.8452C54.3127 48.2962 53.8693 49.7468 53.4361 51.1979C53.4259 51.2482 53.3959 51.2888 53.3253 51.4193C52.2171 48.1048 51.1287 44.8705 50.0306 41.5855C50.3328 41.5656 50.5746 41.5555 50.8265 41.5251C50.9576 41.5052 51.1186 41.4951 51.1892 41.4143C51.2801 41.3137 51.3101 41.1523 51.3202 41.0111C51.3202 40.9811 51.1592 40.9004 51.0683 40.9004C49.5568 40.9004 48.0356 40.9105 46.5242 40.9105C46.4739 40.9105 46.4134 40.9105 46.3631 40.9206C46.2118 40.9608 45.9396 40.8902 45.97 41.1421C45.9802 41.2731 46.2017 41.3742 46.3225 41.4849C46.3327 41.4951 46.3631 41.4951 46.383 41.4951C47.0381 41.4346 47.29 41.8374 47.4714 42.3818C47.8137 43.359 48.1967 44.3261 48.5496 45.2936C48.5898 45.4043 48.5999 45.5557 48.5695 45.6664C47.9447 47.5405 47.3099 49.4045 46.6852 51.2786C46.6755 51.3188 46.645 51.3492 46.5745 51.4802C45.4662 48.1652 44.3778 44.931 43.2696 41.6459C43.6022 41.5957 43.8643 41.5656 44.1162 41.5149C44.3377 41.4646 44.6399 41.4448 44.62 41.1624C44.5997 40.8602 44.2975 40.8902 44.0756 40.8902C43.33 40.9004 42.5946 40.9207 41.849 40.9409C41.6778 40.9409 41.5062 40.9409 41.3152 40.8902C42.5845 38.9861 44.2772 37.6762 46.5039 37.1018C49.6477 36.2755 52.4284 37.0414 54.9273 39.0567Z" fill="#F7F5F2"/>
<path d="M49.0816 46.7119C50.0085 49.2813 50.9355 51.8507 51.8924 54.5005C51.3585 54.6213 50.8649 54.7524 50.3712 54.8534C49.1518 55.0952 47.943 55.0246 46.7438 54.7524C46.2502 54.6416 46.24 54.6116 46.4015 54.148C47.2177 51.77 48.0334 49.3921 48.8597 47.0146C48.8902 46.9135 48.9405 46.8231 48.9907 46.7221C49.011 46.7221 49.041 46.7119 49.0816 46.7119Z" fill="#F7F5F2"/>
<path d="M40.646 42.2197C42.0768 46.1391 43.5075 50.0687 44.9383 53.9881C44.9083 54.0084 44.8677 54.0283 44.8377 54.0486C42.893 53.0714 41.4521 51.5802 40.5754 49.5852C39.4972 47.1468 39.6084 44.678 40.5252 42.2299C40.5552 42.2299 40.5957 42.2197 40.646 42.2197Z" fill="#F7F5F2"/>
<path d="M56.9104 41.623C57.9683 43.8095 58.2105 46.0864 57.5452 48.4344C56.8905 50.7417 55.4898 52.5051 53.384 53.7038C53.414 53.6032 53.4343 53.5026 53.4648 53.4117C54.3917 50.7113 55.3186 48.0113 56.2354 45.3108C56.5883 44.2732 56.8398 43.2152 56.7793 42.1066C56.7696 41.9455 56.7996 41.7845 56.8098 41.623C56.8398 41.6332 56.8804 41.623 56.9104 41.623Z" fill="#F7F5F2"/>
</svg>
