<svg width="16" height="16" viewBox="0 0 16 16" fill="none" xmlns="http://www.w3.org/2000/svg">
<path d="M10.3108 8.38149C10.3388 8.43315 10.4557 8.60835 10.707 8.73971C10.7282 8.75032 10.7502 8.76247 10.7708 8.77391C10.7761 8.77615 10.7829 8.77922 10.7867 8.78145C12.6831 9.76941 14.0771 10.1917 15.1009 10.2661C15.2193 10.2748 15.3258 10.1956 15.3502 10.0793C15.4696 9.51156 15.5292 8.91756 15.5292 8.30709C15.5292 6.63285 15.0906 5.07937 14.233 3.84376C13.6767 3.04705 12.9587 2.36929 12.0623 1.87064C10.9459 1.23391 9.57158 0.875 7.93755 0.875H1.603C0.980941 0.875 0.476562 1.37938 0.476562 2.00144V14.612C0.476562 15.2342 0.980941 15.7385 1.603 15.7385H7.93755C9.75138 15.7385 11.2852 15.2603 12.5003 14.4437C13.1772 13.9852 13.7752 13.407 14.2329 12.7301C14.3709 12.5317 14.498 12.3249 14.6137 12.1108C14.6768 11.9941 14.6289 11.8478 14.5097 11.7897C12.7404 10.9278 11.393 9.81213 10.603 9.06666C10.603 9.06512 10.603 9.06512 10.603 9.06512C10.5619 9.02868 10.5256 8.99685 10.4921 8.96796C10.3487 8.84874 10.2105 8.78047 10.146 8.75311L10.1202 8.7425C9.54617 8.52179 9.21671 8.7164 8.47878 9.39221C8.47236 9.39807 8.46273 9.39011 8.46733 9.38271C9.19242 8.2102 9.16883 7.97148 8.2395 6.95547C8.23364 6.94905 8.2416 6.93927 8.249 6.94388C9.41997 7.66813 9.66008 7.64538 10.6754 6.71382C10.6818 6.70795 10.6915 6.71591 10.6869 6.72331C10.1876 7.53328 10.0457 7.89903 10.3108 8.38149ZM12.1584 7.4255C11.906 7.83789 11.9151 7.93742 12.2399 8.2955C12.2456 8.30178 12.238 8.31127 12.2307 8.30681C11.8183 8.05441 11.7188 8.06348 11.3614 8.38833C11.3551 8.39406 11.3456 8.38638 11.3501 8.37912C11.6018 7.96674 11.5927 7.8672 11.2679 7.50982C11.2621 7.50354 11.2698 7.49405 11.2771 7.49852C11.6895 7.75022 11.789 7.74114 12.1471 7.41629C12.1534 7.41057 12.1629 7.41825 12.1584 7.4255ZM9.74091 9.29811C9.64738 9.45517 9.65241 9.50584 9.77386 9.64335C9.77958 9.64977 9.77176 9.65926 9.76437 9.65479C9.60648 9.5614 9.55566 9.56573 9.41843 9.68676C9.41201 9.69249 9.40252 9.68467 9.40699 9.67727C9.50052 9.52022 9.49549 9.46954 9.37404 9.33204C9.36832 9.32562 9.37614 9.31612 9.38353 9.32059C9.54142 9.41398 9.59224 9.40966 9.72947 9.28862C9.73589 9.2829 9.74524 9.29072 9.74091 9.29811ZM11.1149 13.1332C10.2484 13.7761 9.20149 14.1892 8.06374 14.2826C4.4732 14.5773 1.41622 11.5954 1.62339 7.99871C1.80361 4.87066 4.39712 2.38981 7.56942 2.38981C7.67356 2.38981 7.77686 2.39246 7.87961 2.39791C7.88645 2.39833 7.88896 2.40684 7.88352 2.41103C6.43935 3.49769 5.50527 5.22707 5.50527 7.17408C5.50527 10.3455 7.98459 12.9391 11.1108 13.12C11.1177 13.1204 11.1205 13.1292 11.1149 13.1332ZM9.21169 6.58636C9.3055 6.42861 9.30047 6.3778 9.17902 6.24015C9.1733 6.23373 9.18111 6.22424 9.18851 6.2287C9.3464 6.3221 9.39721 6.31777 9.53472 6.1966C9.54114 6.19087 9.55064 6.19869 9.54617 6.20609C9.4525 6.36384 9.45738 6.41451 9.57856 6.55132C9.58428 6.55774 9.57646 6.56724 9.56906 6.56277C9.41131 6.46966 9.3605 6.47454 9.22313 6.59585C9.21657 6.60158 9.20722 6.59376 9.21169 6.58636Z" fill="#13095F"/>
</svg>
