<svg width="24" height="24" viewBox="0 0 24 24" fill="none" xmlns="http://www.w3.org/2000/svg">
<path fill-rule="evenodd" clip-rule="evenodd" d="M14.0968 0.766607C12.8858 -0.255536 11.1142 -0.255535 9.90323 0.766607L8.80035 1.69749C8.28563 2.13193 7.64869 2.39578 6.97753 2.45253L5.53944 2.57415C3.96037 2.70769 2.70769 3.96037 2.57415 5.53944L2.45253 6.97753C2.39578 7.64869 2.13193 8.28563 1.69749 8.80037L0.766607 9.90323C-0.255536 11.1142 -0.255535 12.8858 0.766607 14.0968L1.69749 15.1997C2.13193 15.7144 2.39578 16.3514 2.45253 17.0225L2.57415 18.4606C2.70769 20.0397 3.96037 21.2924 5.53944 21.4259L6.97753 21.5474C7.64869 21.6043 8.28563 21.8681 8.80037 22.3026L9.90323 23.2335C11.1142 24.2555 12.8858 24.2555 14.0968 23.2335L15.1997 22.3026C15.7144 21.8681 16.3514 21.6043 17.0225 21.5474L18.4606 21.4259C20.0397 21.2924 21.2924 20.0397 21.4259 18.4606L21.5474 17.0225C21.6043 16.3514 21.8681 15.7144 22.3026 15.1997L23.2335 14.0968C24.2555 12.8858 24.2555 11.1142 23.2335 9.90323L22.3026 8.80035C21.8681 8.28563 21.6043 7.64869 21.5474 6.97753L21.4259 5.53944C21.2924 3.96037 20.0397 2.70769 18.4606 2.57415L17.0225 2.45253C16.3514 2.39578 15.7144 2.13193 15.1997 1.69749L14.0968 0.766607ZM17.9113 9.78368C18.4826 9.2124 18.4826 8.28617 17.9113 7.71489C17.3401 7.1436 16.4138 7.1436 15.8425 7.71489L10.3753 13.1821L8.15892 10.9657C7.58764 10.3944 6.66141 10.3944 6.09013 10.9657C5.51883 11.537 5.51883 12.4632 6.09013 13.0345L9.34092 16.2852C9.9122 16.8565 10.8384 16.8565 11.4097 16.2852L17.9113 9.78368Z" fill="#0061FE"/>
</svg>
