<svg width="29" height="22" viewBox="0 0 29 22" fill="none" xmlns="http://www.w3.org/2000/svg">
<path d="M27.0518 5.53502H8.19073C6.81337 5.53502 5.61373 5.97046 4.59181 6.84133C3.56989 7.71221 3.05894 8.81755 3.05894 10.1574V18.9331L5.69148 10.1239C5.86921 9.54328 6.19689 9.07993 6.67452 8.73382C7.15216 8.3877 7.67978 8.21464 8.25738 8.21464H25.4522C26.3631 8.21464 27.0795 8.57751 27.6016 9.30324C28.1237 10.029 28.2625 10.8161 28.0181 11.6646L25.6189 19.7035C25.4411 20.2841 25.1135 20.7474 24.6358 21.0936C24.1582 21.4397 23.6306 21.6127 23.053 21.6127H3.05894C2.32582 21.6127 1.69823 21.3504 1.17617 20.8256C0.654099 20.3008 0.393066 19.67 0.393066 18.9331V2.8554C0.393066 2.11851 0.654099 1.48768 1.17617 0.962919C1.69823 0.438161 2.32582 0.175781 3.05894 0.175781H9.95687C10.3123 0.175781 10.6511 0.242772 10.9732 0.376753C11.2954 0.510734 11.5786 0.70054 11.823 0.946172L13.7224 2.8554H24.3859C25.119 2.8554 25.7466 3.11778 26.2687 3.64254C26.7907 4.1673 27.0518 4.79812 27.0518 5.53502Z" fill="#F7F5F2"/>
</svg>
