<svg width="1412" height="482" viewBox="0 0 1412 482" fill="none" xmlns="http://www.w3.org/2000/svg">
<mask id="mask0_7303_14365" style="mask-type:alpha" maskUnits="userSpaceOnUse" x="-33" y="-136" width="1503" height="876">
<rect x="-33" y="-136" width="1502.87" height="875.287" fill="#6C85C4"/>
</mask>
<g mask="url(#mask0_7303_14365)">
<path d="M1754.31 396.949C1758.98 431.691 1756.22 466.941 1746.19 500.702C1735.91 533.793 1716.89 564.622 1689.8 585.381C1683.19 590.542 1676.1 595.158 1668.62 599.176C1661.25 602.98 1653.52 606.129 1645.51 608.58C1629.91 613.374 1613.46 615.406 1597.04 614.568C1564.43 612.927 1533.06 601.572 1504.53 585.159C1502.85 584.139 1500.83 583.074 1499.34 582.098L1495.26 579.26C1492.57 577.219 1489.88 575.267 1487.29 573.005C1481.87 568.537 1476.86 563.671 1472.3 558.456C1462.28 547.224 1453.41 535.151 1445.83 522.393C1429.15 494.299 1414.7 465.124 1402.6 435.097C1376.66 372.996 1353.84 306.459 1328.19 239.435C1321.79 222.667 1315.13 205.826 1308.21 188.911C1301.44 171.966 1294.09 155.022 1286.45 137.988C1271.04 102.505 1252.72 68.1604 1231.64 35.2557C1225.88 26.3842 1219.68 17.8675 1212.43 9.129C1208.88 4.69322 1204.98 0.2574 1200.85 -3.91223C1196.72 -8.08186 1192.4 -12.1184 1187.98 -15.9332C1170.91 -30.392 1151.74 -42.5753 1131.01 -52.1291C1091.67 -70.6707 1052.52 -80.6955 1014.77 -91.0309C977.012 -101.366 939.977 -110.548 904.287 -122.835C869.175 -134.548 835.61 -149.89 804.231 -168.568C773.708 -186.834 746.736 -209.718 724.445 -236.258C702.589 -262.873 685.345 -292.06 677.611 -321.736C673.743 -335.86 672.124 -350.429 672.808 -364.985C673.598 -378.034 677.105 -390.82 683.135 -402.644C688.608 -413.099 696.361 -422.396 705.909 -429.953C715.456 -437.509 726.591 -443.163 738.616 -446.558C750.831 -450.193 763.585 -452.049 776.419 -452.059C790.125 -452.105 803.787 -450.615 817.104 -447.623C820.563 -446.869 824.021 -445.937 827.48 -445.006L839.777 -441.59C847.895 -439.195 856.012 -436.711 863.794 -433.961C879.742 -428.505 895.401 -422.428 910.964 -415.508C942.043 -401.757 973.073 -384.458 1007.51 -365.916C1043.78 -345.924 1081.57 -328.401 1120.59 -313.485C1161.09 -298.712 1203.04 -287.586 1245.86 -280.261C1251.15 -279.241 1256.43 -278.576 1261.71 -277.733L1276.12 -275.604C1283.95 -274.406 1291.93 -272.986 1299.85 -271.168C1315.77 -267.93 1331.5 -263.948 1346.98 -259.236C1408.94 -240.428 1464.71 -210.442 1507.17 -168.524C1529.04 -147.116 1547.94 -123.275 1563.42 -97.5515C1571.63 -84.0837 1578.93 -70.1581 1585.28 -55.8552C1591.99 -41.0381 1597.86 -25.9061 1602.86 -10.5215C1607.66 5.1368 1612.46 21.2387 1615.87 37.7842C1617.65 45.5024 1619.48 55.5272 1621.35 64.8424C1623.22 74.1575 1625.53 83.4727 1627.93 92.6547C1637.42 129.077 1649.65 164.843 1664.53 199.69C1678.94 234.156 1695.76 267.247 1712.57 299.717C1721.02 315.952 1729.43 332.098 1737.21 348.51C1745.22 363.88 1750.97 380.171 1754.31 396.949ZM1769.2 395.485C1767.94 386.115 1765.73 376.876 1762.57 367.895C1759.69 359.023 1756.28 350.551 1752.97 342.078C1746.24 325.134 1739.23 308.455 1733.03 291.599C1726.83 274.743 1721.12 257.843 1716.31 240.765C1711.51 223.688 1707.81 206.432 1704.74 189.222C1699.01 154.996 1696.97 120.332 1698.64 85.7349C1698.97 77.1739 1699.69 68.6128 1700.37 60.0961C1701.04 51.5794 1702.24 43.7281 1703.11 33.4814C1704.89 14.0697 1705.51 -5.41816 1704.98 -24.8934C1704.06 -65.4384 1696.84 -105.652 1683.55 -144.305C1669.55 -184.675 1648.15 -222.528 1620.29 -256.219C1591.91 -290.039 1558.01 -319.579 1519.8 -343.782C1482.31 -367.503 1441.53 -386.465 1398.56 -400.16C1377.4 -407.002 1355.79 -412.617 1333.86 -416.972C1322.91 -419.19 1311.81 -421.008 1300.53 -422.561L1273.24 -426.243C1239.67 -430.903 1206.58 -438.189 1174.34 -448.022C1140.87 -458.55 1108.23 -471.192 1076.64 -485.859C1043.01 -500.941 1005.98 -518.329 965.868 -532.79C945.643 -540.105 925.025 -546.456 904.095 -551.82C893.624 -554.481 883.056 -556.832 872.488 -559.005L856.589 -561.977C850.585 -562.998 844.58 -563.885 838.48 -564.595C813.574 -567.645 788.325 -567.391 763.498 -563.84C737.7 -560.262 712.779 -552.546 689.86 -541.041C666.446 -529.238 645.858 -513.184 629.336 -493.844C613.061 -474.763 601.37 -452.701 595.04 -429.126C589.122 -406.827 587.786 -383.701 591.101 -360.948C594.105 -339.743 600.415 -319.05 609.834 -299.512C627.991 -263.521 652.795 -230.724 683.135 -202.591C697.539 -188.829 712.946 -175.995 729.249 -164.177C745.441 -152.58 762.345 -141.857 779.877 -132.062C849.672 -93.1157 926.143 -70.8481 996.034 -42.6366C1031 -28.7526 1064.68 -13.0055 1091.14 6.46758C1103.55 15.5416 1114.47 26.224 1123.57 38.1834C1125.63 41.0223 1127.55 43.8612 1129.33 46.7444C1131.11 49.6277 1132.69 52.4666 1134.37 55.616C1137.64 61.9148 1140.81 68.9233 1143.98 76.198C1149.94 90.7917 1155.17 106.716 1160.02 122.995C1164.88 139.275 1169.63 155.953 1174.43 172.809L1188.41 223.954C1193.22 241.12 1198.02 258.42 1203.11 275.764C1223.86 345.006 1247.98 415.269 1284.77 483.89C1303.65 519.547 1327.03 553.018 1354.42 583.607C1361.77 591.414 1369.41 599.132 1377.81 606.584C1386.17 614.229 1395.1 621.328 1404.52 627.831C1414.27 634.684 1424.58 640.825 1435.36 646.196C1440.87 648.9 1446.53 651.343 1452.32 653.515L1461.15 656.708C1463.99 657.684 1466.49 658.35 1469.18 659.192C1490.47 665.594 1512.46 669.848 1534.74 671.879C1557.36 673.987 1580.19 673.046 1602.52 669.084C1624.73 665.132 1646.03 657.626 1665.45 646.905C1674.95 641.783 1683.91 635.842 1692.2 629.162C1700.41 622.679 1707.98 615.54 1714.83 607.826C1740.54 577.865 1757.79 542.471 1765.02 504.827C1772.25 468.77 1773.66 431.923 1769.2 395.485Z" fill="#DFE7FE" fill-opacity="0.07"/>
<path d="M277.769 1284.47C321.326 1290.85 363.787 1302.56 404.048 1319.3C444.695 1335.45 483.818 1354.79 523.179 1374.67C543.002 1384.43 562.778 1394.59 583.268 1404.04C604.056 1414.04 625.439 1422.93 647.313 1430.66C670.858 1439.02 695.429 1444.63 720.46 1447.34C749.169 1450.41 778.251 1447.37 805.519 1438.47C812.715 1436.03 819.815 1432.83 826.724 1429.86C833.634 1426.89 840.067 1422.67 846.691 1418.86C853.315 1415.04 858.985 1410.34 864.942 1405.86C870.898 1401.38 875.949 1396.36 881.382 1391.48C901.36 1372.3 918.245 1350.53 931.512 1326.84C944.456 1303.62 954.283 1279 960.771 1253.54C966.817 1229.6 970.722 1205.23 972.446 1180.69C975.061 1135.75 974.169 1090.68 969.777 1045.86L964.392 983.257C963.487 973.052 962.867 962.981 962.153 952.954L961.2 938.002L960.58 923.272C959.826 904.162 960.128 885.029 961.486 865.949C962.635 847.847 965.457 829.871 969.92 812.22C974.989 793.752 981.814 775.742 990.315 758.402C998.94 740.122 1008.85 721.666 1019.57 703.209C1041.02 666.117 1065.32 629.159 1089.05 590.914L1106.63 561.987C1112.35 552.137 1118.02 542.288 1123.41 532.127C1134.68 511.697 1144.24 490.485 1152 468.682C1160.26 445.979 1164.59 422.196 1164.82 398.226C1164.68 373.793 1158.6 349.706 1147.04 327.771C1141.39 317.238 1134.65 307.239 1126.93 297.911L1115.16 284.601C1111.16 280.164 1106.97 276.57 1102.87 272.533C1086.06 256.815 1067.73 242.571 1048.12 229.984C1028.18 217.565 1007.01 206.971 984.883 198.35C979.308 196.354 973.827 193.914 968.109 192.183L951.002 186.77C939.47 183.709 927.843 180.648 916.025 178.429C868.593 169.287 819.964 166.76 771.734 170.931C747.622 172.76 723.645 175.886 699.921 180.293C676.095 184.419 652.746 190.187 629.539 196.487C618.055 199.859 606.38 202.965 595.086 206.78L577.979 212.326L561.062 218.316C538.57 226.45 516.46 235.323 494.73 244.936C483.865 249.817 473.144 254.83 462.374 259.844C451.605 264.857 441.121 270.359 430.638 275.816C420.154 281.273 409.671 286.775 399.425 292.587C389.18 298.399 378.839 304.123 368.832 310.334L311.03 345.163C301.5 350.842 291.969 356.166 282.439 361.712L268.143 369.92L253.847 377.861C177.915 420.034 99.2844 457.847 18.3966 491.087C-22.2033 507.858 -63.2321 523.964 -106.643 542.199C-128.278 551.072 -150.531 561.41 -173.357 573.256C-197.779 586.008 -220.864 600.862 -242.31 617.624C-265.146 635.653 -285.405 656.334 -302.59 679.161C-318.89 700.954 -332.674 724.288 -343.714 748.774C-349.433 760.487 -353.769 772.023 -358.343 783.647C-360.535 789.415 -362.394 795.138 -364.395 800.862C-366.397 806.585 -368.398 812.264 -370.018 818.609L-375.165 836.755L-377.643 845.85L-379.549 855.301C-382.375 867.867 -384.395 880.578 -385.601 893.368C-386.268 899.846 -386.935 906.323 -387.411 912.801V942.172C-387.411 945.455 -386.84 948.827 -386.554 952.155L-384.362 972.076C-383.313 978.687 -381.645 985.386 -380.216 991.82L-377.976 1001.62C-377.118 1004.86 -375.927 1008.1 -374.879 1011.3C-372.734 1017.69 -370.638 1024.12 -368.303 1030.37C-365.968 1036.63 -362.632 1042.66 -359.725 1048.7C-347.949 1072.14 -332.411 1093.77 -313.645 1112.85L-306.974 1119.86C-304.639 1122.08 -302.209 1124.3 -299.826 1126.3C-295.061 1130.51 -290.296 1134.77 -285.531 1138.76C-275.333 1146.17 -265.516 1154.07 -254.842 1160.33C-234.402 1173.16 -212.834 1184.37 -190.369 1193.82C-168.629 1202.82 -146.355 1210.66 -123.655 1217.3C-79.6662 1230.03 -34.865 1240.2 10.4863 1247.73C21.6846 1249.55 32.8353 1251.68 43.843 1253.23C54.8507 1254.79 66.0966 1256.92 77.1997 1258.38C88.3027 1259.84 99.5486 1261.53 110.556 1263.08L143.913 1267.52L277.769 1284.47ZM280.247 1270.89C236.073 1264.95 192.233 1257.58 149.012 1247.82L132.81 1244.23L116.704 1240.23C105.982 1237.7 95.3552 1234.64 84.7764 1231.67C63.5234 1225.9 42.6516 1219.16 22.0658 1211.97C-18.7416 1197.93 -58.1035 1180.48 -95.5404 1159.84C-113.683 1149.82 -131.185 1138.83 -147.958 1126.92C-163.869 1115.4 -178.754 1102.7 -192.465 1088.94C-199.47 1082.51 -204.95 1075.19 -211.05 1068.44L-219.008 1057.75C-220.294 1055.97 -221.676 1054.24 -222.915 1052.43L-226.203 1046.92C-235.142 1032.96 -241.942 1017.91 -246.408 1002.2C-247.361 998.342 -248.314 994.57 -249.458 990.843L-251.316 979.219C-251.602 977.267 -252.031 975.403 -252.222 973.451L-252.46 967.506C-252.46 963.513 -253.032 959.653 -253.079 955.704L-252.603 943.636C-252.603 941.64 -252.603 939.688 -252.364 937.647L-251.554 931.48L-250.125 919.234L-247.504 906.723C-243.731 889.443 -238.586 872.448 -232.112 855.877C-230.778 851.662 -228.824 847.004 -226.966 842.567C-225.107 838.13 -223.344 833.694 -221.39 829.257C-217.34 820.871 -213.575 812.175 -209.239 804.411C-201.534 789.379 -192.243 775.096 -181.505 761.774C-171.573 749.673 -160.118 738.725 -147.386 729.164C-121.702 709.731 -86.3911 692.738 -46.6014 675.257C-26.8256 666.384 -6.2397 657.776 14.6797 648.637C35.5991 639.497 56.7091 630.047 77.7715 620.463C162.903 581.204 244.943 536.385 323.277 486.34L338.001 477.067L352.297 467.528C361.828 461.139 371.692 454.884 381.222 448.361L436.88 410.117C454.607 398.004 472.619 386.291 490.68 374.623L518.032 357.719C527.229 352.306 536.426 346.804 545.718 341.436C564.35 331.054 582.982 320.494 602.091 311.088L616.387 303.856L630.682 296.979C640.213 292.276 650.029 288.106 659.798 283.891C698.482 267.18 738.808 253.986 780.216 244.493C800.608 240.044 821.307 236.916 842.164 235.131C862.766 233.299 883.51 233.299 904.112 235.131C945.352 238.312 985.322 249.965 1021.15 269.25C1038.99 279.095 1055.63 290.73 1070.75 303.945C1074.42 307.361 1078.38 310.645 1081.9 314.105L1091.81 324.576C1097.87 331.741 1103.18 339.421 1107.68 347.514C1116.59 363.573 1121.06 381.443 1120.69 399.513C1120.02 418.58 1115.73 437.387 1108.02 455.061C1099.87 473.825 1089.99 491.892 1078.47 509.056C1066.75 526.537 1053.88 543.752 1040.11 560.611C1012.81 594.464 982.929 627.518 953.575 662.657C938.946 680.404 924.603 698.683 910.974 718.294C896.613 738.543 884.146 759.903 873.71 782.138C852.076 829.834 843.736 878.105 840.353 924.514C833.825 1017.15 846.548 1102.38 844.689 1178.78C843.832 1216.9 839.352 1252.08 827.439 1283.23C821.456 1298.9 813.371 1313.81 803.375 1327.59C794.948 1339.94 783.847 1350.52 770.781 1358.65C756.496 1366.88 740.404 1372 723.7 1373.65C703.98 1375.58 684.074 1375.17 664.468 1372.4C643.258 1369.58 622.241 1365.63 601.519 1360.56C580.457 1355.19 559.204 1349.29 538.142 1342.81C495.826 1329.94 453.797 1315.26 411.1 1302.21C368.454 1288.33 324.614 1277.85 280.056 1270.89H280.247Z" fill="#DFE7FE" fill-opacity="0.07"/>
<path d="M486.532 -284.273C472.269 -287.602 457.781 -290.033 443.168 -291.55C436.211 -292.393 429.444 -292.881 422.63 -293.458C415.815 -294.034 409.144 -294.167 402.52 -294.301C389.273 -294.744 376.359 -294.301 363.445 -294.034C312.267 -292.127 263.375 -284.85 215.056 -277.885L197.949 -275.489L190.372 -274.468L182.605 -273.891C177.41 -273.448 172.026 -273.581 166.689 -273.448C161.352 -273.315 155.824 -273.891 150.249 -274.291C144.673 -274.69 139.193 -275.223 133.523 -276.066C127.852 -276.908 122.324 -277.618 116.606 -278.683C105.36 -280.813 93.8281 -283.12 82.4868 -286.048C36.5499 -297.318 -8.86285 -314.088 -59.565 -324.87C-86.3383 -330.813 -113.955 -332.759 -141.384 -330.638C-163.694 -328.595 -185.432 -322.855 -205.572 -313.689C-208.955 -312.136 -212.434 -310.672 -215.722 -309.252L-225.252 -303.973C-237.866 -296.675 -249.79 -288.393 -260.896 -279.216C-266.519 -274.779 -271.857 -269.189 -277.289 -263.998C-282.721 -258.807 -287.058 -252.95 -291.918 -247.315C-296.779 -241.681 -300.4 -235.647 -304.594 -229.568C-306.738 -226.551 -308.406 -223.49 -310.121 -220.695L-315.363 -211.466L-317.936 -206.763L-320.081 -202.06L-324.274 -192.566C-327.16 -186.32 -329.642 -179.92 -331.708 -173.399C-340.186 -148.208 -345.214 -122.12 -346.671 -95.7558C-347.962 -70.3017 -346.461 -44.7916 -342.191 -19.6211C-337.829 5.16121 -330.772 29.4665 -321.129 52.9198C-318.699 58.732 -316.126 64.4997 -313.505 70.1788C-310.884 75.8578 -307.786 81.4925 -304.88 87.0385C-301.973 92.5844 -298.828 98.1304 -295.349 103.543C-291.871 108.956 -288.868 114.324 -285.199 119.604C-271.144 140.539 -255.288 160.377 -237.785 178.924C-220.707 197.261 -202.062 214.28 -182.032 229.813C-162.639 245.094 -141.756 258.656 -119.655 270.321C-97.7374 281.802 -74.1396 290.246 -49.6057 295.388C-24.3906 300.299 1.70188 299.722 26.6382 293.703C51.7377 287.403 75.7888 277.924 98.1168 265.529C142.479 240.755 183.995 211.809 222.013 179.145C241.074 163.173 258.944 146.535 275.908 129.454C277.525 127.831 279.295 126.346 281.197 125.017L285.629 121.423C289.06 119.249 291.681 116.987 295.16 114.768L299.925 111.574C301.688 110.553 303.499 109.622 305.167 108.557C308.455 106.427 312.553 104.652 315.984 102.567C332.933 93.964 350.439 86.3478 368.401 79.7622L399.757 68.271L416.53 62.1926L434.019 55.4488C445.884 51.012 458.369 45.3773 471.045 39.5208C484.619 33.0468 497.734 25.7705 510.31 17.7364C524.513 8.67099 537.671 -1.73672 549.576 -13.3209C562.502 -26.0132 573.515 -40.2823 582.313 -55.7363L585.744 -61.5928L588.651 -67.5824C590.509 -71.6199 592.463 -75.6573 594.178 -79.7391C597.298 -87.7749 599.876 -95.9841 601.898 -104.319L604.614 -116.564L606.282 -128.455C607.306 -136.198 607.847 -143.99 607.902 -151.792C607.902 -153.833 607.902 -155.386 607.902 -157.737C607.902 -160.887 607.902 -163.949 607.473 -167.01C607.098 -173.47 606.093 -179.886 604.471 -186.177C604.138 -187.73 603.709 -189.371 603.28 -190.969L601.612 -195.849C600.469 -199.043 599.182 -202.238 597.895 -205.388C595.018 -211.543 591.624 -217.477 587.745 -223.135C585.792 -225.841 583.79 -228.459 581.694 -231.032C580.645 -232.319 579.597 -233.65 578.548 -234.804L575.26 -238.22C573.116 -240.394 570.876 -242.657 568.541 -244.698C566.206 -246.739 564.11 -248.424 561.775 -250.288C559.44 -252.151 557.01 -253.793 554.865 -255.39L548.146 -259.827C545.907 -261.158 543.381 -262.666 541.379 -263.82L534.851 -267.192C519.497 -274.583 503.285 -280.314 486.532 -284.273Z" fill="#DFE7FE" fill-opacity="0.07"/>
</g>
</svg>
