<svg width="2204" height="1247" viewBox="0 0 2204 1247" fill="none" xmlns="http://www.w3.org/2000/svg">
<path d="M1533.02 533.398C1204.96 727.745 1494.39 1000.48 1678.58 877.052C1796.3 798.174 1922.21 829.404 2010.51 739.703C2098.8 650.001 2038.57 509.426 1977.33 452.472C1916.09 395.518 1944.74 294.715 1802.34 279.611C1676.14 266.228 1628.87 476.618 1533.02 533.398Z" fill="url(#paint0_linear_11103_11)" fill-opacity="0.64"/>
<path d="M778.411 508.079C819.579 549.248 845.242 598.096 853.471 643.774C861.7 689.455 852.491 731.915 823.996 760.41C795.501 788.905 753.041 798.115 707.36 789.885C661.682 781.656 612.833 755.993 571.665 714.825C530.497 673.657 504.834 624.809 496.605 579.13C488.376 533.449 497.585 490.989 526.08 462.494C554.575 433.999 597.035 424.79 642.716 433.019C688.395 441.248 737.243 466.911 778.411 508.079Z" stroke="white" stroke-opacity="0.07"/>
<path d="M803.116 483.368C844.284 524.537 869.947 573.385 878.176 619.063C886.405 664.744 877.196 707.204 848.701 735.699C820.206 764.194 777.746 773.404 732.065 765.174C686.387 756.945 637.538 731.282 596.37 690.114C555.202 648.946 529.539 600.098 521.31 554.419C513.081 508.738 522.29 466.278 550.785 437.783C579.28 409.288 621.74 400.079 667.421 408.308C713.1 416.538 761.948 442.2 803.116 483.368Z" stroke="white" stroke-opacity="0.07"/>
<path d="M827.823 458.665C868.991 499.833 894.654 548.682 902.883 594.36C911.112 640.041 901.903 682.501 873.408 710.996C844.913 739.491 802.453 748.701 756.772 740.471C711.094 732.242 662.245 706.579 621.077 665.411C579.909 624.243 554.246 575.395 546.017 529.716C537.788 484.035 546.997 441.575 575.492 413.08C603.987 384.585 646.447 375.376 692.128 383.605C737.807 391.834 786.655 417.497 827.823 458.665Z" stroke="white" stroke-opacity="0.07"/>
<path d="M325.329 688.094L300.549 760.346C308.092 762.646 315.887 763.796 323.936 763.796C333.208 763.796 342.368 762.213 351.419 759.048C351.134 758.689 350.954 758.294 350.881 757.861L325.329 688.094Z" fill="url(#paint1_linear_11103_11)" fill-opacity="0.3"/>
<path d="M396.554 641.086L396.54 641.1C396.972 643.758 397.188 646.598 397.188 649.615C397.188 657.307 395.068 667.225 390.828 679.371L365.496 752.479C378.069 745.146 388.096 735.134 395.574 722.446C403.052 709.758 406.79 695.901 406.79 680.876C406.791 666.853 403.378 653.59 396.554 641.086Z" fill="url(#paint2_linear_11103_11)" fill-opacity="0.3"/>
<path d="M241.014 680.874L241 680.888C241 697.063 245.278 711.835 253.832 725.204C262.385 738.573 273.704 748.671 287.786 755.498L248.23 647.129C243.419 657.912 241.014 669.16 241.014 680.874Z" fill="url(#paint3_linear_11103_11)" fill-opacity="0.3"/>
<path d="M375.427 697.275C376.393 694.046 377.023 691.926 377.317 690.913C377.612 689.901 378.025 688.319 378.559 686.165C379.092 684.011 379.451 682.232 379.635 680.823C379.819 679.416 379.911 678.031 379.911 676.669L379.814 676.697C379.814 669.152 377.553 661.533 373.027 653.841C372.815 653.473 372.314 652.645 371.524 651.357C370.732 650.068 370.211 649.208 369.963 648.776C369.715 648.343 369.264 647.59 368.612 646.512C367.959 645.436 367.527 644.627 367.315 644.084C367.103 643.541 366.781 642.786 366.349 641.82C365.916 640.854 365.632 640.026 365.494 639.336C365.356 638.646 365.214 637.874 365.066 637.017C364.919 636.161 364.845 635.301 364.845 634.437C364.845 630.479 366.174 627.047 368.833 624.14C371.491 621.233 374.798 619.779 378.752 619.779H379.828C372.287 612.878 363.718 607.523 354.125 603.715C344.531 599.905 334.454 598 323.895 598C309.675 598 296.471 601.358 284.284 608.075C272.096 614.791 262.232 623.902 254.689 635.403C255.407 635.403 256.34 635.421 257.49 635.458C258.639 635.494 259.468 635.513 259.974 635.513L282.076 634.437C283.438 634.363 284.463 634.845 285.152 635.886C285.842 636.925 285.935 638.038 285.429 639.226C284.923 640.414 283.989 641.08 282.628 641.227C279.602 641.586 276.438 641.871 273.135 642.083L303.323 731.794L321.439 677.443L308.511 642.069L299.889 641.213C299.024 641.139 298.325 640.855 297.792 640.357C297.257 639.86 296.935 639.266 296.825 638.577C296.715 637.887 296.77 637.219 296.991 636.575C297.213 635.931 297.626 635.393 298.233 634.961C298.84 634.528 299.575 634.349 300.44 634.422C309.564 635.066 316.821 635.425 322.212 635.499L344.314 634.422C345.676 634.349 346.701 634.832 347.391 635.871C348.08 636.911 348.173 638.024 347.667 639.211C347.162 640.398 346.229 641.065 344.867 641.213C341.841 641.571 338.677 641.857 335.374 642.069L365.342 731.13L373.536 703.528C373.831 702.59 374.462 700.505 375.427 697.275Z" fill="url(#paint4_linear_11103_11)" fill-opacity="0.3"/>
<g filter="url(#filter0_f_11103_11)">
<ellipse cx="631.775" cy="717.918" rx="426.775" ry="229.918" fill="#F8EAEA" fill-opacity="0.07"/>
</g>
<g filter="url(#filter1_f_11103_11)">
<ellipse cx="812" cy="219" rx="230" ry="115" fill="#F8EAEA" fill-opacity="0.07"/>
</g>
<g clip-path="url(#clip0_11103_11)">
<path d="M1529.25 586.997C1527.02 586.997 1525.21 588.805 1525.21 591.036C1525.21 593.266 1527.02 595.074 1529.25 595.074C1531.49 595.074 1533.3 593.266 1533.3 591.036C1533.3 588.805 1531.49 586.997 1529.25 586.997Z" fill="url(#paint5_linear_11103_11)" fill-opacity="0.18"/>
<path d="M1529.25 586.997C1527.02 586.997 1525.21 588.805 1525.21 591.036C1525.21 593.266 1527.02 595.074 1529.25 595.074C1531.49 595.074 1533.3 593.266 1533.3 591.036C1533.3 588.805 1531.49 586.997 1529.25 586.997Z" fill="url(#paint6_linear_11103_11)" fill-opacity="0.18"/>
<path d="M1568 587.001C1567.2 586.998 1566.42 587.232 1565.75 587.674C1565.09 588.116 1564.56 588.746 1564.26 589.484C1563.95 590.221 1563.87 591.034 1564.02 591.818C1564.17 592.603 1564.56 593.324 1565.12 593.89C1565.69 594.456 1566.41 594.842 1567.19 594.999C1567.98 595.156 1568.79 595.077 1569.53 594.772C1570.27 594.467 1570.9 593.949 1571.35 593.285C1571.79 592.62 1572.03 591.839 1572.03 591.04C1572.03 589.971 1571.61 588.946 1570.85 588.189C1570.1 587.433 1569.07 587.005 1568 587.001Z" fill="url(#paint7_linear_11103_11)" fill-opacity="0.18"/>
<path d="M1568 587.001C1567.2 586.998 1566.42 587.232 1565.75 587.674C1565.09 588.116 1564.56 588.746 1564.26 589.484C1563.95 590.221 1563.87 591.034 1564.02 591.818C1564.17 592.603 1564.56 593.324 1565.12 593.89C1565.69 594.456 1566.41 594.842 1567.19 594.999C1567.98 595.156 1568.79 595.077 1569.53 594.772C1570.27 594.467 1570.9 593.949 1571.35 593.285C1571.79 592.62 1572.03 591.839 1572.03 591.04C1572.03 589.971 1571.61 588.946 1570.85 588.189C1570.1 587.433 1569.07 587.005 1568 587.001Z" fill="url(#paint8_linear_11103_11)" fill-opacity="0.18"/>
<path d="M1606.74 587.001C1605.94 587.001 1605.16 587.238 1604.49 587.682C1603.83 588.126 1603.31 588.756 1603 589.494C1602.7 590.232 1602.62 591.044 1602.77 591.828C1602.93 592.611 1603.31 593.33 1603.88 593.895C1604.44 594.46 1605.16 594.845 1605.95 595.001C1606.73 595.156 1607.55 595.076 1608.29 594.771C1609.02 594.465 1609.66 593.947 1610.1 593.283C1610.54 592.619 1610.78 591.838 1610.78 591.04C1610.78 590.509 1610.68 589.984 1610.47 589.494C1610.27 589.004 1609.97 588.559 1609.6 588.184C1609.22 587.809 1608.78 587.511 1608.29 587.309C1607.79 587.106 1607.27 587.001 1606.74 587.001Z" fill="url(#paint9_linear_11103_11)" fill-opacity="0.18"/>
<path d="M1606.74 587.001C1605.94 587.001 1605.16 587.238 1604.49 587.682C1603.83 588.126 1603.31 588.756 1603 589.494C1602.7 590.232 1602.62 591.044 1602.77 591.828C1602.93 592.611 1603.31 593.33 1603.88 593.895C1604.44 594.46 1605.16 594.845 1605.95 595.001C1606.73 595.156 1607.55 595.076 1608.29 594.771C1609.02 594.465 1609.66 593.947 1610.1 593.283C1610.54 592.619 1610.78 591.838 1610.78 591.04C1610.78 590.509 1610.68 589.984 1610.47 589.494C1610.27 589.004 1609.97 588.559 1609.6 588.184C1609.22 587.809 1608.78 587.511 1608.29 587.309C1607.79 587.106 1607.27 587.001 1606.74 587.001Z" fill="url(#paint10_linear_11103_11)" fill-opacity="0.18"/>
<path d="M1645.47 586.997C1643.24 586.997 1641.43 588.805 1641.43 591.036C1641.43 593.266 1643.24 595.074 1645.47 595.074C1647.71 595.074 1649.52 593.266 1649.52 591.036C1649.52 588.805 1647.71 586.997 1645.47 586.997Z" fill="url(#paint11_linear_11103_11)" fill-opacity="0.18"/>
<path d="M1645.47 586.997C1643.24 586.997 1641.43 588.805 1641.43 591.036C1641.43 593.266 1643.24 595.074 1645.47 595.074C1647.71 595.074 1649.52 593.266 1649.52 591.036C1649.52 588.805 1647.71 586.997 1645.47 586.997Z" fill="url(#paint12_linear_11103_11)" fill-opacity="0.18"/>
<path d="M1682.73 587.527C1680.66 588.375 1679.68 590.735 1680.53 592.798C1681.38 594.861 1683.74 595.845 1685.8 594.997C1687.87 594.149 1688.85 591.789 1688.01 589.726C1687.16 587.663 1684.79 586.678 1682.73 587.527Z" fill="url(#paint13_linear_11103_11)" fill-opacity="0.18"/>
<path d="M1682.73 587.527C1680.66 588.375 1679.68 590.735 1680.53 592.798C1681.38 594.861 1683.74 595.845 1685.8 594.997C1687.87 594.149 1688.85 591.789 1688.01 589.726C1687.16 587.663 1684.79 586.678 1682.73 587.527Z" fill="url(#paint14_linear_11103_11)" fill-opacity="0.18"/>
<path d="M1722.96 595.078C1723.76 595.081 1724.54 594.846 1725.21 594.404C1725.88 593.961 1726.4 593.331 1726.7 592.592C1727.01 591.854 1727.09 591.04 1726.94 590.255C1726.78 589.471 1726.4 588.75 1725.83 588.184C1725.26 587.618 1724.54 587.233 1723.76 587.078C1722.97 586.923 1722.16 587.004 1721.42 587.312C1720.68 587.619 1720.05 588.139 1719.6 588.805C1719.16 589.472 1718.93 590.255 1718.93 591.055C1718.93 592.121 1719.36 593.142 1720.11 593.895C1720.87 594.649 1721.89 595.074 1722.96 595.078Z" fill="url(#paint15_linear_11103_11)" fill-opacity="0.18"/>
<path d="M1722.96 595.078C1723.76 595.081 1724.54 594.846 1725.21 594.404C1725.88 593.961 1726.4 593.331 1726.7 592.592C1727.01 591.854 1727.09 591.04 1726.94 590.255C1726.78 589.471 1726.4 588.75 1725.83 588.184C1725.26 587.618 1724.54 587.233 1723.76 587.078C1722.97 586.923 1722.16 587.004 1721.42 587.312C1720.68 587.619 1720.05 588.139 1719.6 588.805C1719.16 589.472 1718.93 590.255 1718.93 591.055C1718.93 592.121 1719.36 593.142 1720.11 593.895C1720.87 594.649 1721.89 595.074 1722.96 595.078Z" fill="url(#paint16_linear_11103_11)" fill-opacity="0.18"/>
<path d="M1529.25 622.54C1527.02 622.54 1525.21 624.348 1525.21 626.579C1525.21 628.809 1527.02 630.617 1529.25 630.617C1531.49 630.617 1533.3 628.809 1533.3 626.579C1533.3 624.348 1531.49 622.54 1529.25 622.54Z" fill="url(#paint17_linear_11103_11)" fill-opacity="0.18"/>
<path d="M1529.25 622.54C1527.02 622.54 1525.21 624.348 1525.21 626.579C1525.21 628.809 1527.02 630.617 1529.25 630.617C1531.49 630.617 1533.3 628.809 1533.3 626.579C1533.3 624.348 1531.49 622.54 1529.25 622.54Z" fill="url(#paint18_linear_11103_11)" fill-opacity="0.18"/>
<path d="M1568 622.54C1567.2 622.537 1566.42 622.772 1565.75 623.215C1565.08 623.657 1564.56 624.288 1564.25 625.026C1563.95 625.765 1563.87 626.578 1564.02 627.363C1564.18 628.148 1564.56 628.869 1565.13 629.434C1565.69 630 1566.42 630.385 1567.2 630.54C1567.99 630.696 1568.8 630.614 1569.54 630.307C1570.28 629.999 1570.91 629.479 1571.36 628.813C1571.8 628.146 1572.03 627.364 1572.03 626.564C1572.03 625.498 1571.6 624.477 1570.85 623.723C1570.09 622.97 1569.07 622.544 1568 622.54Z" fill="url(#paint19_linear_11103_11)" fill-opacity="0.18"/>
<path d="M1568 622.54C1567.2 622.537 1566.42 622.772 1565.75 623.215C1565.08 623.657 1564.56 624.288 1564.25 625.026C1563.95 625.765 1563.87 626.578 1564.02 627.363C1564.18 628.148 1564.56 628.869 1565.13 629.434C1565.69 630 1566.42 630.385 1567.2 630.54C1567.99 630.696 1568.8 630.614 1569.54 630.307C1570.28 629.999 1570.91 629.479 1571.36 628.813C1571.8 628.146 1572.03 627.364 1572.03 626.564C1572.03 625.498 1571.6 624.477 1570.85 623.723C1570.09 622.97 1569.07 622.544 1568 622.54Z" fill="url(#paint20_linear_11103_11)" fill-opacity="0.18"/>
<path d="M1606.74 622.54C1605.94 622.54 1605.15 622.778 1604.49 623.222C1603.82 623.666 1603.31 624.298 1603 625.037C1602.69 625.776 1602.62 626.588 1602.77 627.372C1602.93 628.156 1603.32 628.876 1603.88 629.44C1604.45 630.004 1605.17 630.387 1605.96 630.541C1606.74 630.696 1607.56 630.613 1608.3 630.305C1609.03 629.997 1609.66 629.477 1610.11 628.811C1610.55 628.145 1610.78 627.363 1610.78 626.564C1610.78 626.034 1610.68 625.51 1610.47 625.02C1610.27 624.531 1609.97 624.087 1609.6 623.713C1609.22 623.34 1608.77 623.044 1608.28 622.842C1607.79 622.641 1607.27 622.538 1606.74 622.54Z" fill="url(#paint21_linear_11103_11)" fill-opacity="0.18"/>
<path d="M1606.74 622.54C1605.94 622.54 1605.15 622.778 1604.49 623.222C1603.82 623.666 1603.31 624.298 1603 625.037C1602.69 625.776 1602.62 626.588 1602.77 627.372C1602.93 628.156 1603.32 628.876 1603.88 629.44C1604.45 630.004 1605.17 630.387 1605.96 630.541C1606.74 630.696 1607.56 630.613 1608.3 630.305C1609.03 629.997 1609.66 629.477 1610.11 628.811C1610.55 628.145 1610.78 627.363 1610.78 626.564C1610.78 626.034 1610.68 625.51 1610.47 625.02C1610.27 624.531 1609.97 624.087 1609.6 623.713C1609.22 623.34 1608.77 623.044 1608.28 622.842C1607.79 622.641 1607.27 622.538 1606.74 622.54Z" fill="url(#paint22_linear_11103_11)" fill-opacity="0.18"/>
<path d="M1645.47 622.54C1643.24 622.54 1641.43 624.348 1641.43 626.579C1641.43 628.809 1643.24 630.617 1645.47 630.617C1647.71 630.617 1649.52 628.809 1649.52 626.579C1649.52 624.348 1647.71 622.54 1645.47 622.54Z" fill="url(#paint23_linear_11103_11)" fill-opacity="0.18"/>
<path d="M1645.47 622.54C1643.24 622.54 1641.43 624.348 1641.43 626.579C1641.43 628.809 1643.24 630.617 1645.47 630.617C1647.71 630.617 1649.52 628.809 1649.52 626.579C1649.52 624.348 1647.71 622.54 1645.47 622.54Z" fill="url(#paint24_linear_11103_11)" fill-opacity="0.18"/>
<path d="M1682.72 623.066C1680.66 623.914 1679.67 626.274 1680.52 628.337C1681.37 630.4 1683.73 631.384 1685.8 630.536C1687.86 629.688 1688.85 627.328 1688 625.265C1687.15 623.202 1684.79 622.217 1682.72 623.066Z" fill="url(#paint25_linear_11103_11)" fill-opacity="0.18"/>
<path d="M1682.72 623.066C1680.66 623.914 1679.67 626.274 1680.52 628.337C1681.37 630.4 1683.73 631.384 1685.8 630.536C1687.86 629.688 1688.85 627.328 1688 625.265C1687.15 623.202 1684.79 622.217 1682.72 623.066Z" fill="url(#paint26_linear_11103_11)" fill-opacity="0.18"/>
<path d="M1722.96 622.54C1722.16 622.54 1721.37 622.778 1720.71 623.222C1720.04 623.666 1719.52 624.298 1719.22 625.037C1718.91 625.776 1718.83 626.588 1718.99 627.372C1719.15 628.156 1719.54 628.876 1720.1 629.44C1720.67 630.004 1721.39 630.387 1722.18 630.541C1722.96 630.696 1723.78 630.613 1724.51 630.305C1725.25 629.997 1725.88 629.477 1726.33 628.811C1726.77 628.145 1727 627.363 1727 626.564C1727 626.034 1726.9 625.51 1726.69 625.02C1726.49 624.531 1726.19 624.087 1725.81 623.713C1725.44 623.34 1724.99 623.044 1724.5 622.842C1724.01 622.641 1723.49 622.538 1722.96 622.54Z" fill="url(#paint27_linear_11103_11)" fill-opacity="0.18"/>
<path d="M1722.96 622.54C1722.16 622.54 1721.37 622.778 1720.71 623.222C1720.04 623.666 1719.52 624.298 1719.22 625.037C1718.91 625.776 1718.83 626.588 1718.99 627.372C1719.15 628.156 1719.54 628.876 1720.1 629.44C1720.67 630.004 1721.39 630.387 1722.18 630.541C1722.96 630.696 1723.78 630.613 1724.51 630.305C1725.25 629.997 1725.88 629.477 1726.33 628.811C1726.77 628.145 1727 627.363 1727 626.564C1727 626.034 1726.9 625.51 1726.69 625.02C1726.49 624.531 1726.19 624.087 1725.81 623.713C1725.44 623.34 1724.99 623.044 1724.5 622.842C1724.01 622.641 1723.49 622.538 1722.96 622.54Z" fill="url(#paint28_linear_11103_11)" fill-opacity="0.18"/>
<path d="M1529.25 656.458C1527.02 656.458 1525.21 658.266 1525.21 660.497C1525.21 662.727 1527.02 664.535 1529.25 664.535C1531.49 664.535 1533.3 662.727 1533.3 660.497C1533.3 658.266 1531.49 656.458 1529.25 656.458Z" fill="url(#paint29_linear_11103_11)" fill-opacity="0.18"/>
<path d="M1529.25 656.458C1527.02 656.458 1525.21 658.266 1525.21 660.497C1525.21 662.727 1527.02 664.535 1529.25 664.535C1531.49 664.535 1533.3 662.727 1533.3 660.497C1533.3 658.266 1531.49 656.458 1529.25 656.458Z" fill="url(#paint30_linear_11103_11)" fill-opacity="0.18"/>
<path d="M1568 656.462C1567.2 656.459 1566.42 656.693 1565.75 657.135C1565.09 657.577 1564.56 658.207 1564.26 658.945C1563.95 659.682 1563.87 660.495 1564.02 661.279C1564.17 662.063 1564.56 662.784 1565.12 663.351C1565.69 663.917 1566.41 664.303 1567.19 664.46C1567.98 664.617 1568.79 664.538 1569.53 664.233C1570.27 663.928 1570.9 663.41 1571.35 662.746C1571.79 662.081 1572.03 661.3 1572.03 660.501C1572.03 659.432 1571.61 658.407 1570.85 657.65C1570.1 656.894 1569.07 656.466 1568 656.462Z" fill="url(#paint31_linear_11103_11)" fill-opacity="0.18"/>
<path d="M1568 656.462C1567.2 656.459 1566.42 656.693 1565.75 657.135C1565.09 657.577 1564.56 658.207 1564.26 658.945C1563.95 659.682 1563.87 660.495 1564.02 661.279C1564.17 662.063 1564.56 662.784 1565.12 663.351C1565.69 663.917 1566.41 664.303 1567.19 664.46C1567.98 664.617 1568.79 664.538 1569.53 664.233C1570.27 663.928 1570.9 663.41 1571.35 662.746C1571.79 662.081 1572.03 661.3 1572.03 660.501C1572.03 659.432 1571.61 658.407 1570.85 657.65C1570.1 656.894 1569.07 656.466 1568 656.462Z" fill="url(#paint32_linear_11103_11)" fill-opacity="0.18"/>
<path d="M1606.74 656.458C1605.94 656.458 1605.16 656.695 1604.49 657.139C1603.83 657.583 1603.31 658.213 1603 658.951C1602.7 659.689 1602.62 660.501 1602.77 661.285C1602.93 662.068 1603.31 662.788 1603.88 663.352C1604.44 663.917 1605.16 664.302 1605.95 664.458C1606.73 664.613 1607.55 664.533 1608.29 664.228C1609.02 663.922 1609.66 663.404 1610.1 662.74C1610.54 662.076 1610.78 661.295 1610.78 660.497C1610.78 659.966 1610.68 659.441 1610.47 658.951C1610.27 658.461 1609.97 658.016 1609.6 657.641C1609.22 657.266 1608.78 656.969 1608.29 656.766C1607.79 656.563 1607.27 656.458 1606.74 656.458Z" fill="url(#paint33_linear_11103_11)" fill-opacity="0.18"/>
<path d="M1606.74 656.458C1605.94 656.458 1605.16 656.695 1604.49 657.139C1603.83 657.583 1603.31 658.213 1603 658.951C1602.7 659.689 1602.62 660.501 1602.77 661.285C1602.93 662.068 1603.31 662.788 1603.88 663.352C1604.44 663.917 1605.16 664.302 1605.95 664.458C1606.73 664.613 1607.55 664.533 1608.29 664.228C1609.02 663.922 1609.66 663.404 1610.1 662.74C1610.54 662.076 1610.78 661.295 1610.78 660.497C1610.78 659.966 1610.68 659.441 1610.47 658.951C1610.27 658.461 1609.97 658.016 1609.6 657.641C1609.22 657.266 1608.78 656.969 1608.29 656.766C1607.79 656.563 1607.27 656.458 1606.74 656.458Z" fill="url(#paint34_linear_11103_11)" fill-opacity="0.18"/>
<path d="M1645.47 656.462C1643.24 656.462 1641.43 658.27 1641.43 660.501C1641.43 662.731 1643.24 664.539 1645.47 664.539C1647.71 664.539 1649.52 662.731 1649.52 660.501C1649.52 658.27 1647.71 656.462 1645.47 656.462Z" fill="url(#paint35_linear_11103_11)" fill-opacity="0.18"/>
<path d="M1645.47 656.462C1643.24 656.462 1641.43 658.27 1641.43 660.501C1641.43 662.731 1643.24 664.539 1645.47 664.539C1647.71 664.539 1649.52 662.731 1649.52 660.501C1649.52 658.27 1647.71 656.462 1645.47 656.462Z" fill="url(#paint36_linear_11103_11)" fill-opacity="0.18"/>
<path d="M1682.73 656.987C1680.66 657.836 1679.68 660.196 1680.52 662.259C1681.37 664.322 1683.74 665.306 1685.8 664.458C1687.87 663.61 1688.85 661.25 1688 659.187C1687.15 657.124 1684.79 656.139 1682.73 656.987Z" fill="url(#paint37_linear_11103_11)" fill-opacity="0.18"/>
<path d="M1682.73 656.987C1680.66 657.836 1679.68 660.196 1680.52 662.259C1681.37 664.322 1683.74 665.306 1685.8 664.458C1687.87 663.61 1688.85 661.25 1688 659.187C1687.15 657.124 1684.79 656.139 1682.73 656.987Z" fill="url(#paint38_linear_11103_11)" fill-opacity="0.18"/>
<path d="M1722.96 656.462C1722.16 656.462 1721.37 656.699 1720.71 657.143C1720.04 657.586 1719.53 658.217 1719.22 658.955C1718.91 659.693 1718.83 660.505 1718.99 661.288C1719.15 662.072 1719.53 662.791 1720.1 663.356C1720.66 663.921 1721.38 664.306 1722.17 664.461C1722.95 664.617 1723.76 664.537 1724.5 664.232C1725.24 663.926 1725.87 663.408 1726.32 662.744C1726.76 662.08 1727 661.299 1727 660.501C1727 659.43 1726.57 658.402 1725.82 657.645C1725.06 656.888 1724.03 656.462 1722.96 656.462Z" fill="url(#paint39_linear_11103_11)" fill-opacity="0.18"/>
<path d="M1722.96 656.462C1722.16 656.462 1721.37 656.699 1720.71 657.143C1720.04 657.586 1719.53 658.217 1719.22 658.955C1718.91 659.693 1718.83 660.505 1718.99 661.288C1719.15 662.072 1719.53 662.791 1720.1 663.356C1720.66 663.921 1721.38 664.306 1722.17 664.461C1722.95 664.617 1723.76 664.537 1724.5 664.232C1725.24 663.926 1725.87 663.408 1726.32 662.744C1726.76 662.08 1727 661.299 1727 660.501C1727 659.43 1726.57 658.402 1725.82 657.645C1725.06 656.888 1724.03 656.462 1722.96 656.462Z" fill="url(#paint40_linear_11103_11)" fill-opacity="0.18"/>
<path d="M1529.25 691.997C1527.02 691.997 1525.21 693.805 1525.21 696.036C1525.21 698.266 1527.02 700.074 1529.25 700.074C1531.49 700.074 1533.3 698.266 1533.3 696.036C1533.3 693.805 1531.49 691.997 1529.25 691.997Z" fill="url(#paint41_linear_11103_11)" fill-opacity="0.18"/>
<path d="M1529.25 691.997C1527.02 691.997 1525.21 693.805 1525.21 696.036C1525.21 698.266 1527.02 700.074 1529.25 700.074C1531.49 700.074 1533.3 698.266 1533.3 696.036C1533.3 693.805 1531.49 691.997 1529.25 691.997Z" fill="url(#paint42_linear_11103_11)" fill-opacity="0.18"/>
<path d="M1568 692.001C1567.2 691.998 1566.42 692.233 1565.75 692.675C1565.08 693.118 1564.56 693.749 1564.25 694.487C1563.95 695.226 1563.87 696.039 1564.02 696.824C1564.18 697.609 1564.56 698.33 1565.13 698.895C1565.69 699.461 1566.42 699.846 1567.2 700.001C1567.99 700.157 1568.8 700.075 1569.54 699.768C1570.28 699.46 1570.91 698.94 1571.36 698.274C1571.8 697.607 1572.03 696.824 1572.03 696.024C1572.03 694.959 1571.6 693.938 1570.85 693.184C1570.09 692.43 1569.07 692.005 1568 692.001Z" fill="url(#paint43_linear_11103_11)" fill-opacity="0.18"/>
<path d="M1568 692.001C1567.2 691.998 1566.42 692.233 1565.75 692.675C1565.08 693.118 1564.56 693.749 1564.25 694.487C1563.95 695.226 1563.87 696.039 1564.02 696.824C1564.18 697.609 1564.56 698.33 1565.13 698.895C1565.69 699.461 1566.42 699.846 1567.2 700.001C1567.99 700.157 1568.8 700.075 1569.54 699.768C1570.28 699.46 1570.91 698.94 1571.36 698.274C1571.8 697.607 1572.03 696.824 1572.03 696.024C1572.03 694.959 1571.6 693.938 1570.85 693.184C1570.09 692.43 1569.07 692.005 1568 692.001Z" fill="url(#paint44_linear_11103_11)" fill-opacity="0.18"/>
<path d="M1606.74 692.001C1605.94 692.001 1605.15 692.239 1604.49 692.683C1603.82 693.127 1603.31 693.759 1603 694.498C1602.69 695.237 1602.62 696.049 1602.77 696.833C1602.93 697.617 1603.32 698.336 1603.88 698.901C1604.45 699.465 1605.17 699.848 1605.96 700.002C1606.74 700.156 1607.56 700.074 1608.3 699.766C1609.03 699.458 1609.66 698.938 1610.11 698.272C1610.55 697.606 1610.78 696.824 1610.78 696.024C1610.78 695.495 1610.68 694.97 1610.47 694.481C1610.27 693.992 1609.97 693.548 1609.6 693.174C1609.22 692.8 1608.77 692.504 1608.28 692.303C1607.79 692.102 1607.27 691.999 1606.74 692.001Z" fill="url(#paint45_linear_11103_11)" fill-opacity="0.18"/>
<path d="M1606.74 692.001C1605.94 692.001 1605.15 692.239 1604.49 692.683C1603.82 693.127 1603.31 693.759 1603 694.498C1602.69 695.237 1602.62 696.049 1602.77 696.833C1602.93 697.617 1603.32 698.336 1603.88 698.901C1604.45 699.465 1605.17 699.848 1605.96 700.002C1606.74 700.156 1607.56 700.074 1608.3 699.766C1609.03 699.458 1609.66 698.938 1610.11 698.272C1610.55 697.606 1610.78 696.824 1610.78 696.024C1610.78 695.495 1610.68 694.97 1610.47 694.481C1610.27 693.992 1609.97 693.548 1609.6 693.174C1609.22 692.8 1608.77 692.504 1608.28 692.303C1607.79 692.102 1607.27 691.999 1606.74 692.001Z" fill="url(#paint46_linear_11103_11)" fill-opacity="0.18"/>
<path d="M1645.47 692.001C1643.24 692.001 1641.43 693.809 1641.43 696.04C1641.43 698.27 1643.24 700.078 1645.47 700.078C1647.71 700.078 1649.52 698.27 1649.52 696.04C1649.52 693.809 1647.71 692.001 1645.47 692.001Z" fill="url(#paint47_linear_11103_11)" fill-opacity="0.18"/>
<path d="M1645.47 692.001C1643.24 692.001 1641.43 693.809 1641.43 696.04C1641.43 698.27 1643.24 700.078 1645.47 700.078C1647.71 700.078 1649.52 698.27 1649.52 696.04C1649.52 693.809 1647.71 692.001 1645.47 692.001Z" fill="url(#paint48_linear_11103_11)" fill-opacity="0.18"/>
<path d="M1682.72 690.913C1680.66 691.762 1679.67 694.122 1680.52 696.184C1681.37 698.247 1683.73 699.232 1685.8 698.384C1687.86 697.535 1688.85 695.175 1688 693.112C1687.15 691.05 1684.79 690.065 1682.72 690.913Z" fill="url(#paint49_linear_11103_11)" fill-opacity="0.18"/>
<path d="M1682.72 690.913C1680.66 691.762 1679.67 694.122 1680.52 696.184C1681.37 698.247 1683.73 699.232 1685.8 698.384C1687.86 697.535 1688.85 695.175 1688 693.112C1687.15 691.05 1684.79 690.065 1682.72 690.913Z" fill="url(#paint50_linear_11103_11)" fill-opacity="0.18"/>
<path d="M1722.96 692.001C1722.16 692.001 1721.37 692.239 1720.71 692.683C1720.04 693.127 1719.52 693.759 1719.22 694.498C1718.91 695.237 1718.83 696.049 1718.99 696.833C1719.15 697.617 1719.54 698.336 1720.1 698.901C1720.67 699.465 1721.39 699.848 1722.18 700.002C1722.96 700.156 1723.78 700.074 1724.51 699.766C1725.25 699.458 1725.88 698.938 1726.33 698.272C1726.77 697.606 1727 696.824 1727 696.024C1727 695.495 1726.9 694.97 1726.69 694.481C1726.49 693.992 1726.19 693.548 1725.81 693.174C1725.44 692.8 1724.99 692.504 1724.5 692.303C1724.01 692.102 1723.49 691.999 1722.96 692.001Z" fill="url(#paint51_linear_11103_11)" fill-opacity="0.18"/>
<path d="M1722.96 692.001C1722.16 692.001 1721.37 692.239 1720.71 692.683C1720.04 693.127 1719.52 693.759 1719.22 694.498C1718.91 695.237 1718.83 696.049 1718.99 696.833C1719.15 697.617 1719.54 698.336 1720.1 698.901C1720.67 699.465 1721.39 699.848 1722.18 700.002C1722.96 700.156 1723.78 700.074 1724.51 699.766C1725.25 699.458 1725.88 698.938 1726.33 698.272C1726.77 697.606 1727 696.824 1727 696.024C1727 695.495 1726.9 694.97 1726.69 694.481C1726.49 693.992 1726.19 693.548 1725.81 693.174C1725.44 692.8 1724.99 692.504 1724.5 692.303C1724.01 692.102 1723.49 691.999 1722.96 692.001Z" fill="url(#paint52_linear_11103_11)" fill-opacity="0.18"/>
<path d="M1529.25 725.923C1527.02 725.923 1525.21 727.731 1525.21 729.962C1525.21 732.192 1527.02 734 1529.25 734C1531.49 734 1533.3 732.192 1533.3 729.962C1533.3 727.731 1531.49 725.923 1529.25 725.923Z" fill="url(#paint53_linear_11103_11)" fill-opacity="0.18"/>
<path d="M1529.25 725.923C1527.02 725.923 1525.21 727.731 1525.21 729.962C1525.21 732.192 1527.02 734 1529.25 734C1531.49 734 1533.3 732.192 1533.3 729.962C1533.3 727.731 1531.49 725.923 1529.25 725.923Z" fill="url(#paint54_linear_11103_11)" fill-opacity="0.18"/>
<path d="M1568 725.923C1567.2 725.92 1566.42 726.154 1565.75 726.596C1565.09 727.038 1564.56 727.668 1564.26 728.406C1563.95 729.143 1563.87 729.956 1564.02 730.74C1564.17 731.524 1564.56 732.245 1565.12 732.812C1565.69 733.378 1566.41 733.764 1567.19 733.921C1567.98 734.078 1568.79 733.999 1569.53 733.694C1570.27 733.389 1570.9 732.871 1571.35 732.207C1571.79 731.542 1572.03 730.761 1572.03 729.962C1572.03 728.893 1571.61 727.868 1570.85 727.111C1570.1 726.354 1569.07 725.927 1568 725.923Z" fill="url(#paint55_linear_11103_11)" fill-opacity="0.18"/>
<path d="M1568 725.923C1567.2 725.92 1566.42 726.154 1565.75 726.596C1565.09 727.038 1564.56 727.668 1564.26 728.406C1563.95 729.143 1563.87 729.956 1564.02 730.74C1564.17 731.524 1564.56 732.245 1565.12 732.812C1565.69 733.378 1566.41 733.764 1567.19 733.921C1567.98 734.078 1568.79 733.999 1569.53 733.694C1570.27 733.389 1570.9 732.871 1571.35 732.207C1571.79 731.542 1572.03 730.761 1572.03 729.962C1572.03 728.893 1571.61 727.868 1570.85 727.111C1570.1 726.354 1569.07 725.927 1568 725.923Z" fill="url(#paint56_linear_11103_11)" fill-opacity="0.18"/>
<path d="M1606.74 725.923C1605.94 725.923 1605.16 726.16 1604.49 726.604C1603.83 727.047 1603.31 727.678 1603 728.416C1602.7 729.154 1602.62 729.966 1602.77 730.749C1602.93 731.533 1603.31 732.252 1603.88 732.817C1604.44 733.382 1605.16 733.767 1605.95 733.922C1606.73 734.078 1607.55 733.998 1608.29 733.693C1609.02 733.387 1609.66 732.869 1610.1 732.205C1610.54 731.541 1610.78 730.76 1610.78 729.962C1610.78 729.431 1610.68 728.906 1610.47 728.416C1610.27 727.926 1609.97 727.481 1609.6 727.106C1609.22 726.731 1608.78 726.433 1608.29 726.23C1607.79 726.028 1607.27 725.923 1606.74 725.923Z" fill="url(#paint57_linear_11103_11)" fill-opacity="0.18"/>
<path d="M1606.74 725.923C1605.94 725.923 1605.16 726.16 1604.49 726.604C1603.83 727.047 1603.31 727.678 1603 728.416C1602.7 729.154 1602.62 729.966 1602.77 730.749C1602.93 731.533 1603.31 732.252 1603.88 732.817C1604.44 733.382 1605.16 733.767 1605.95 733.922C1606.73 734.078 1607.55 733.998 1608.29 733.693C1609.02 733.387 1609.66 732.869 1610.1 732.205C1610.54 731.541 1610.78 730.76 1610.78 729.962C1610.78 729.431 1610.68 728.906 1610.47 728.416C1610.27 727.926 1609.97 727.481 1609.6 727.106C1609.22 726.731 1608.78 726.433 1608.29 726.23C1607.79 726.028 1607.27 725.923 1606.74 725.923Z" fill="url(#paint58_linear_11103_11)" fill-opacity="0.18"/>
<path d="M1645.47 725.923C1643.24 725.923 1641.43 727.731 1641.43 729.962C1641.43 732.192 1643.24 734 1645.47 734C1647.71 734 1649.52 732.192 1649.52 729.962C1649.52 727.731 1647.71 725.923 1645.47 725.923Z" fill="url(#paint59_linear_11103_11)" fill-opacity="0.18"/>
<path d="M1645.47 725.923C1643.24 725.923 1641.43 727.731 1641.43 729.962C1641.43 732.192 1643.24 734 1645.47 734C1647.71 734 1649.52 732.192 1649.52 729.962C1649.52 727.731 1647.71 725.923 1645.47 725.923Z" fill="url(#paint60_linear_11103_11)" fill-opacity="0.18"/>
<path d="M1682.73 726.448C1680.66 727.297 1679.68 729.657 1680.52 731.72C1681.37 733.783 1683.74 734.767 1685.8 733.919C1687.87 733.071 1688.85 730.711 1688 728.648C1687.15 726.585 1684.79 725.6 1682.73 726.448Z" fill="url(#paint61_linear_11103_11)" fill-opacity="0.18"/>
<path d="M1682.73 726.448C1680.66 727.297 1679.68 729.657 1680.52 731.72C1681.37 733.783 1683.74 734.767 1685.8 733.919C1687.87 733.071 1688.85 730.711 1688 728.648C1687.15 726.585 1684.79 725.6 1682.73 726.448Z" fill="url(#paint62_linear_11103_11)" fill-opacity="0.18"/>
<path d="M1722.96 725.923C1722.16 725.923 1721.37 726.16 1720.71 726.604C1720.04 727.047 1719.53 727.678 1719.22 728.416C1718.91 729.154 1718.83 729.966 1718.99 730.749C1719.15 731.533 1719.53 732.252 1720.1 732.817C1720.66 733.382 1721.38 733.767 1722.17 733.922C1722.95 734.078 1723.76 733.998 1724.5 733.693C1725.24 733.387 1725.87 732.869 1726.32 732.205C1726.76 731.541 1727 730.76 1727 729.962C1727 728.891 1726.57 727.863 1725.82 727.106C1725.06 726.349 1724.03 725.923 1722.96 725.923Z" fill="url(#paint63_linear_11103_11)" fill-opacity="0.18"/>
<path d="M1722.96 725.923C1722.16 725.923 1721.37 726.16 1720.71 726.604C1720.04 727.047 1719.53 727.678 1719.22 728.416C1718.91 729.154 1718.83 729.966 1718.99 730.749C1719.15 731.533 1719.53 732.252 1720.1 732.817C1720.66 733.382 1721.38 733.767 1722.17 733.922C1722.95 734.078 1723.76 733.998 1724.5 733.693C1725.24 733.387 1725.87 732.869 1726.32 732.205C1726.76 731.541 1727 730.76 1727 729.962C1727 728.891 1726.57 727.863 1725.82 727.106C1725.06 726.349 1724.03 725.923 1722.96 725.923Z" fill="url(#paint64_linear_11103_11)" fill-opacity="0.18"/>
</g>
<path d="M1269.19 719.3C1302.93 753.046 1323.96 793.084 1330.71 830.519C1337.45 867.957 1329.9 902.74 1306.56 926.079C1283.23 949.417 1248.44 956.967 1211.01 950.222C1173.57 943.478 1133.53 922.445 1099.79 888.7C1066.04 854.954 1045.01 814.916 1038.26 777.48C1031.52 740.043 1039.07 705.26 1062.41 681.921C1085.75 658.583 1120.53 651.033 1157.97 657.777C1195.4 664.521 1235.44 685.554 1269.19 719.3Z" stroke="white" stroke-opacity="0.1"/>
<path d="M1289.44 699.042C1323.19 732.788 1344.22 772.826 1350.97 810.261C1357.71 847.699 1350.16 882.482 1326.82 905.821C1303.48 929.159 1268.7 936.709 1231.26 929.964C1193.83 923.22 1153.79 902.188 1120.04 868.442C1086.3 834.696 1065.27 794.658 1058.52 757.223C1051.78 719.785 1059.33 685.002 1082.66 661.663C1106 638.325 1140.79 630.775 1178.22 637.52C1215.66 644.264 1255.7 665.296 1289.44 699.042Z" stroke="white" stroke-opacity="0.1"/>
<path d="M1309.7 678.784C1343.45 712.53 1364.48 752.568 1371.23 790.004C1377.97 827.441 1370.42 862.224 1347.08 885.563C1323.74 908.902 1288.96 916.451 1251.52 909.707C1214.09 902.963 1174.05 881.93 1140.3 848.184C1106.56 814.438 1085.52 774.4 1078.78 736.965C1072.04 699.527 1079.59 664.744 1102.92 641.406C1126.26 618.067 1161.05 610.517 1198.48 617.262C1235.92 624.006 1275.96 645.039 1309.7 678.784Z" stroke="white" stroke-opacity="0.1"/>
<path d="M403.123 354.227C104.198 117.5 -46.8269 485.4 134.371 613.186C250.167 694.851 266.092 823.604 381.459 873.925C496.826 924.246 606.515 817.673 637.767 740.103C669.02 662.537 773.398 653.195 736.515 514.827C703.824 392.196 490.457 423.39 403.123 354.227Z" fill="url(#paint65_linear_11103_11)" fill-opacity="0.64"/>
<g filter="url(#filter2_f_11103_11)">
<ellipse cx="1583.27" cy="788.336" rx="435.792" ry="229.918" fill="white" fill-opacity="0.08"/>
</g>
<g filter="url(#filter3_f_11103_11)">
<ellipse cx="1673.44" cy="556.918" rx="426.775" ry="229.918" fill="#F8EAEA" fill-opacity="0.07"/>
</g>
<path d="M1709.1 435.832L1744.54 457.941L1709.1 480.109V472.371C1709.1 469.294 1710.71 466.462 1713.32 464.928L1725.26 457.941L1713.31 450.903C1710.71 449.369 1709.11 446.537 1709.11 443.477V435.832H1709.1Z" fill="url(#paint66_linear_11103_11)"/>
<path d="M1773 471.695C1770.04 483.428 1763.39 493.652 1754.39 500.985C1745.2 508.478 1733.57 512.954 1720.88 512.954C1717.47 512.954 1714.13 512.625 1710.89 512.01C1696.78 509.313 1684.61 500.994 1676.68 489.421C1670.05 479.753 1666.4 467.801 1667.08 454.955C1668.59 426.163 1692.48 403.068 1720.74 403C1733.57 402.958 1745.36 407.501 1754.63 415.121C1756.74 416.857 1758.73 418.745 1760.55 420.785C1760.56 420.793 1760.57 420.802 1760.58 420.81C1760.63 420.869 1760.68 420.92 1760.74 420.979C1760.74 420.987 1760.75 420.987 1760.75 420.987C1760.76 420.996 1760.77 421.013 1760.78 421.021C1761.19 421.476 1761.58 421.94 1761.96 422.403C1762.1 422.572 1762.24 422.732 1762.37 422.901C1762.39 422.926 1762.41 422.951 1762.43 422.977C1762.64 423.229 1762.84 423.482 1763.04 423.735C1763.24 423.988 1763.43 424.241 1763.62 424.494C1763.63 424.511 1763.64 424.519 1763.65 424.527C1763.68 424.578 1763.72 424.62 1763.76 424.671C1763.8 424.721 1763.83 424.763 1763.86 424.814C1764 424.991 1764.13 425.168 1764.26 425.353C1764.3 425.412 1764.34 425.463 1764.38 425.522C1764.57 425.783 1764.76 426.045 1764.94 426.306C1765.18 426.66 1765.4 427.022 1765.61 427.385C1765.67 427.494 1765.73 427.604 1765.79 427.714C1766.84 429.703 1767.33 431.81 1767.33 433.867C1767.33 434.052 1767.32 434.237 1767.31 434.423C1767.3 434.583 1767.29 434.735 1767.28 434.886C1767.28 435.021 1767.26 435.156 1767.24 435.283C1767.23 435.333 1767.23 435.384 1767.23 435.426C1767.21 435.586 1767.18 435.738 1767.16 435.898C1767.14 435.991 1767.14 436.075 1767.12 436.168C1767.12 436.176 1767.11 436.184 1767.11 436.184C1767.09 436.269 1767.08 436.361 1767.06 436.446C1767.04 436.539 1767.02 436.631 1767 436.716C1766.96 436.901 1766.92 437.078 1766.87 437.263C1766.82 437.44 1766.77 437.617 1766.71 437.803C1766.69 437.896 1766.66 437.98 1766.63 438.064C1766.6 438.157 1766.57 438.241 1766.54 438.325C1766.51 438.41 1766.47 438.502 1766.44 438.587C1766.31 438.932 1766.16 439.278 1766 439.607C1765.92 439.775 1765.84 439.944 1765.76 440.104C1765.67 440.272 1765.58 440.433 1765.48 440.584C1765.43 440.66 1765.39 440.744 1765.34 440.82C1765.29 440.896 1765.24 440.98 1765.19 441.056C1765.14 441.132 1765.1 441.208 1765.04 441.292C1764.99 441.368 1764.93 441.444 1764.88 441.52C1764.72 441.748 1764.56 441.967 1764.38 442.186L1764.38 442.194C1764.26 442.338 1764.15 442.472 1764.03 442.616C1763.97 442.683 1763.91 442.759 1763.85 442.818C1763.78 442.885 1763.72 442.953 1763.66 443.02C1763.53 443.155 1763.4 443.282 1763.27 443.416C1763.2 443.484 1763.14 443.543 1763.07 443.61C1763.01 443.669 1762.93 443.737 1762.86 443.796C1762.72 443.922 1762.58 444.04 1762.44 444.158C1762.37 444.217 1762.29 444.276 1762.22 444.327C1761.84 444.622 1761.44 444.891 1761.03 445.136C1760.96 445.178 1760.89 445.22 1760.82 445.254C1760.74 445.304 1760.66 445.347 1760.58 445.397C1760.12 445.642 1759.64 445.861 1759.16 446.055C1759.09 446.08 1759.02 446.105 1758.95 446.13C1758.83 446.181 1758.7 446.215 1758.58 446.257C1758.5 446.282 1758.41 446.307 1758.33 446.333C1758 446.434 1757.66 446.518 1757.31 446.594C1757.21 446.619 1757.1 446.636 1756.99 446.662C1756.92 446.678 1756.83 446.687 1756.76 446.704C1756.66 446.721 1756.56 446.737 1756.46 446.754C1756.41 446.763 1756.36 446.771 1756.31 446.771C1756.23 446.788 1756.14 446.796 1756.05 446.805C1755.86 446.822 1755.67 446.839 1755.47 446.855C1755.4 446.864 1755.32 446.864 1755.24 446.872C1755.15 446.881 1755.06 446.881 1754.96 446.881C1754.84 446.881 1754.73 446.889 1754.61 446.889C1750.04 432.333 1736.67 421.788 1720.89 421.788C1709.22 421.788 1698.86 427.553 1692.4 436.446V436.454C1690.77 438.688 1689.41 441.115 1688.33 443.695C1687.19 446.392 1686.38 449.249 1685.91 452.233C1685.43 455.394 1685.33 458.681 1685.7 462.052C1686.22 466.882 1687.71 471.442 1689.96 475.539C1691.02 477.46 1692.24 479.273 1693.61 480.967C1693.93 481.363 1694.27 481.759 1694.61 482.155C1695.6 483.268 1696.65 484.321 1697.77 485.308C1697.92 485.442 1698.07 485.569 1698.23 485.704C1698.36 485.822 1698.49 485.931 1698.63 486.041C1698.86 486.226 1699.08 486.403 1699.3 486.58C1699.43 486.681 1699.56 486.783 1699.68 486.875C1700.01 487.128 1700.34 487.381 1700.68 487.617C1700.85 487.744 1701.02 487.862 1701.19 487.971C1701.33 488.072 1701.48 488.173 1701.62 488.266C1701.64 488.275 1701.66 488.283 1701.67 488.3C1701.89 488.443 1702.1 488.578 1702.32 488.713C1702.64 488.924 1702.97 489.126 1703.31 489.32C1703.46 489.404 1703.6 489.488 1703.75 489.573C1703.8 489.606 1703.85 489.632 1703.91 489.665C1704.06 489.75 1704.21 489.834 1704.36 489.91C1704.38 489.927 1704.41 489.935 1704.42 489.952C1704.6 490.045 1704.77 490.137 1704.94 490.222C1705.32 490.415 1705.69 490.601 1706.07 490.778C1706.26 490.871 1706.45 490.955 1706.64 491.039C1706.83 491.132 1707.02 491.208 1707.21 491.292C1707.98 491.621 1708.76 491.933 1709.55 492.202C1709.72 492.261 1709.89 492.32 1710.06 492.371C1710.07 492.371 1710.08 492.379 1710.09 492.379C1710.12 492.396 1710.16 492.405 1710.19 492.413C1710.21 492.421 1710.22 492.43 1710.24 492.43C1710.41 492.489 1710.59 492.539 1710.75 492.59C1710.93 492.649 1711.11 492.7 1711.3 492.759C1711.35 492.775 1711.4 492.784 1711.45 492.801C1711.83 492.91 1712.21 493.003 1712.59 493.096C1712.8 493.146 1713.01 493.197 1713.21 493.239C1713.58 493.323 1713.96 493.399 1714.33 493.467C1714.35 493.475 1714.38 493.475 1714.4 493.484C1714.47 493.5 1714.53 493.509 1714.59 493.517C1714.61 493.517 1714.63 493.526 1714.64 493.526C1714.79 493.559 1714.95 493.585 1715.1 493.602C1715.31 493.635 1715.53 493.669 1715.74 493.703C1719.87 494.293 1723.88 494.158 1727.68 493.408C1728.18 493.315 1728.68 493.205 1729.16 493.079C1729.49 493.003 1729.82 492.919 1730.15 492.826C1731.44 492.472 1732.72 492.034 1733.95 491.536C1734.41 491.351 1734.87 491.149 1735.32 490.946C1735.47 490.879 1735.62 490.812 1735.77 490.736C1736.07 490.592 1736.37 490.449 1736.66 490.297C1737.1 490.078 1737.54 489.842 1737.97 489.598C1737.98 489.598 1737.99 489.589 1737.99 489.581C1738.27 489.421 1738.56 489.261 1738.84 489.092C1738.98 489.008 1739.12 488.924 1739.26 488.831C1739.54 488.662 1739.82 488.477 1740.09 488.291C1740.23 488.207 1740.36 488.114 1740.5 488.013C1740.65 487.921 1740.78 487.828 1740.91 487.735C1741 487.676 1741.08 487.617 1741.17 487.55C1741.49 487.33 1741.8 487.094 1742.11 486.858C1742.21 486.783 1742.31 486.715 1742.4 486.631C1742.71 486.386 1743.02 486.142 1743.32 485.881C1743.41 485.805 1743.5 485.729 1743.59 485.653C1743.73 485.535 1743.87 485.409 1744.02 485.291C1744.14 485.181 1744.26 485.072 1744.39 484.962C1744.51 484.852 1744.63 484.743 1744.75 484.625C1745.11 484.288 1745.47 483.942 1745.82 483.588C1745.93 483.479 1746.05 483.352 1746.16 483.234C1746.38 483.015 1746.58 482.796 1746.78 482.568C1746.91 482.425 1747.05 482.282 1747.17 482.138C1747.28 482.012 1747.39 481.894 1747.49 481.767C1747.81 481.388 1748.14 481.009 1748.44 480.621C1748.55 480.495 1748.65 480.36 1748.75 480.233C1748.86 480.099 1748.95 479.972 1749.05 479.837C1749.14 479.702 1749.24 479.568 1749.34 479.433C1749.44 479.298 1749.54 479.163 1749.63 479.028C1749.83 478.75 1750.01 478.48 1750.2 478.194C1750.38 477.924 1750.57 477.646 1750.74 477.368C1750.75 477.359 1750.75 477.351 1750.76 477.342C1750.82 477.233 1750.89 477.132 1750.95 477.022C1751.03 476.904 1751.09 476.786 1751.17 476.668C1751.22 476.592 1751.27 476.508 1751.31 476.424C1751.36 476.348 1751.4 476.263 1751.45 476.179C1751.56 476.002 1751.66 475.825 1751.75 475.64C1753.09 473.221 1755.52 471.653 1758.25 471.653H1773V471.695Z" fill="url(#paint67_linear_11103_11)"/>
<path d="M1758.23 471.689C1755.5 471.689 1753.07 473.257 1751.74 475.676C1751.64 475.853 1751.54 476.03 1751.43 476.215C1751.38 476.3 1751.34 476.375 1751.29 476.46C1751.24 476.544 1751.19 476.62 1751.15 476.704C1751.08 476.822 1751.01 476.94 1750.93 477.058C1750.87 477.168 1750.8 477.277 1750.74 477.378C1750.73 477.387 1750.73 477.395 1750.72 477.404C1750.55 477.682 1750.37 477.96 1750.18 478.23C1749.99 478.508 1749.8 478.786 1749.61 479.064C1749.52 479.199 1749.42 479.334 1749.32 479.469C1749.22 479.604 1749.13 479.738 1749.03 479.873C1748.93 480.008 1748.83 480.135 1748.73 480.269C1748.63 480.404 1748.53 480.531 1748.42 480.657C1748.12 481.045 1747.8 481.433 1747.47 481.804C1747.37 481.93 1747.26 482.056 1747.15 482.174C1747.03 482.318 1746.9 482.461 1746.76 482.604C1746.57 482.832 1746.36 483.051 1746.14 483.27C1746.04 483.388 1745.91 483.506 1745.8 483.624C1745.45 483.978 1745.09 484.324 1744.73 484.661C1744.62 484.779 1744.49 484.888 1744.37 484.998C1744.24 485.108 1744.12 485.226 1744 485.327C1743.86 485.453 1743.72 485.571 1743.57 485.689C1743.48 485.765 1743.39 485.841 1743.3 485.917C1743 486.17 1742.69 486.423 1742.38 486.667C1742.28 486.743 1742.19 486.819 1742.09 486.895C1741.78 487.131 1741.47 487.367 1741.15 487.586C1741.06 487.653 1740.98 487.712 1740.89 487.771C1740.76 487.872 1740.62 487.965 1740.49 488.049C1740.35 488.142 1740.21 488.235 1740.07 488.327C1739.8 488.513 1739.52 488.69 1739.24 488.867C1739.1 488.96 1738.96 489.044 1738.82 489.128C1738.54 489.297 1738.26 489.457 1737.97 489.617C1737.97 489.625 1737.96 489.625 1737.95 489.634C1737.52 489.878 1737.08 490.114 1736.64 490.333C1736.35 490.485 1736.05 490.629 1735.75 490.772C1735.6 490.848 1735.46 490.915 1735.3 490.983C1734.84 491.193 1734.39 491.387 1733.93 491.573C1732.7 492.078 1731.42 492.508 1730.13 492.862C1729.81 492.955 1729.47 493.039 1729.14 493.115C1728.65 493.241 1728.15 493.351 1727.66 493.444C1723.87 494.202 1719.85 494.329 1715.72 493.739C1715.51 493.705 1715.29 493.671 1715.09 493.638C1714.93 493.612 1714.78 493.587 1714.62 493.562C1714.61 493.562 1714.59 493.553 1714.57 493.553C1714.51 493.545 1714.45 493.536 1714.38 493.52C1714.36 493.511 1714.33 493.511 1714.31 493.503C1713.94 493.435 1713.57 493.359 1713.19 493.275C1712.99 493.233 1712.78 493.182 1712.57 493.132C1712.19 493.039 1711.81 492.938 1711.43 492.837C1711.39 492.82 1711.34 492.812 1711.29 492.795C1711.1 492.744 1710.91 492.685 1710.73 492.626C1710.56 492.576 1710.39 492.525 1710.22 492.466C1710.2 492.458 1710.19 492.449 1710.17 492.449C1710.14 492.441 1710.1 492.432 1710.07 492.415C1710.06 492.415 1710.05 492.407 1710.04 492.407C1709.87 492.356 1709.7 492.297 1709.53 492.238C1708.74 491.969 1707.96 491.665 1707.19 491.328C1707 491.252 1706.81 491.168 1706.62 491.075C1706.43 490.991 1706.24 490.907 1706.05 490.814C1705.67 490.637 1705.3 490.451 1704.93 490.258C1704.75 490.173 1704.58 490.081 1704.41 489.988C1704.38 489.979 1704.36 489.963 1704.34 489.946C1704.19 489.87 1704.04 489.786 1703.89 489.701C1703.84 489.668 1703.79 489.642 1703.73 489.609C1703.58 489.524 1703.43 489.44 1703.29 489.356C1702.96 489.162 1702.63 488.96 1702.3 488.749C1702.08 488.614 1701.87 488.479 1701.65 488.336C1701.64 488.327 1701.62 488.319 1701.61 488.302C1701.46 488.209 1701.32 488.108 1701.18 488.007C1701 487.889 1700.83 487.771 1700.66 487.653C1700.32 487.417 1699.99 487.164 1699.66 486.911C1699.53 486.819 1699.41 486.718 1699.28 486.616C1699.06 486.439 1698.84 486.262 1698.61 486.077C1698.47 485.967 1698.34 485.849 1698.21 485.74C1698.05 485.605 1697.9 485.479 1697.75 485.344C1696.63 484.357 1695.58 483.304 1694.59 482.191C1694.25 481.804 1693.91 481.407 1693.59 481.003C1692.22 479.309 1691 477.496 1689.94 475.575C1687.69 471.478 1686.2 466.918 1685.68 462.089C1685.32 458.717 1685.41 455.43 1685.89 452.269C1686.36 449.285 1687.17 446.428 1688.31 443.731C1689.4 441.151 1690.76 438.724 1692.38 436.49V436.482C1698.85 427.589 1709.2 421.816 1720.88 421.816C1736.66 421.816 1750.03 432.36 1754.6 446.917C1754.72 446.917 1754.83 446.917 1754.95 446.908C1755.04 446.908 1755.14 446.9 1755.23 446.9C1755.3 446.9 1755.39 446.891 1755.46 446.883C1755.66 446.866 1755.85 446.858 1756.04 446.832C1756.13 446.824 1756.21 446.816 1756.3 446.799C1756.35 446.79 1756.4 446.782 1756.45 446.782C1756.55 446.765 1756.65 446.757 1756.75 446.731C1756.83 446.714 1756.91 446.706 1756.98 446.689C1757.09 446.672 1757.2 446.647 1757.3 446.622C1757.65 446.546 1757.99 446.462 1758.32 446.36C1758.4 446.335 1758.48 446.31 1758.57 446.285C1758.69 446.242 1758.81 446.2 1758.94 446.158C1759.01 446.133 1759.08 446.108 1759.15 446.082C1759.64 445.888 1760.11 445.669 1760.57 445.425C1760.65 445.374 1760.73 445.332 1760.81 445.282C1760.89 445.239 1760.95 445.206 1761.02 445.164C1761.43 444.919 1761.83 444.641 1762.21 444.354C1762.28 444.295 1762.36 444.245 1762.43 444.186C1762.57 444.068 1762.72 443.95 1762.85 443.823C1762.93 443.764 1762.99 443.697 1763.06 443.638C1763.13 443.579 1763.2 443.511 1763.26 443.444C1763.39 443.318 1763.52 443.183 1763.65 443.048C1763.71 442.98 1763.77 442.913 1763.84 442.846C1763.9 442.778 1763.96 442.711 1764.02 442.643C1764.13 442.508 1764.25 442.365 1764.37 442.222C1764.37 442.222 1764.37 442.213 1764.37 442.213C1764.55 441.994 1764.71 441.775 1764.87 441.548C1764.92 441.472 1764.98 441.396 1765.03 441.32C1765.08 441.244 1765.13 441.168 1765.18 441.084C1765.23 441.008 1765.28 440.932 1765.33 440.848C1765.38 440.772 1765.43 440.688 1765.47 440.612C1765.57 440.452 1765.65 440.292 1765.75 440.132C1765.83 439.971 1765.91 439.803 1765.99 439.634C1766.15 439.297 1766.3 438.96 1766.43 438.614C1766.46 438.53 1766.5 438.446 1766.53 438.353C1766.56 438.269 1766.59 438.176 1766.62 438.092C1766.65 438.007 1766.68 437.915 1766.7 437.83C1766.76 437.653 1766.81 437.476 1766.86 437.291C1766.91 437.114 1766.95 436.929 1766.99 436.743C1767.01 436.65 1767.03 436.558 1767.05 436.473C1767.07 436.389 1767.08 436.296 1767.1 436.212C1767.1 436.204 1767.1 436.195 1767.11 436.195C1767.12 436.103 1767.13 436.018 1767.15 435.926C1767.17 435.774 1767.2 435.614 1767.22 435.454C1767.22 435.403 1767.22 435.352 1767.23 435.31C1767.25 435.175 1767.26 435.049 1767.27 434.914C1767.29 434.762 1767.3 434.602 1767.3 434.451C1767.31 434.265 1767.31 434.08 1767.31 433.894C1767.31 431.838 1766.84 429.73 1765.78 427.741C1765.72 427.632 1765.66 427.522 1765.6 427.412C1765.4 427.05 1765.18 426.688 1764.93 426.334C1764.75 426.072 1764.56 425.811 1764.37 425.55C1764.33 425.491 1764.29 425.432 1764.25 425.381C1764.12 425.204 1763.99 425.019 1763.85 424.842C1763.82 424.791 1763.78 424.749 1763.75 424.698C1763.71 424.648 1763.67 424.597 1763.64 424.555C1763.63 424.538 1763.62 424.53 1763.61 424.521C1763.42 424.269 1763.23 424.016 1763.03 423.763C1762.83 423.51 1762.63 423.257 1762.42 423.004C1762.4 422.979 1762.37 422.954 1762.36 422.928V422.92C1761.85 422.262 1761.33 421.639 1760.77 421.04C1760.76 421.023 1760.75 421.015 1760.74 421.007C1760.74 421.007 1760.74 421.007 1760.73 420.998C1760.67 420.939 1760.62 420.88 1760.57 420.83C1760.56 420.821 1760.55 420.813 1760.54 420.804C1758.71 418.764 1756.73 416.876 1754.62 415.14C1751.99 413.336 1748.43 411.524 1743.79 410.361C1743.76 410.353 1743.73 410.344 1743.7 410.344C1741.55 409.813 1739.16 409.417 1736.54 409.223C1724.61 408.186 1715.57 411.372 1715.57 411.372C1714.39 411.735 1713.23 412.139 1712.08 412.586C1711.52 412.805 1710.96 413.033 1710.42 413.277C1710.39 413.244 1710.37 413.26 1710.37 413.26C1692.25 421.217 1679.48 440.266 1679.48 462.518C1679.48 484.981 1692.49 504.19 1710.89 512.004C1714.12 512.619 1717.46 512.948 1720.88 512.948C1733.56 512.948 1745.2 508.472 1754.39 500.979C1763.39 493.654 1770.04 483.422 1773 471.689H1758.23Z" fill="url(#paint68_linear_11103_11)"/>
<path d="M1773 471.688H1758.23C1755.51 471.688 1753.08 473.255 1751.74 475.674C1746.58 485.03 1737.44 491.807 1726.66 493.619C1723.17 494.209 1719.5 494.277 1715.73 493.729C1708.93 492.751 1702.73 489.725 1697.74 485.317C1697.74 485.317 1698.77 486.514 1700.83 488.141C1700.99 488.259 1701.15 488.377 1701.32 488.503C1701.34 488.52 1701.37 488.545 1701.39 488.562C1703.06 489.7 1704.8 490.737 1706.61 491.681C1706.67 491.706 1706.72 491.731 1706.78 491.765C1706.95 491.858 1707.12 491.942 1707.3 492.018C1710.45 493.594 1713.81 494.85 1717.32 495.735C1717.33 495.735 1717.33 495.743 1717.34 495.743C1719.7 496.333 1722.12 496.763 1724.6 497.008C1726.54 497.201 1728.47 497.277 1730.37 497.244C1733.4 497.193 1736.37 496.864 1739.26 496.283C1739.32 496.274 1739.38 496.266 1739.44 496.257L1739.45 496.249C1753.7 493.341 1766 484.272 1773 471.688Z" fill="url(#paint69_linear_11103_11)"/>
<defs>
<filter id="filter0_f_11103_11" x="101.845" y="384.845" width="1059.86" height="666.145" filterUnits="userSpaceOnUse" color-interpolation-filters="sRGB">
<feFlood flood-opacity="0" result="BackgroundImageFix"/>
<feBlend mode="normal" in="SourceGraphic" in2="BackgroundImageFix" result="shape"/>
<feGaussianBlur stdDeviation="51.5773" result="effect1_foregroundBlur_11103_11"/>
</filter>
<filter id="filter1_f_11103_11" x="478.845" y="0.845436" width="666.309" height="436.309" filterUnits="userSpaceOnUse" color-interpolation-filters="sRGB">
<feFlood flood-opacity="0" result="BackgroundImageFix"/>
<feBlend mode="normal" in="SourceGraphic" in2="BackgroundImageFix" result="shape"/>
<feGaussianBlur stdDeviation="51.5773" result="effect1_foregroundBlur_11103_11"/>
</filter>
<filter id="filter2_f_11103_11" x="1044.32" y="455.263" width="1077.89" height="666.145" filterUnits="userSpaceOnUse" color-interpolation-filters="sRGB">
<feFlood flood-opacity="0" result="BackgroundImageFix"/>
<feBlend mode="normal" in="SourceGraphic" in2="BackgroundImageFix" result="shape"/>
<feGaussianBlur stdDeviation="51.5773" result="effect1_foregroundBlur_11103_11"/>
</filter>
<filter id="filter3_f_11103_11" x="1143.51" y="223.845" width="1059.86" height="666.145" filterUnits="userSpaceOnUse" color-interpolation-filters="sRGB">
<feFlood flood-opacity="0" result="BackgroundImageFix"/>
<feBlend mode="normal" in="SourceGraphic" in2="BackgroundImageFix" result="shape"/>
<feGaussianBlur stdDeviation="51.5773" result="effect1_foregroundBlur_11103_11"/>
</filter>
<linearGradient id="paint0_linear_11103_11" x1="1719.5" y1="279" x2="1719.5" y2="908" gradientUnits="userSpaceOnUse">
<stop stop-color="#003FFF"/>
<stop offset="1" stop-color="#022AA4" stop-opacity="0"/>
</linearGradient>
<linearGradient id="paint1_linear_11103_11" x1="325.984" y1="688.094" x2="325.984" y2="763.796" gradientUnits="userSpaceOnUse">
<stop stop-color="white"/>
<stop offset="1" stop-color="#BBBDC4" stop-opacity="0"/>
</linearGradient>
<linearGradient id="paint2_linear_11103_11" x1="386.143" y1="641.086" x2="386.143" y2="752.479" gradientUnits="userSpaceOnUse">
<stop stop-color="white"/>
<stop offset="1" stop-color="#BBBDC4" stop-opacity="0"/>
</linearGradient>
<linearGradient id="paint3_linear_11103_11" x1="264.393" y1="647.129" x2="264.393" y2="755.498" gradientUnits="userSpaceOnUse">
<stop stop-color="white"/>
<stop offset="1" stop-color="#BBBDC4" stop-opacity="0"/>
</linearGradient>
<linearGradient id="paint4_linear_11103_11" x1="317.3" y1="598" x2="317.3" y2="731.794" gradientUnits="userSpaceOnUse">
<stop stop-color="white"/>
<stop offset="1" stop-color="#BBBDC4" stop-opacity="0"/>
</linearGradient>
<linearGradient id="paint5_linear_11103_11" x1="1529.25" y1="586.997" x2="1529.25" y2="595.074" gradientUnits="userSpaceOnUse">
<stop stop-color="white"/>
<stop offset="1" stop-color="#999999"/>
</linearGradient>
<linearGradient id="paint6_linear_11103_11" x1="1529.25" y1="586.997" x2="1529.25" y2="595.074" gradientUnits="userSpaceOnUse">
<stop stop-color="white"/>
<stop offset="1" stop-color="#999999"/>
</linearGradient>
<linearGradient id="paint7_linear_11103_11" x1="1567.99" y1="587.001" x2="1567.99" y2="595.078" gradientUnits="userSpaceOnUse">
<stop stop-color="white"/>
<stop offset="1" stop-color="#999999"/>
</linearGradient>
<linearGradient id="paint8_linear_11103_11" x1="1567.99" y1="587.001" x2="1567.99" y2="595.078" gradientUnits="userSpaceOnUse">
<stop stop-color="white"/>
<stop offset="1" stop-color="#999999"/>
</linearGradient>
<linearGradient id="paint9_linear_11103_11" x1="1606.74" y1="587.001" x2="1606.74" y2="595.078" gradientUnits="userSpaceOnUse">
<stop stop-color="white"/>
<stop offset="1" stop-color="#999999"/>
</linearGradient>
<linearGradient id="paint10_linear_11103_11" x1="1606.74" y1="587.001" x2="1606.74" y2="595.078" gradientUnits="userSpaceOnUse">
<stop stop-color="white"/>
<stop offset="1" stop-color="#999999"/>
</linearGradient>
<linearGradient id="paint11_linear_11103_11" x1="1645.47" y1="586.997" x2="1645.47" y2="595.074" gradientUnits="userSpaceOnUse">
<stop stop-color="white"/>
<stop offset="1" stop-color="#999999"/>
</linearGradient>
<linearGradient id="paint12_linear_11103_11" x1="1645.47" y1="586.997" x2="1645.47" y2="595.074" gradientUnits="userSpaceOnUse">
<stop stop-color="white"/>
<stop offset="1" stop-color="#999999"/>
</linearGradient>
<linearGradient id="paint13_linear_11103_11" x1="1682.73" y1="587.527" x2="1685.8" y2="594.999" gradientUnits="userSpaceOnUse">
<stop stop-color="white"/>
<stop offset="1" stop-color="#999999"/>
</linearGradient>
<linearGradient id="paint14_linear_11103_11" x1="1682.73" y1="587.527" x2="1685.8" y2="594.999" gradientUnits="userSpaceOnUse">
<stop stop-color="white"/>
<stop offset="1" stop-color="#999999"/>
</linearGradient>
<linearGradient id="paint15_linear_11103_11" x1="1722.97" y1="587.001" x2="1722.97" y2="595.078" gradientUnits="userSpaceOnUse">
<stop stop-color="white"/>
<stop offset="1" stop-color="#999999"/>
</linearGradient>
<linearGradient id="paint16_linear_11103_11" x1="1722.97" y1="587.001" x2="1722.97" y2="595.078" gradientUnits="userSpaceOnUse">
<stop stop-color="white"/>
<stop offset="1" stop-color="#999999"/>
</linearGradient>
<linearGradient id="paint17_linear_11103_11" x1="1529.25" y1="622.54" x2="1529.25" y2="630.617" gradientUnits="userSpaceOnUse">
<stop stop-color="white"/>
<stop offset="1" stop-color="#999999"/>
</linearGradient>
<linearGradient id="paint18_linear_11103_11" x1="1529.25" y1="622.54" x2="1529.25" y2="630.617" gradientUnits="userSpaceOnUse">
<stop stop-color="white"/>
<stop offset="1" stop-color="#999999"/>
</linearGradient>
<linearGradient id="paint19_linear_11103_11" x1="1567.99" y1="622.54" x2="1567.99" y2="630.617" gradientUnits="userSpaceOnUse">
<stop stop-color="white"/>
<stop offset="1" stop-color="#999999"/>
</linearGradient>
<linearGradient id="paint20_linear_11103_11" x1="1567.99" y1="622.54" x2="1567.99" y2="630.617" gradientUnits="userSpaceOnUse">
<stop stop-color="white"/>
<stop offset="1" stop-color="#999999"/>
</linearGradient>
<linearGradient id="paint21_linear_11103_11" x1="1606.74" y1="622.54" x2="1606.74" y2="630.617" gradientUnits="userSpaceOnUse">
<stop stop-color="white"/>
<stop offset="1" stop-color="#999999"/>
</linearGradient>
<linearGradient id="paint22_linear_11103_11" x1="1606.74" y1="622.54" x2="1606.74" y2="630.617" gradientUnits="userSpaceOnUse">
<stop stop-color="white"/>
<stop offset="1" stop-color="#999999"/>
</linearGradient>
<linearGradient id="paint23_linear_11103_11" x1="1645.47" y1="622.54" x2="1645.47" y2="630.617" gradientUnits="userSpaceOnUse">
<stop stop-color="white"/>
<stop offset="1" stop-color="#999999"/>
</linearGradient>
<linearGradient id="paint24_linear_11103_11" x1="1645.47" y1="622.54" x2="1645.47" y2="630.617" gradientUnits="userSpaceOnUse">
<stop stop-color="white"/>
<stop offset="1" stop-color="#999999"/>
</linearGradient>
<linearGradient id="paint25_linear_11103_11" x1="1682.72" y1="623.066" x2="1685.79" y2="630.538" gradientUnits="userSpaceOnUse">
<stop stop-color="white"/>
<stop offset="1" stop-color="#999999"/>
</linearGradient>
<linearGradient id="paint26_linear_11103_11" x1="1682.72" y1="623.066" x2="1685.79" y2="630.538" gradientUnits="userSpaceOnUse">
<stop stop-color="white"/>
<stop offset="1" stop-color="#999999"/>
</linearGradient>
<linearGradient id="paint27_linear_11103_11" x1="1722.96" y1="622.54" x2="1722.96" y2="630.617" gradientUnits="userSpaceOnUse">
<stop stop-color="white"/>
<stop offset="1" stop-color="#999999"/>
</linearGradient>
<linearGradient id="paint28_linear_11103_11" x1="1722.96" y1="622.54" x2="1722.96" y2="630.617" gradientUnits="userSpaceOnUse">
<stop stop-color="white"/>
<stop offset="1" stop-color="#999999"/>
</linearGradient>
<linearGradient id="paint29_linear_11103_11" x1="1529.25" y1="656.458" x2="1529.25" y2="664.535" gradientUnits="userSpaceOnUse">
<stop stop-color="white"/>
<stop offset="1" stop-color="#999999"/>
</linearGradient>
<linearGradient id="paint30_linear_11103_11" x1="1529.25" y1="656.458" x2="1529.25" y2="664.535" gradientUnits="userSpaceOnUse">
<stop stop-color="white"/>
<stop offset="1" stop-color="#999999"/>
</linearGradient>
<linearGradient id="paint31_linear_11103_11" x1="1567.99" y1="656.462" x2="1567.99" y2="664.539" gradientUnits="userSpaceOnUse">
<stop stop-color="white"/>
<stop offset="1" stop-color="#999999"/>
</linearGradient>
<linearGradient id="paint32_linear_11103_11" x1="1567.99" y1="656.462" x2="1567.99" y2="664.539" gradientUnits="userSpaceOnUse">
<stop stop-color="white"/>
<stop offset="1" stop-color="#999999"/>
</linearGradient>
<linearGradient id="paint33_linear_11103_11" x1="1606.74" y1="656.458" x2="1606.74" y2="664.535" gradientUnits="userSpaceOnUse">
<stop stop-color="white"/>
<stop offset="1" stop-color="#999999"/>
</linearGradient>
<linearGradient id="paint34_linear_11103_11" x1="1606.74" y1="656.458" x2="1606.74" y2="664.535" gradientUnits="userSpaceOnUse">
<stop stop-color="white"/>
<stop offset="1" stop-color="#999999"/>
</linearGradient>
<linearGradient id="paint35_linear_11103_11" x1="1645.47" y1="656.462" x2="1645.47" y2="664.539" gradientUnits="userSpaceOnUse">
<stop stop-color="white"/>
<stop offset="1" stop-color="#999999"/>
</linearGradient>
<linearGradient id="paint36_linear_11103_11" x1="1645.47" y1="656.462" x2="1645.47" y2="664.539" gradientUnits="userSpaceOnUse">
<stop stop-color="white"/>
<stop offset="1" stop-color="#999999"/>
</linearGradient>
<linearGradient id="paint37_linear_11103_11" x1="1682.73" y1="656.987" x2="1685.8" y2="664.46" gradientUnits="userSpaceOnUse">
<stop stop-color="white"/>
<stop offset="1" stop-color="#999999"/>
</linearGradient>
<linearGradient id="paint38_linear_11103_11" x1="1682.73" y1="656.987" x2="1685.8" y2="664.46" gradientUnits="userSpaceOnUse">
<stop stop-color="white"/>
<stop offset="1" stop-color="#999999"/>
</linearGradient>
<linearGradient id="paint39_linear_11103_11" x1="1722.96" y1="656.462" x2="1722.96" y2="664.539" gradientUnits="userSpaceOnUse">
<stop stop-color="white"/>
<stop offset="1" stop-color="#999999"/>
</linearGradient>
<linearGradient id="paint40_linear_11103_11" x1="1722.96" y1="656.462" x2="1722.96" y2="664.539" gradientUnits="userSpaceOnUse">
<stop stop-color="white"/>
<stop offset="1" stop-color="#999999"/>
</linearGradient>
<linearGradient id="paint41_linear_11103_11" x1="1529.25" y1="691.997" x2="1529.25" y2="700.074" gradientUnits="userSpaceOnUse">
<stop stop-color="white"/>
<stop offset="1" stop-color="#999999"/>
</linearGradient>
<linearGradient id="paint42_linear_11103_11" x1="1529.25" y1="691.997" x2="1529.25" y2="700.074" gradientUnits="userSpaceOnUse">
<stop stop-color="white"/>
<stop offset="1" stop-color="#999999"/>
</linearGradient>
<linearGradient id="paint43_linear_11103_11" x1="1567.99" y1="692.001" x2="1567.99" y2="700.078" gradientUnits="userSpaceOnUse">
<stop stop-color="white"/>
<stop offset="1" stop-color="#999999"/>
</linearGradient>
<linearGradient id="paint44_linear_11103_11" x1="1567.99" y1="692.001" x2="1567.99" y2="700.078" gradientUnits="userSpaceOnUse">
<stop stop-color="white"/>
<stop offset="1" stop-color="#999999"/>
</linearGradient>
<linearGradient id="paint45_linear_11103_11" x1="1606.74" y1="692.001" x2="1606.74" y2="700.078" gradientUnits="userSpaceOnUse">
<stop stop-color="white"/>
<stop offset="1" stop-color="#999999"/>
</linearGradient>
<linearGradient id="paint46_linear_11103_11" x1="1606.74" y1="692.001" x2="1606.74" y2="700.078" gradientUnits="userSpaceOnUse">
<stop stop-color="white"/>
<stop offset="1" stop-color="#999999"/>
</linearGradient>
<linearGradient id="paint47_linear_11103_11" x1="1645.47" y1="692.001" x2="1645.47" y2="700.078" gradientUnits="userSpaceOnUse">
<stop stop-color="white"/>
<stop offset="1" stop-color="#999999"/>
</linearGradient>
<linearGradient id="paint48_linear_11103_11" x1="1645.47" y1="692.001" x2="1645.47" y2="700.078" gradientUnits="userSpaceOnUse">
<stop stop-color="white"/>
<stop offset="1" stop-color="#999999"/>
</linearGradient>
<linearGradient id="paint49_linear_11103_11" x1="1682.72" y1="690.913" x2="1685.79" y2="698.386" gradientUnits="userSpaceOnUse">
<stop stop-color="white"/>
<stop offset="1" stop-color="#999999"/>
</linearGradient>
<linearGradient id="paint50_linear_11103_11" x1="1682.72" y1="690.913" x2="1685.79" y2="698.386" gradientUnits="userSpaceOnUse">
<stop stop-color="white"/>
<stop offset="1" stop-color="#999999"/>
</linearGradient>
<linearGradient id="paint51_linear_11103_11" x1="1722.96" y1="692.001" x2="1722.96" y2="700.078" gradientUnits="userSpaceOnUse">
<stop stop-color="white"/>
<stop offset="1" stop-color="#999999"/>
</linearGradient>
<linearGradient id="paint52_linear_11103_11" x1="1722.96" y1="692.001" x2="1722.96" y2="700.078" gradientUnits="userSpaceOnUse">
<stop stop-color="white"/>
<stop offset="1" stop-color="#999999"/>
</linearGradient>
<linearGradient id="paint53_linear_11103_11" x1="1529.25" y1="725.923" x2="1529.25" y2="734" gradientUnits="userSpaceOnUse">
<stop stop-color="white"/>
<stop offset="1" stop-color="#999999"/>
</linearGradient>
<linearGradient id="paint54_linear_11103_11" x1="1529.25" y1="725.923" x2="1529.25" y2="734" gradientUnits="userSpaceOnUse">
<stop stop-color="white"/>
<stop offset="1" stop-color="#999999"/>
</linearGradient>
<linearGradient id="paint55_linear_11103_11" x1="1567.99" y1="725.923" x2="1567.99" y2="734" gradientUnits="userSpaceOnUse">
<stop stop-color="white"/>
<stop offset="1" stop-color="#999999"/>
</linearGradient>
<linearGradient id="paint56_linear_11103_11" x1="1567.99" y1="725.923" x2="1567.99" y2="734" gradientUnits="userSpaceOnUse">
<stop stop-color="white"/>
<stop offset="1" stop-color="#999999"/>
</linearGradient>
<linearGradient id="paint57_linear_11103_11" x1="1606.74" y1="725.923" x2="1606.74" y2="734" gradientUnits="userSpaceOnUse">
<stop stop-color="white"/>
<stop offset="1" stop-color="#999999"/>
</linearGradient>
<linearGradient id="paint58_linear_11103_11" x1="1606.74" y1="725.923" x2="1606.74" y2="734" gradientUnits="userSpaceOnUse">
<stop stop-color="white"/>
<stop offset="1" stop-color="#999999"/>
</linearGradient>
<linearGradient id="paint59_linear_11103_11" x1="1645.47" y1="725.923" x2="1645.47" y2="734" gradientUnits="userSpaceOnUse">
<stop stop-color="white"/>
<stop offset="1" stop-color="#999999"/>
</linearGradient>
<linearGradient id="paint60_linear_11103_11" x1="1645.47" y1="725.923" x2="1645.47" y2="734" gradientUnits="userSpaceOnUse">
<stop stop-color="white"/>
<stop offset="1" stop-color="#999999"/>
</linearGradient>
<linearGradient id="paint61_linear_11103_11" x1="1682.73" y1="726.448" x2="1685.8" y2="733.921" gradientUnits="userSpaceOnUse">
<stop stop-color="white"/>
<stop offset="1" stop-color="#999999"/>
</linearGradient>
<linearGradient id="paint62_linear_11103_11" x1="1682.73" y1="726.448" x2="1685.8" y2="733.921" gradientUnits="userSpaceOnUse">
<stop stop-color="white"/>
<stop offset="1" stop-color="#999999"/>
</linearGradient>
<linearGradient id="paint63_linear_11103_11" x1="1722.96" y1="725.923" x2="1722.96" y2="734" gradientUnits="userSpaceOnUse">
<stop stop-color="white"/>
<stop offset="1" stop-color="#999999"/>
</linearGradient>
<linearGradient id="paint64_linear_11103_11" x1="1722.96" y1="725.923" x2="1722.96" y2="734" gradientUnits="userSpaceOnUse">
<stop stop-color="white"/>
<stop offset="1" stop-color="#999999"/>
</linearGradient>
<linearGradient id="paint65_linear_11103_11" x1="707.424" y1="437.257" x2="120.125" y2="662.47" gradientUnits="userSpaceOnUse">
<stop stop-color="#003FFF"/>
<stop offset="1" stop-color="#022AA4" stop-opacity="0"/>
</linearGradient>
<linearGradient id="paint66_linear_11103_11" x1="1726.82" y1="435.832" x2="1726.82" y2="480.109" gradientUnits="userSpaceOnUse">
<stop offset="0.566406" stop-color="#FFFFFD" stop-opacity="0.27"/>
<stop offset="1" stop-color="#2D2D2E" stop-opacity="0.37"/>
</linearGradient>
<linearGradient id="paint67_linear_11103_11" x1="1720" y1="403" x2="1720" y2="512.954" gradientUnits="userSpaceOnUse">
<stop offset="0.196406" stop-color="#FFFFFD" stop-opacity="0.05"/>
<stop offset="1" stop-color="#6F727A" stop-opacity="0.08"/>
</linearGradient>
<linearGradient id="paint68_linear_11103_11" x1="1726.24" y1="409.016" x2="1726.24" y2="512.948" gradientUnits="userSpaceOnUse">
<stop offset="0.196406" stop-color="#FFFFFD" stop-opacity="0.05"/>
<stop offset="1" stop-color="#6F727A" stop-opacity="0.08"/>
</linearGradient>
<linearGradient id="paint69_linear_11103_11" x1="1735.37" y1="471.688" x2="1735.37" y2="497.251" gradientUnits="userSpaceOnUse">
<stop offset="0.196406" stop-color="#FFFFFD" stop-opacity="0.05"/>
<stop offset="1" stop-color="#2D2D2E" stop-opacity="0.24"/>
</linearGradient>
<clipPath id="clip0_11103_11">
<rect width="206" height="147" fill="white" transform="translate(1727 734) rotate(-180)"/>
</clipPath>
</defs>
</svg>
