<svg width="407" height="407" viewBox="0 0 407 407" fill="none" xmlns="http://www.w3.org/2000/svg">
<path d="M134.27 309.152C103.938 265.946 113.941 209.864 132.806 163.053C135.975 155.248 138.15 146.614 144.437 141.023C150.723 135.432 161.411 133.963 167.124 139.82C171.997 144.724 172.073 152.415 173.295 159.336C174.93 168.476 179.126 176.964 185.396 183.817C189.468 188.25 195.139 192.149 201.105 191.191C209.305 189.93 213.538 180.786 216.378 172.897L232.116 128.834C234.527 120.797 238.209 113.198 243.022 106.324C245.443 102.924 248.648 100.159 252.367 98.2617C256.086 96.3647 260.208 95.3927 264.383 95.4281C272.616 96.0509 280.334 103.718 279.078 112.003C278.201 115.366 277.094 118.666 275.766 121.878C275.106 123.486 274.943 125.254 275.298 126.954C275.654 128.655 276.512 130.21 277.76 131.419C280.603 133.497 284.592 132.431 287.714 130.977C298.539 125.448 308.378 118.176 316.838 109.451C325.311 100.75 334.779 93.0755 345.047 86.5851C355.582 80.5983 368.253 77.4403 379.768 80.9127C391.283 84.3851 400.75 95.7467 399.561 107.798C398.372 119.85 387.865 128.724 377.497 135.24C362.19 144.792 345.577 152.075 328.177 156.861C324.951 157.385 321.968 158.903 319.646 161.202C316.008 165.85 319.004 172.841 323.654 176.477C328.828 180.555 335.405 182.266 341.273 185.23C347.141 188.193 352.736 193.288 353.013 199.937C353.25 209.162 343.507 215.149 334.881 218.269C317.604 224.498 299.384 227.71 281.017 227.766C274.452 227.235 267.846 227.915 261.528 229.773C255.374 232.138 249.995 238.203 250.777 244.748C251.559 251.293 258.189 255.721 264.665 256.82C271.141 257.918 277.78 256.593 284.332 256.496C296.653 256.376 310.339 262.186 313.916 274.102C314.864 278.086 314.873 282.235 313.944 286.223C313.015 290.211 311.173 293.929 308.562 297.085C303.281 303.327 296.81 308.456 289.525 312.173C264.884 326.51 236.876 334.056 208.363 334.039C180.081 333.601 155.99 327.493 134.363 309.294" fill="url(#paint0_linear_9107_2)" fill-opacity="0.3"/>
<path d="M120.826 344.049C131.041 322.882 143.265 302.742 157.33 283.908C174.621 260.96 193.209 239.018 213.005 218.189C218.223 212.63 223.379 207.143 228.473 201.73C233.554 196.384 238.603 191.027 243.877 186.039C254.005 176.607 264.643 167.736 275.741 159.466C286.277 151.501 296.599 144.322 306.253 137.69C315.906 131.059 325.242 125.103 333.678 119.935C347.181 111.811 361.297 104.753 375.899 98.8246C381.083 96.7539 385.127 95.24 387.893 94.2683L391.058 93.19L392.148 92.8672C391.815 93.0563 391.467 93.2183 391.107 93.3518L387.991 94.5919C385.265 95.6503 381.241 97.2074 376.119 99.4081C361.635 105.507 347.632 112.688 334.229 120.892C325.73 126.036 316.617 132.073 306.983 138.748C297.35 145.422 287.092 152.625 276.587 160.602C265.545 168.867 254.968 177.737 244.906 187.169C239.698 192.073 234.704 197.378 229.6 202.788C224.495 208.197 219.357 213.702 214.131 219.247C194.388 240.036 175.824 261.913 158.526 284.775C144.471 303.511 132.199 323.519 121.871 344.538" fill="#E0E0E0" fill-opacity="0.4"/>
<path d="M244.315 186.121C244.334 184.959 244.467 183.802 244.71 182.667C245.096 180.325 245.766 177.007 246.629 172.86C248.365 164.641 251.149 153.35 254.286 140.893C257.423 128.435 260.057 117.161 261.666 108.896C262.474 104.802 263.124 101.44 263.53 99.1414C263.663 97.9291 263.93 96.7351 264.324 95.5808C264.395 96.7619 264.337 97.9473 264.151 99.1158C263.904 101.472 263.469 104.84 262.775 109.013C261.433 117.338 258.978 128.713 255.841 141.171C252.704 153.628 249.877 164.544 247.823 173.042C246.881 176.909 246.064 180.137 245.447 182.719C245.215 183.896 244.835 185.039 244.315 186.121Z" fill="#E0E0E0" fill-opacity="0.4"/>
<path d="M352.437 204.079C351.003 203.89 349.59 203.568 348.215 203.117C345.528 202.391 341.662 201.343 336.824 200.194C327.184 197.8 313.768 195.002 298.822 192.547C283.876 190.092 270.244 188.476 260.349 187.572C255.407 187.104 251.402 186.833 248.636 186.618C247.184 186.586 245.738 186.421 244.316 186.124C245.753 185.967 247.2 185.928 248.642 186.008C251.446 186.021 255.466 186.154 260.454 186.494C270.389 187.089 284.079 188.547 299.1 190.993C311.898 193.058 324.581 195.778 337.099 199.143C341.922 200.431 345.762 201.649 348.38 202.566C349.778 202.94 351.136 203.446 352.437 204.079Z" fill="#E0E0E0" fill-opacity="0.4"/>
<path d="M159.351 282.519C159.207 282.033 159.123 281.531 159.103 281.025C159.017 279.879 158.885 278.464 158.718 276.748C158.382 273.028 158.05 267.618 157.722 260.915C157.073 247.583 156.728 229.072 156.639 208.676C156.55 188.28 156.419 169.776 156.028 156.43C155.844 149.923 155.671 144.571 155.534 140.6L155.407 136.308C155.375 135.801 155.403 135.292 155.491 134.792C155.635 135.277 155.719 135.779 155.739 136.285C155.857 137.443 155.989 138.859 156.124 140.563C156.46 144.283 156.792 149.692 157.12 156.396C157.769 169.728 158.113 188.238 158.203 208.634C158.292 229.03 158.423 247.534 158.814 260.881C159.03 267.399 159.171 272.739 159.308 276.711L159.435 281.003C159.345 281.941 159.362 282.487 159.351 282.519Z" fill="#E0E0E0" fill-opacity="0.4"/>
<path d="M309.555 288.129C309.048 288.237 308.528 288.266 308.012 288.215L303.628 288.094L287.527 287.521C273.918 287.028 255.162 286.532 234.348 286.15C213.534 285.769 194.784 285.059 181.204 284.289C174.398 283.898 168.954 283.427 165.107 283.214L160.752 282.815C160.233 282.812 159.718 282.722 159.229 282.549C159.735 282.463 160.25 282.445 160.761 282.495L165.145 282.616L181.245 283.188C194.854 283.681 213.61 284.177 234.424 284.559C255.238 284.941 273.977 285.682 287.569 286.421C294.374 286.812 299.819 287.283 303.654 287.528L308.009 287.926C308.53 287.942 309.048 288.01 309.555 288.129Z" fill="#E0E0E0" fill-opacity="0.4"/>
<path d="M152.482 123.256C150.497 133.518 160.635 139.924 168.204 140.167C175.756 139.727 183.065 137.341 189.42 133.242C204.465 124.973 220.38 116.492 230.029 102.21C233.032 98.0659 234.847 93.1828 235.281 88.0853C235.447 85.5228 234.939 82.9616 233.809 80.6555C232.679 78.3494 230.966 76.3784 228.839 74.9378C223.625 71.7808 216.93 73.1543 211.157 75.087C194.167 80.7039 178.624 89.9928 165.633 102.293C159.224 107.755 154.599 115.012 152.355 123.126" fill="url(#paint1_linear_9107_2)" fill-opacity="0.3"/>
<g opacity="0.2">
<path d="M152.482 123.255C150.497 133.517 160.636 139.923 168.204 140.166C175.756 139.727 183.065 137.341 189.421 133.241C204.466 124.972 220.38 116.492 230.029 102.21C233.032 98.0658 234.847 93.1828 235.281 88.0852C235.446 85.5227 234.939 82.9615 233.809 80.6554C232.679 78.3492 230.965 76.3782 228.838 74.9376C223.624 71.7805 216.93 73.154 211.157 75.0866C194.167 80.7034 178.624 89.9922 165.633 102.292C159.223 107.754 154.599 115.011 152.355 123.125" fill="url(#paint2_linear_9107_2)"/>
</g>
<path d="M136.956 169.638C147.363 173.571 156.23 180.742 162.25 190.093C166.031 194.739 168.146 200.517 168.257 206.504C168.156 209.47 166.909 212.282 164.778 214.348C162.647 216.414 159.797 217.575 156.827 217.586C153.344 216.873 150.225 214.952 148.022 212.162C142.051 206.011 136.525 198.04 128.17 196.791C123.336 196.045 118.051 197.568 113.917 195.133C111.903 193.839 110.368 191.923 109.544 189.676C108.721 187.429 108.655 184.975 109.357 182.687C110.87 178.11 114.088 174.289 118.343 172.018C121.058 170.229 124.147 169.084 127.373 168.672C130.599 168.26 133.877 168.59 136.956 169.638Z" fill="url(#paint3_linear_9107_2)" fill-opacity="0.3"/>
<path d="M132.126 119.993C137.174 119.397 142.001 117.58 146.187 114.699C150.374 111.817 153.794 107.96 156.152 103.459C160.772 94.3918 162.803 84.227 162.02 74.0817C161.545 62.1606 158.758 50.4451 153.816 39.5853C152.057 35.2778 149.391 31.399 145.999 28.2126C144.269 26.6241 142.176 25.4834 139.903 24.89C137.63 24.2967 135.246 24.2687 132.96 24.8088C126.353 26.7287 123.191 34.28 121.136 40.6936C117.561 52.3326 114.913 64.236 113.217 76.2925C111.164 85.9131 111.778 95.9111 114.992 105.209C118.803 114.148 125.762 120.73 133.701 119.792" fill="url(#paint4_linear_9107_2)" fill-opacity="0.3"/>
<path d="M59.2945 213.026C60.4185 212.343 61.4821 211.565 62.4741 210.701C64.6826 208.939 67.4763 206.673 70.8216 203.998C74.1669 201.323 78.6767 198.025 83.6978 194.863C89.1751 191.487 94.9172 188.561 100.868 186.113C106.784 183.643 113.019 182.021 119.39 181.295C124.573 180.676 129.83 181.238 134.766 182.939C138.092 184.101 141.209 185.794 143.994 187.952C144.95 188.833 145.979 189.632 147.07 190.339C146.269 189.29 145.347 188.34 144.322 187.508C141.605 185.112 138.483 183.219 135.102 181.918C130.027 180.011 124.581 179.303 119.187 179.849C112.647 180.513 106.243 182.145 100.183 184.692C94.1415 187.177 88.3303 190.19 82.8173 193.695C78.3719 196.603 74.1025 199.772 70.0318 203.185C66.5543 206.114 63.8545 208.542 61.9993 210.277C60.9945 211.086 60.0868 212.008 59.2945 213.026Z" fill="#E0E0E0" fill-opacity="0.4"/>
<path d="M65.6294 207.891C66.1075 207.518 66.5442 207.094 66.9319 206.628L70.6442 203.029C73.9005 199.872 78.5572 195.357 84.479 189.932C96.2583 179.081 113.13 164.619 132.544 149.65C151.957 134.682 170.118 121.939 183.628 113.326C186.998 111.133 190.075 109.224 192.828 107.566C195.58 105.908 197.879 104.5 199.822 103.375L204.289 100.75C204.824 100.474 205.324 100.138 205.78 99.7461C205.202 99.9084 204.648 100.148 204.133 100.459C202.904 101.081 201.385 101.86 199.541 102.826C197.698 103.792 195.142 105.196 192.358 106.821C189.574 108.447 186.434 110.227 183.033 112.387C165.23 123.461 148.039 135.489 131.535 148.417C112.185 163.45 95.3756 178.041 83.7523 189.184C77.9885 194.772 73.2993 199.318 70.2651 202.638C68.7671 204.091 67.6878 205.453 66.774 206.465C66.3422 206.898 65.9584 207.376 65.6294 207.891Z" fill="#E0E0E0" fill-opacity="0.4"/>
<path d="M96.4594 178.126C97.8585 176.99 99.1551 175.732 100.334 174.369C102.842 171.939 105.983 167.946 109.715 163.001C114.104 157.187 118.17 151.137 121.894 144.877C126.377 137.139 130.316 129.099 133.681 120.815C140.218 105.88 143.962 89.8753 144.728 73.5923C144.856 70.7914 144.812 67.9852 144.599 65.1896C144.489 63.9695 144.475 62.783 144.362 61.7553L143.86 58.894C143.668 57.106 143.308 55.3399 142.785 53.6193C143.499 60.2352 143.773 66.8911 143.606 73.5432C142.48 89.6741 138.593 105.492 132.116 120.31C128.758 128.519 124.875 136.503 120.492 144.214C116.927 150.526 113.043 156.653 108.855 162.571C105.282 167.615 102.142 171.543 99.9199 174.203C98.6918 175.443 97.5364 176.753 96.4594 178.126Z" fill="#E0E0E0" fill-opacity="0.4"/>
<defs>
<linearGradient id="paint0_linear_9107_2" x1="295.659" y1="394.947" x2="26.1066" y2="189.66" gradientUnits="userSpaceOnUse">
<stop stop-color="white"/>
<stop offset="1" stop-color="#FF5CD1"/>
</linearGradient>
<linearGradient id="paint1_linear_9107_2" x1="172.216" y1="159.929" x2="134.838" y2="102.059" gradientUnits="userSpaceOnUse">
<stop stop-color="white"/>
<stop offset="1" stop-color="#FF5CD1"/>
</linearGradient>
<linearGradient id="paint2_linear_9107_2" x1="172.216" y1="159.928" x2="134.839" y2="102.057" gradientUnits="userSpaceOnUse">
<stop stop-color="white"/>
<stop offset="1" stop-color="#FF5CD1"/>
</linearGradient>
<linearGradient id="paint3_linear_9107_2" x1="146.201" y1="232.358" x2="130.845" y2="152.856" gradientUnits="userSpaceOnUse">
<stop stop-color="white"/>
<stop offset="1" stop-color="#FF5CD1"/>
</linearGradient>
<linearGradient id="paint4_linear_9107_2" x1="130.077" y1="130.925" x2="88.8485" y2="32.0021" gradientUnits="userSpaceOnUse">
<stop stop-color="white"/>
<stop offset="1" stop-color="#FF5CD1"/>
</linearGradient>
</defs>
</svg>
