<svg width="246" height="507" viewBox="0 0 246 507" fill="none" xmlns="http://www.w3.org/2000/svg">
<path d="M185.464 457.656H177.434V461.974H185.464V457.656Z" fill="#E0E0E0"/>
<path d="M182.715 348.84H164.169V440.756H182.715V348.84Z" fill="#EBEBEB"/>
<path d="M215.527 353.687H128.481C124.034 353.687 119.769 351.921 116.624 348.779C113.48 345.636 111.713 341.374 111.713 336.93C111.712 334.729 112.144 332.548 112.986 330.514C113.828 328.479 115.062 326.63 116.62 325.073C118.177 323.515 120.026 322.28 122.061 321.437C124.096 320.594 126.278 320.16 128.481 320.16H215.527C217.73 320.16 219.912 320.594 221.947 321.437C223.982 322.28 225.831 323.515 227.389 325.073C228.946 326.63 230.181 328.479 231.022 330.514C231.864 332.548 232.297 334.729 232.295 336.93C232.295 339.131 231.861 341.31 231.018 343.343C230.176 345.376 228.941 347.223 227.384 348.779C225.827 350.335 223.978 351.569 221.944 352.411C219.91 353.253 217.729 353.687 215.527 353.687Z" fill="#455A64"/>
<path d="M179.38 440.762H167.628V506.01H179.38V440.762Z" fill="#E0E0E0"/>
<path d="M126.37 506.137C124.064 506.429 225.405 506.137 225.405 506.137C225.405 506.137 182.173 501.306 179.381 474.332H167.629C167.629 474.332 164.67 501.264 126.37 506.137Z" fill="#E0E0E0"/>
<path d="M218.971 353.689C218.971 353.884 198.841 354.05 174.017 354.05C149.192 354.05 129.062 353.884 129.062 353.689C129.062 353.495 149.192 353.328 174.017 353.328C198.841 353.328 218.971 353.495 218.971 353.689Z" fill="#263238"/>
<path d="M182.7 440.818C176.477 441.299 170.225 441.299 164.002 440.818C170.23 440.337 176.486 440.337 182.714 440.818H182.7Z" fill="#263238"/>
<path d="M185.465 466.798C184.837 466.798 184.235 466.55 183.79 466.108C183.345 465.666 183.093 465.065 183.089 464.438V455.179C183.093 454.55 183.344 453.948 183.789 453.504C184.234 453.06 184.836 452.808 185.465 452.805C186.094 452.808 186.696 453.06 187.141 453.504C187.585 453.948 187.837 454.55 187.84 455.179V464.41C187.842 464.723 187.782 465.034 187.664 465.323C187.545 465.613 187.37 465.876 187.15 466.098C186.929 466.32 186.666 466.496 186.377 466.616C186.088 466.736 185.778 466.798 185.465 466.798Z" fill="#E0E0E0"/>
<path d="M0.243164 86.3913C0.243164 86.3913 4.31349 81.935 5.54986 81.8378C6.78624 81.7406 19.4417 85.5305 19.4417 85.5305C20.9091 85.8084 22.2785 86.4639 23.4148 87.4324C24.5539 88.8207 37.0705 102.356 37.0705 102.356L23.1786 114.601C23.1786 114.601 6.86958 111.671 5.45261 109.964C4.03564 108.256 2.89651 105.521 3.9384 104.661C3.23649 103.46 2.90768 102.078 2.99377 100.69C3.22197 99.7127 3.50486 98.7487 3.84115 97.8027C3.84115 97.8027 1.3823 96.0397 1.28505 94.818C1.25511 94.159 1.09457 93.5125 0.812735 92.9161L0.243164 91.9721V86.3913Z" fill="#FFBE9D"/>
<path d="M5.92495 89.0445C5.99441 89.0445 5.92494 89.4749 5.70267 90.0996C5.3829 90.9338 4.85153 91.6706 4.1607 92.2375C3.79667 92.5189 3.37589 92.7179 2.9274 92.821C2.4789 92.9241 2.01337 92.9286 1.56293 92.8345C0.868333 92.654 0.590491 92.2792 0.646058 92.2375C0.701626 92.1959 1.03502 92.3763 1.63237 92.4319C2.41457 92.4682 3.18524 92.2327 3.8134 91.7655C4.42747 91.2483 4.94079 90.6224 5.32761 89.9191C5.63323 89.3638 5.8416 89.0168 5.92495 89.0445Z" fill="#EB996E"/>
<path d="M28.942 96.0001L22.3017 91.8353L5.29809 82.8672C5.29809 82.8672 1.92236 86.1435 7.63191 90.8635L14.6612 96.4166C14.6612 96.4166 20.9125 107.87 22.2461 108.703C24.683 109.853 27.1776 110.877 29.72 111.771L28.942 96.0001Z" fill="#FFBE9D"/>
<path d="M30.375 112.089C30.1417 112.073 29.9121 112.022 29.6944 111.936C29.2498 111.811 28.5969 111.631 27.7634 111.339C26.9299 111.048 25.9297 110.701 24.7905 110.187C24.1802 109.922 23.5864 109.621 23.0124 109.285C22.3423 108.907 21.7562 108.397 21.2898 107.785C19.1595 104.805 17.2424 101.678 15.5525 98.4284L14.7745 97.0402C14.519 96.6027 14.179 96.2205 13.7743 95.9157C12.9824 95.2215 12.0934 94.5274 11.2182 93.8611C9.33175 92.4967 7.52734 91.0226 5.81426 89.4464C4.87846 88.5774 4.27083 87.4127 4.09372 86.1485C3.9166 84.8842 4.18079 83.5975 4.84181 82.5051L4.98074 82.2969L5.21692 82.4357C12.01 86.2673 17.8724 89.7657 22.3039 91.8203C24.4571 93.0003 26.0964 94.0554 27.2216 94.7634L28.5135 95.6103C28.6667 95.7083 28.8108 95.8199 28.9442 95.9434C28.7729 95.8854 28.6095 95.8061 28.458 95.7074L27.0688 94.9439C25.9019 94.2775 24.2209 93.2641 22.0677 92.1674C17.5945 90.2099 11.6766 86.7532 4.88349 82.9494L5.24469 82.8661C4.66491 83.8075 4.44765 84.9276 4.63344 86.0174C4.81857 87.1624 5.35781 88.2207 6.17546 89.0438C7.87788 90.587 9.65837 92.042 11.5099 93.4029C12.399 94.0971 13.2742 94.7912 14.0938 95.4853C14.3031 95.669 14.5025 95.8636 14.6911 96.0684C14.8874 96.2752 15.0599 96.5034 15.2052 96.7486C15.4552 97.2206 15.7191 97.6649 15.9692 98.1369C17.614 101.374 19.4702 104.5 21.5259 107.494C22.4147 108.546 23.5507 109.362 24.8322 109.868C25.9436 110.395 26.9299 110.784 27.7495 111.103L29.6249 111.797C29.8808 111.879 30.1314 111.976 30.375 112.089Z" fill="#EB996E"/>
<path d="M213.793 63.681C213.557 59.5162 213.043 39.4975 212.792 36.4434C212.538 32.2713 210.74 28.3428 207.75 25.4206C204.721 22.6441 200.012 21.3947 196.303 23.2133C195.096 23.5199 193.991 24.1398 193.101 25.01C192.21 25.8803 191.566 26.9702 191.232 28.1694C182.786 58.1835 184.12 90.1412 180.383 121.183C191.413 122.973 206.249 122.238 217.405 121.655C217.405 96.8742 215.307 90.4466 213.793 63.681Z" fill="#263238"/>
<path d="M209.136 106.01C209.073 105.746 209.045 105.476 209.052 105.205C209.052 104.594 208.983 103.816 208.941 102.9C208.872 100.804 208.788 97.9302 208.677 94.4318C208.524 87.1989 208.316 77.3562 208.094 66.4861C208.01 61.0442 207.927 55.8521 207.857 51.1042C207.857 48.7442 207.857 46.4952 207.774 44.399C207.812 42.4612 207.678 40.5238 207.371 38.6099C207.2 37.2323 206.727 35.9095 205.985 34.736C205.242 33.5625 204.25 32.5672 203.079 31.8214C202.178 31.3382 201.192 31.0363 200.175 30.9329H200.37C200.573 30.913 200.778 30.913 200.981 30.9329C201.763 30.9983 202.523 31.2202 203.218 31.5854C204.315 32.1814 205.265 33.0165 205.996 34.0287C206.949 35.3709 207.594 36.9067 207.885 38.5266C208.22 40.466 208.382 42.431 208.371 44.399C208.371 46.5091 208.469 48.7442 208.524 51.1042C208.622 55.8521 208.719 61.0442 208.816 66.5C208.969 77.3562 209.094 87.1989 209.191 94.4318C209.191 97.9441 209.191 100.804 209.191 102.914C209.191 103.844 209.191 104.608 209.191 105.219C209.204 105.484 209.186 105.749 209.136 106.01Z" fill="#455A64"/>
<path d="M199.11 94.6279C199.008 94.032 198.966 93.4274 198.985 92.8232C198.985 91.6571 198.916 89.9634 198.916 87.881C198.916 83.7162 198.999 77.9688 199.152 71.6245C199.304 65.2802 199.485 59.6716 199.61 55.3541C199.61 53.3967 199.721 51.7447 199.777 50.4397C199.766 49.8305 199.812 49.2216 199.916 48.6211C200.029 49.2204 200.075 49.8303 200.055 50.4397C200.055 51.6059 200.055 53.2162 200.124 55.368C200.124 59.5328 200.041 65.2802 199.874 71.6384C199.707 77.9966 199.541 83.5774 199.43 87.8949C199.36 89.8523 199.304 91.5044 199.263 92.8232C199.275 93.4284 199.223 94.0333 199.11 94.6279Z" fill="#455A64"/>
<path d="M162.262 0.126384C170.597 -0.734335 177.543 2.9029 184.128 7.94228C190.723 13.1321 195.571 20.2147 198.02 28.2386C200.645 36.5681 200.687 48.4377 197.7 56.6701C196.364 60.5683 194.101 64.0841 191.105 66.9157C188.109 69.7472 184.471 71.8099 180.502 72.9266C168.986 76.1751 156.011 74.8563 146.953 67.0404C137.896 59.2245 133.242 46.9662 133.561 35.0133C133.665 26.7053 136.387 18.6414 141.341 11.9682C143.832 8.67401 146.975 5.92756 150.574 3.89984C154.174 1.87212 158.152 0.606539 162.262 0.181916" fill="#263238"/>
<path d="M183.73 29.4574C182.73 26.2505 183.424 22.7799 183.174 19.4342C182.604 12.0625 177.103 5.82927 170.477 2.52522C164.309 -0.528949 156.585 -0.459541 148.75 1.51178C143.345 2.76651 138.41 5.53563 134.525 9.49426C132.044 12.1934 130.244 15.4466 129.278 18.9823C128.311 22.5179 128.205 26.2333 128.968 29.8183L166.712 26.8197C170.018 29.9433 173.422 33.1224 177.562 35.0104C178.752 35.6318 180.082 35.9377 181.424 35.8989C182.091 35.8608 182.733 35.6327 183.275 35.2416C183.816 34.8505 184.234 34.3126 184.48 33.6916C184.841 32.2894 184.16 30.8457 183.73 29.4574Z" fill="#263238"/>
<path d="M147.332 11.8445L179.519 20.8959C181.035 21.0961 182.42 21.8578 183.4 23.0302C184.38 24.2027 184.884 25.7003 184.812 27.2264L179.797 97.7915C179.46 102.617 177.536 107.195 174.324 110.813L170.948 114.576C163.252 123.252 148.929 121.392 144.178 110.813C143.89 110.208 143.68 109.569 143.553 108.911C143.456 108.379 143.386 107.841 143.345 107.301C143.015 103.729 143.061 100.132 143.484 96.5698C143.581 90.2671 143.65 87.685 143.636 87.7405C143.623 87.796 130.398 85.1861 128.092 67.7496C126.952 59.0869 127.772 44.9544 128.8 33.4041C129.675 22.9505 136.927 10.4562 147.332 11.8445Z" fill="#FFBE9D"/>
<path d="M132.843 46.9506C132.82 47.5307 133.025 48.0966 133.415 48.5273C133.804 48.9581 134.347 49.2193 134.927 49.2551C135.209 49.2838 135.494 49.256 135.766 49.1735C136.037 49.091 136.289 48.9554 136.508 48.7745C136.726 48.5937 136.907 48.3712 137.038 48.12C137.17 47.8688 137.25 47.594 137.275 47.3116C137.297 46.7315 137.092 46.1655 136.703 45.7348C136.313 45.3041 135.771 45.0429 135.191 45.007C134.909 44.9784 134.623 45.0061 134.352 45.0886C134.08 45.1711 133.828 45.3068 133.61 45.4876C133.391 45.6685 133.211 45.891 133.079 46.1422C132.948 46.3933 132.867 46.6681 132.843 46.9506Z" fill="#263238"/>
<path d="M131.62 40.8136C131.884 41.119 133.607 39.9112 136.01 39.9806C138.413 40.05 140.177 41.3689 140.4 41.0079C140.622 40.647 140.261 40.3555 139.511 39.7724C138.491 39.0332 137.27 38.6217 136.01 38.5924C134.764 38.5559 133.538 38.9156 132.509 39.6197C131.759 40.1611 131.495 40.6886 131.62 40.8136Z" fill="#263238"/>
<path d="M154.279 47.81C154.256 48.39 154.461 48.956 154.851 49.3867C155.24 49.8174 155.783 50.0787 156.363 50.1145C156.645 50.1451 156.931 50.1187 157.204 50.037C157.476 49.9552 157.729 49.8197 157.948 49.6385C158.167 49.4573 158.347 49.234 158.478 48.9819C158.609 48.7299 158.688 48.4541 158.711 48.1709C158.73 47.5918 158.523 47.0278 158.135 46.5979C157.746 46.1679 157.205 45.9057 156.627 45.8664C156.345 45.8378 156.059 45.8655 155.788 45.948C155.517 46.0305 155.264 46.1661 155.046 46.347C154.827 46.5279 154.647 46.7504 154.515 47.0015C154.384 47.2527 154.303 47.5275 154.279 47.81Z" fill="#263238"/>
<path d="M154.358 41.7157C154.622 42.0211 156.345 40.8133 158.734 40.8827C161.123 40.9521 162.901 42.271 163.124 41.91C163.346 41.5491 162.999 41.2575 162.235 40.6745C161.215 39.9337 159.994 39.522 158.734 39.4945C157.488 39.4599 156.263 39.8194 155.233 40.5218C154.483 41.0632 154.275 41.5907 154.358 41.7157Z" fill="#263238"/>
<path d="M145.939 59.4193C144.686 58.9908 143.384 58.7203 142.064 58.6141C141.452 58.5308 140.883 58.4059 140.786 57.9755C140.746 57.3452 140.906 56.7185 141.244 56.1847C141.855 54.7131 142.494 53.1722 143.175 51.5757C145.87 45.0092 147.829 39.6089 147.565 39.4978C147.301 39.3868 144.898 44.6205 142.216 51.187C141.564 52.8112 140.938 54.3522 140.355 55.8237C139.952 56.5506 139.819 57.3963 139.98 58.2115C140.06 58.4305 140.189 58.6281 140.358 58.7894C140.527 58.9506 140.73 59.0711 140.952 59.1417C141.292 59.2381 141.642 59.294 141.994 59.3083C143.299 59.513 144.625 59.5503 145.939 59.4193Z" fill="#263238"/>
<path d="M143.581 87.7093C151.752 88.0635 159.861 86.141 167.003 82.1562C167.003 82.1562 160.835 94.012 143.498 91.874L143.581 87.7093Z" fill="#EB996E"/>
<path d="M146.858 65.2201C147.326 64.6563 147.93 64.2221 148.614 63.9595C149.297 63.6969 150.037 63.6147 150.762 63.7208C151.289 63.7799 151.799 63.9458 152.26 64.2083C152.721 64.4709 153.124 64.8246 153.443 65.2479C153.755 65.6544 153.934 66.1467 153.956 66.6581C153.978 67.1696 153.843 67.6756 153.568 68.1077C153.171 68.5275 152.657 68.8191 152.093 68.9453C151.529 69.0714 150.939 69.0263 150.401 68.8157C149.28 68.3869 148.256 67.7405 147.386 66.9138C147.122 66.7106 146.896 66.4613 146.72 66.178C146.631 66.0469 146.583 65.8922 146.583 65.7338C146.583 65.5754 146.631 65.4206 146.72 65.2895" fill="#EB996E"/>
<path d="M152.996 61.2658C152.607 61.2658 152.538 63.8341 150.218 65.6111C147.898 67.388 145.189 66.9993 145.147 67.4019C145.106 67.8045 145.759 67.9295 146.926 67.985C148.435 68.0254 149.91 67.5339 151.093 66.5967C152.255 65.707 153.019 64.3949 153.219 62.9456C153.455 61.9044 153.177 61.252 152.996 61.2658Z" fill="#263238"/>
<path d="M154.957 34.6346C155.166 35.3009 157.569 35.051 160.375 35.4675C163.181 35.884 165.432 36.7031 165.821 36.1339C165.987 35.8562 165.612 35.2315 164.709 34.579C163.516 33.7601 162.144 33.2367 160.708 33.052C159.271 32.8447 157.806 32.9779 156.43 33.4407C155.388 33.8294 154.86 34.3291 154.957 34.6346Z" fill="#263238"/>
<path d="M132.59 30.3609C133.007 30.9162 134.66 30.3609 136.647 30.3609C138.633 30.3609 140.314 30.819 140.703 30.2637C140.884 29.9861 140.633 29.4447 139.911 28.8755C138.952 28.218 137.81 27.8781 136.647 27.9037C135.48 27.8862 134.338 28.2359 133.382 28.9032C132.66 29.5418 132.41 30.0971 132.59 30.3609Z" fill="#263238"/>
<path d="M190.04 24.8111C187.262 14.6629 173.37 0.155643 162.895 0.405529L145.697 9.69296C146.112 12.572 147.298 15.2855 149.13 17.546C150.961 19.8066 153.371 21.5302 156.102 22.5343C159.02 23.5755 162.576 23.9226 164.215 26.6158C165.854 29.309 164.674 33.0296 166.229 35.7783C168.369 39.596 174.717 39.7071 176.273 43.8163C176.954 45.5933 176.468 47.6757 177.176 49.4526C178.135 51.8266 183.872 55.0057 186.331 54.3671C188.79 53.7285 188.998 49.5776 189.887 47.4258C190.999 45.0289 191.249 42.3224 190.596 39.7626C189.762 34.8204 191.346 29.6561 190.04 24.8111Z" fill="#263238"/>
<path d="M179.058 56.0833C179.058 54.7922 180.683 51.7936 181.961 51.627C185.379 51.1828 191.519 51.627 191.352 60.2759C191.116 72.1038 179.28 69.4245 179.266 69.0913C179.252 68.7581 178.933 60.5535 179.058 56.0833Z" fill="#FFBE9D"/>
<path d="M182.964 64.6818C182.964 64.6818 183.173 64.8345 183.52 65.001C184.006 65.2206 184.558 65.2454 185.062 65.0705C186.326 64.6262 187.41 62.6688 187.507 60.5309C187.558 59.5193 187.382 58.509 186.993 57.5739C186.89 57.2029 186.699 56.8624 186.435 56.5819C186.171 56.3013 185.843 56.0891 185.479 55.9635C185.242 55.8924 184.988 55.9079 184.761 56.0071C184.534 56.1062 184.351 56.2827 184.242 56.5049C184.076 56.8242 184.145 57.0602 184.09 57.088C184.034 57.1158 183.84 56.8797 183.937 56.3939C184.015 56.1023 184.185 55.844 184.423 55.6581C184.757 55.4198 185.17 55.3202 185.576 55.3804C186.057 55.4898 186.503 55.719 186.873 56.0466C187.242 56.3743 187.522 56.7898 187.688 57.2546C188.176 58.2899 188.4 59.4297 188.34 60.5725C188.215 62.9603 186.951 65.1677 185.229 65.6258C184.91 65.7087 184.576 65.7206 184.252 65.6606C183.928 65.6006 183.621 65.4703 183.353 65.2787C182.992 64.9733 182.923 64.7095 182.964 64.6818Z" fill="#EB996E"/>
<path d="M199.731 41.2166C200.151 40.0919 200.376 38.9043 200.398 37.7043C200.842 31.8754 199.3 26.0678 196.022 21.2257C195.411 20.1759 194.627 19.2371 193.702 18.4492C193.466 18.588 197.175 22.7667 198.842 29.236C200.509 35.7053 199.467 41.2028 199.731 41.2166Z" fill="#0061FE"/>
<path d="M149.356 6.29327C147.967 11.0272 140.243 16.7052 136.853 20.1758C130.268 26.9089 129.046 27.8945 127.726 49.3292C124.979 42.4499 123.765 35.0546 124.17 27.6585C124.739 21.4534 127.537 15.664 132.047 11.3604C134.338 9.22775 137.096 7.65913 140.101 6.77944C143.106 5.89974 146.275 5.73327 149.356 6.29327Z" fill="#263238"/>
<path d="M196.063 25.0417C195.397 25.2331 194.713 25.3587 194.021 25.4165C193.368 25.5137 192.563 25.6247 191.604 25.6803C190.646 25.7358 189.59 25.8469 188.395 25.833C185.609 25.8874 182.823 25.7342 180.06 25.3749C176.657 24.9154 173.298 24.1772 170.016 23.1675C166.75 22.1164 163.573 20.8073 160.514 19.2526C158.03 17.9563 155.644 16.4809 153.374 14.838C152.388 14.1716 151.568 13.4497 150.832 12.8805C150.095 12.3114 149.442 11.7422 148.998 11.284C148.467 10.8348 147.975 10.3427 147.525 9.8125C148.113 10.1836 148.666 10.6064 149.178 11.0758C149.679 11.5062 150.304 12.0198 151.068 12.5612C151.832 13.1027 152.665 13.7968 153.666 14.4354C155.954 15.9821 158.345 17.3735 160.82 18.6002C163.854 20.1124 166.998 21.3933 170.225 22.4318C173.473 23.4148 176.788 24.1618 180.143 24.6668C182.906 25.0496 185.69 25.249 188.479 25.2638C189.659 25.2638 190.729 25.2638 191.674 25.2638C192.618 25.2638 193.424 25.1944 194.077 25.125C194.736 25.0432 195.4 25.0153 196.063 25.0417Z" fill="#455A64"/>
<path d="M196.744 33.5968C196.292 33.7282 195.826 33.8074 195.355 33.8328C194.078 33.9832 192.793 34.062 191.507 34.0688C182.976 34.155 174.581 31.9341 167.21 27.6411C166.104 26.9993 165.033 26.2996 164.001 25.5449C163.596 25.2952 163.227 24.9916 162.904 24.6425C162.973 24.5453 164.626 25.6837 167.46 27.2108C174.863 31.2057 183.11 33.385 191.521 33.569C194.73 33.6523 196.731 33.4718 196.744 33.5968Z" fill="#455A64"/>
<path d="M199.705 34.0508C199.88 34.6324 199.978 35.2345 199.996 35.8416C200.107 37.0217 200.177 38.7153 200.163 40.8116C200.13 43.2706 199.973 45.7263 199.691 48.1694C199.371 51.1711 198.771 54.1364 197.899 57.0264C196.159 62.3283 192.609 66.8496 187.869 69.7984C186.437 70.6515 184.919 71.3495 183.34 71.8808C182.771 72.1035 182.18 72.2619 181.576 72.3528C182.107 72.0559 182.665 71.8096 183.243 71.617C184.757 70.9901 186.216 70.2378 187.605 69.368C189.645 68.062 191.453 66.4244 192.953 64.523C194.836 62.2402 196.277 59.6276 197.204 56.8182C198.067 53.9667 198.676 51.0447 199.024 48.0861C199.371 45.3095 199.552 42.8801 199.649 40.7977C199.746 38.7153 199.746 37.0216 199.649 35.8694C199.622 35.2627 199.641 34.6548 199.705 34.0508Z" fill="#455A64"/>
<path d="M37.1159 102.355L71.4565 137.062C75.9714 136.021 131.386 102.925 131.386 102.925L140.152 145.516C140.152 145.516 83.4313 171.616 67.8307 168.45C65.2746 167.937 61.0932 167.604 58.4537 164.286C45.9233 148.196 22.3071 114.433 22.3071 114.433L37.1159 102.355Z" fill="#FFBE9D"/>
<path d="M82.1484 420.812L99.0965 457.532L126.45 444.899L108.918 399.461L82.1484 420.812Z" fill="#FFBE9D"/>
<path d="M95.931 455.072L105.836 473.952C105.836 473.952 80.4416 500.149 82.831 506.063L142.427 477.506L126.049 439.648L95.931 455.072Z" fill="#455A64"/>
<path d="M122.994 462.543C123.649 462.461 124.312 462.613 124.864 462.975C125.416 463.336 125.822 463.882 126.008 464.515C126.134 465.167 126.003 465.842 125.644 466.401C125.284 466.959 124.723 467.358 124.077 467.513C123.38 467.635 122.662 467.486 122.07 467.096C121.479 466.706 121.059 466.106 120.896 465.417C120.837 464.724 121.048 464.035 121.486 463.494C121.923 462.953 122.553 462.603 123.244 462.516" fill="#E0E0E0"/>
<g opacity="0.6">
<path d="M142.427 477.444L139.941 472.738L83.7342 501.892C83.7342 501.892 81.6365 504.321 82.8312 506.056L142.427 477.444Z" fill="white"/>
</g>
<path d="M104.68 474.131C104.833 474.423 106.347 473.854 108.236 474.131C110.126 474.409 111.459 475.242 111.668 474.992C111.876 474.742 110.64 473.284 108.361 473.021C106.083 472.757 104.486 473.867 104.68 474.131Z" fill="#263238"/>
<path d="M99.6688 479.684C99.7382 480.003 101.239 479.892 102.822 480.655C104.406 481.419 105.309 482.571 105.601 482.418C105.892 482.266 105.281 480.53 103.308 479.642C101.336 478.753 99.5437 479.406 99.6688 479.684Z" fill="#263238"/>
<path d="M99.7073 488.862C99.999 488.862 99.7073 487.154 98.1931 485.919C96.6789 484.683 95.0257 484.711 95.0118 485.003C94.9979 485.294 96.2621 485.752 97.4846 486.793C98.7071 487.835 99.4017 488.973 99.7073 488.862Z" fill="#263238"/>
<path d="M101.85 466.844C102.1 467.053 103.239 466.011 104.934 465.331C106.629 464.651 108.157 464.554 108.199 464.234C108.24 463.915 106.504 463.471 104.503 464.234C102.503 464.998 101.586 466.678 101.85 466.844Z" fill="#263238"/>
<path d="M80.8077 440.814L38.5903 326.102C38.5903 326.102 39.5905 307.042 43.1052 301.017C46.6198 294.992 153.059 259.869 153.059 259.869C153.059 259.869 180.176 253.344 198.249 259.869C216.323 266.393 234.688 274.445 232.882 287.106C232.591 289.041 232.126 290.946 231.493 292.798C228.452 301.713 222.75 309.482 215.154 315.058C207.558 320.633 198.433 323.746 189.011 323.978L174.869 325.589L103.118 339.277C102.37 339.43 101.662 339.735 101.037 340.173C100.412 340.612 99.8847 341.174 99.4871 341.826C99.0896 342.477 98.8306 343.203 98.7263 343.959C98.622 344.715 98.6747 345.484 98.881 346.218L122.053 423.391C122.053 423.391 96.7416 435.733 80.8077 440.814Z" fill="#263238"/>
<path d="M43.5178 361.434L42.5176 401.86L72.6352 402.596L76.9833 354.09L43.5178 361.434Z" fill="#FFBE9D"/>
<path d="M42.516 396.477L41.2658 419.549C41.2658 419.549 6.95289 431.877 6.53613 438.18L72.6336 438.846L74.6618 397.657L42.516 396.477Z" fill="#455A64"/>
<path d="M40.9634 406.533C40.864 406.146 40.864 405.74 40.9634 405.353C41.1863 404.259 41.662 403.232 42.3526 402.355C42.5692 402.024 42.8364 401.729 43.1444 401.48C43.3492 401.313 43.5913 401.198 43.8501 401.145C44.1089 401.092 44.3768 401.102 44.6308 401.175C44.7773 401.219 44.9119 401.296 45.0249 401.399C45.1378 401.503 45.2263 401.63 45.2838 401.772C45.3819 402.031 45.3819 402.317 45.2838 402.577C45.0917 403.001 44.8591 403.405 44.5892 403.785C44.0752 404.562 43.6445 405.339 42.9916 406.214C42.7802 406.47 42.5079 406.669 42.1997 406.793C41.8915 406.916 41.5572 406.961 41.2273 406.922C40.6129 406.839 40.0272 406.61 39.5187 406.256C38.6044 405.659 37.7608 404.96 37.0042 404.173C36.6522 403.81 36.3228 403.425 36.0179 403.021C35.6677 402.62 35.4114 402.145 35.2677 401.633C35.2092 401.348 35.254 401.052 35.394 400.798C35.534 400.544 35.7601 400.347 36.0318 400.245C36.2973 400.174 36.5754 400.165 36.845 400.217C37.1147 400.27 37.3687 400.384 37.5877 400.55C38.2194 401.039 38.7845 401.608 39.2686 402.244C39.9503 403.113 40.5024 404.076 40.9078 405.103C41.081 405.464 41.1802 405.856 41.1996 406.256C40.5264 404.948 39.731 403.707 38.8241 402.549C38.3491 401.978 37.8081 401.466 37.2126 401.022C37.0822 400.916 36.9294 400.841 36.7658 400.802C36.6022 400.764 36.4319 400.763 36.2679 400.8C36.1306 400.858 36.0209 400.967 35.9615 401.104C35.9021 401.241 35.8974 401.395 35.9484 401.536C36.0971 401.93 36.3186 402.292 36.6014 402.605C36.9015 402.987 37.2214 403.353 37.5599 403.701C38.2853 404.432 39.0863 405.083 39.9493 405.645C40.3624 405.936 40.8382 406.126 41.3385 406.2C41.5403 406.23 41.7465 406.204 41.9349 406.126C42.1233 406.048 42.2869 405.92 42.4081 405.756C42.9638 405.048 43.4917 404.159 43.9918 403.424C44.246 403.088 44.4692 402.73 44.6586 402.355C44.7975 402.008 44.6586 401.799 44.4502 401.702C43.8529 401.48 43.2694 402.091 42.8666 402.605C41.9689 403.77 41.321 405.107 40.9634 406.533Z" fill="#263238"/>
<path d="M61.7427 416.899C62.3663 417.114 62.8932 417.543 63.2291 418.11C63.5651 418.678 63.6881 419.346 63.5764 419.995C63.3968 420.633 62.981 421.179 62.4134 421.522C61.8459 421.865 61.169 421.979 60.5202 421.842C59.8387 421.643 59.2589 421.192 58.8999 420.58C58.5408 419.969 58.4296 419.243 58.5892 418.551C58.8391 417.901 59.3328 417.373 59.9657 417.08C60.5985 416.787 61.3206 416.752 61.9788 416.983" fill="#E0E0E0"/>
<g opacity="0.6">
<path d="M72.5928 438.839L72.4677 433.48L9.14864 434.869C9.14864 434.869 6.18967 436.118 6.49529 438.201L72.5928 438.839Z" fill="white"/>
</g>
<path d="M40.2132 419.197C40.2132 419.516 41.8247 419.683 43.4083 420.738C44.992 421.793 45.8117 423.153 46.1173 423.029C46.4229 422.904 45.9506 421.043 44.0196 419.794C42.0886 418.544 40.1438 418.905 40.2132 419.197Z" fill="#263238"/>
<path d="M33.2354 421.992C33.166 422.311 34.5552 422.867 35.6387 424.241C36.7223 425.615 37.0279 427.018 37.3474 427.018C37.6669 427.018 37.8892 425.185 36.5139 423.505C35.1386 421.826 33.2493 421.687 33.2354 421.992Z" fill="#263238"/>
<path d="M29.2496 430.245C29.5414 430.314 30.0137 428.704 29.2496 426.927C28.4856 425.15 26.9436 424.442 26.8047 424.706C26.6657 424.97 27.5826 425.927 28.1938 427.399C28.8051 428.871 28.9023 430.203 29.2496 430.245Z" fill="#263238"/>
<path d="M40.8641 411.425C41.003 411.716 42.4895 411.286 44.3093 411.425C46.1292 411.564 47.5461 412.16 47.7128 411.883C47.8795 411.605 46.532 410.495 44.3788 410.314C42.2256 410.134 40.7113 411.161 40.8641 411.425Z" fill="#263238"/>
<path d="M61.1169 249.233C61.1169 249.233 43.0575 247.844 41.057 267.349C39.0566 286.854 29.624 377.619 29.624 377.619L79.2457 381.784L85.7749 288.451L153.053 259.853C153.053 259.853 73.1611 246.706 61.1169 249.233Z" fill="#263238"/>
<path d="M135.493 222.859C135.493 222.859 124.546 253.54 126.63 256.955C128.714 260.37 156.886 274.461 156.886 274.461L227.36 301.504C227.36 301.504 234.597 289.995 234.597 272.351C234.597 254.706 210.092 222.859 210.092 222.859H135.493Z" fill="#263238"/>
<path d="M156.387 258.258C156.282 258.325 156.17 258.38 156.054 258.424L155.053 258.896L151.15 260.632L136.508 267.004L85.9275 288.758L86.1498 288.439C85.5108 297.657 84.7606 307.624 84.1077 317.925C82.399 341.997 80.8153 364.196 79.5651 381.785V382.104H79.2455L48.5307 379.411L40.0705 378.62L37.8617 378.398C37.6045 378.381 37.3491 378.343 37.0977 378.287C37.3519 378.265 37.6075 378.265 37.8617 378.287L40.0844 378.425L48.5584 379.05L79.2594 381.424L78.9261 381.716C80.1347 364.154 81.7044 341.942 83.3159 317.856C84.0383 307.555 84.7051 297.587 85.3858 288.383V288.105L85.5941 288.008L136.286 266.518L151.053 260.34L155.012 258.716L156.04 258.313L156.387 258.258Z" fill="#455A64"/>
<path d="M212.441 261.333C211.769 261.207 211.11 261.026 210.468 260.791L205.162 259.084C199.368 257.117 193.427 255.618 187.394 254.6C181.371 253.605 175.22 253.681 169.223 254.822C164.625 255.78 161.986 257.085 161.93 256.932C162.503 256.556 163.119 256.248 163.764 256.016C165.487 255.28 167.272 254.699 169.098 254.28C175.154 252.961 181.405 252.806 187.519 253.822C193.591 254.839 199.553 256.424 205.328 258.556C207.551 259.334 209.343 260.014 210.566 260.5C211.218 260.712 211.846 260.992 212.441 261.333Z" fill="#455A64"/>
<path d="M202.483 245.141C200.429 245.025 198.37 245.025 196.315 245.141C194.426 245.266 192.148 245.558 189.647 245.85C187.147 246.141 184.382 246.488 181.534 247.03C176.638 247.808 171.945 249.549 167.726 252.152C166.032 253.315 164.43 254.605 162.933 256.012C163.195 255.498 163.537 255.029 163.947 254.623C164.989 253.507 166.149 252.506 167.406 251.639C171.624 248.85 176.388 246.995 181.381 246.197C184.271 245.655 187.049 245.336 189.564 245.072C192.078 244.808 194.356 244.586 196.287 244.531C197.814 244.46 199.344 244.53 200.858 244.739C201.417 244.788 201.966 244.924 202.483 245.141Z" fill="#455A64"/>
<path d="M100.096 463.027C99.8285 462.672 99.6392 462.265 99.5402 461.833C99.2018 460.666 99.1072 459.442 99.2623 458.237C99.3024 457.82 99.3958 457.409 99.5402 457.015C99.6385 456.766 99.8005 456.546 100.01 456.378C100.22 456.21 100.469 456.099 100.735 456.058C100.896 456.04 101.06 456.058 101.214 456.11C101.368 456.163 101.508 456.249 101.624 456.363C101.826 456.592 101.952 456.878 101.985 457.182C102.027 457.686 102.027 458.192 101.985 458.695C101.902 459.695 101.902 460.667 101.749 461.833C101.695 462.17 101.552 462.487 101.335 462.751C101.118 463.014 100.834 463.215 100.513 463.332C99.9034 463.514 99.2581 463.537 98.6372 463.401C97.5132 463.213 96.4168 462.886 95.3726 462.43C94.8733 462.222 94.3863 461.985 93.9139 461.722C93.4116 461.48 92.9628 461.14 92.5942 460.722C92.3863 460.473 92.2725 460.158 92.2725 459.834C92.2725 459.509 92.3863 459.195 92.5942 458.945C92.8042 458.753 93.0594 458.616 93.3362 458.548C93.613 458.48 93.9025 458.483 94.1779 458.556C94.9988 458.779 95.7878 459.105 96.5256 459.528C97.5885 460.095 98.5621 460.816 99.4151 461.666C99.7453 461.954 100.023 462.297 100.235 462.68C99.0004 461.671 97.6749 460.778 96.2756 460.014C95.5743 459.669 94.8386 459.399 94.0807 459.209C93.6917 459.209 93.2749 459.209 93.1221 459.403C93.0303 459.535 92.9883 459.696 93.0036 459.856C93.0188 460.016 93.0904 460.165 93.2055 460.278C93.5214 460.607 93.899 460.871 94.3168 461.055C94.7646 461.308 95.2287 461.53 95.706 461.722C96.7052 462.141 97.7493 462.443 98.8178 462.624C99.3013 462.743 99.8068 462.743 100.29 462.624C100.487 462.555 100.66 462.433 100.79 462.271C100.92 462.109 101.002 461.914 101.027 461.708C101.166 460.75 101.207 459.625 101.304 458.667C101.361 458.207 101.384 457.743 101.374 457.279C101.374 456.877 101.152 456.696 100.86 456.71C100.221 456.71 99.9847 457.626 99.8736 458.32C99.6445 459.889 99.72 461.487 100.096 463.027Z" fill="#263238"/>
<path d="M133.763 101.902C128.795 103.826 124.654 107.419 122.052 112.064C117.662 119.853 118.843 123.684 119.982 128.279C121.121 132.874 123.163 141.995 123.274 141.412C123.385 140.829 133.763 101.902 133.763 101.902Z" fill="#FFBE9D"/>
<path d="M208.05 115.768C208.05 115.768 202.299 101.886 201.104 100.609L179.878 95.25L166.611 101.747C162.784 103.686 158.497 104.536 154.219 104.204C149.468 103.76 145.301 101.844 143.203 98.3319L134.868 100.581C134.868 100.581 121.698 140.299 121.962 151.294C122.226 162.289 126.811 193.525 126.283 199.689C125.755 205.852 127.992 222.859 135.493 222.859H210.092C210.092 222.859 226.929 218.194 227.666 208.074C228.402 197.953 208.05 115.768 208.05 115.768Z" fill="#0061FE"/>
<path d="M184.284 176.046C183.919 176.455 183.498 176.81 183.034 177.101C181.82 177.971 180.527 178.724 179.172 179.35C177.153 180.287 175.011 180.927 172.809 181.252C170.098 181.644 167.337 181.526 164.669 180.905C159.848 179.674 155.463 177.132 151.999 173.561C150.951 172.508 149.981 171.381 149.096 170.188C148.746 169.764 148.452 169.298 148.221 168.8C148.332 168.716 149.679 170.618 152.388 173.159C155.882 176.517 160.191 178.91 164.891 180.1C169.61 181.172 174.549 180.715 178.991 178.795C182.367 177.379 184.201 175.907 184.284 176.046Z" fill="#263238"/>
<g opacity="0.3">
<path d="M149.469 170.518C149.983 176.219 152.735 181.485 157.123 185.164C159.324 186.955 161.916 188.203 164.689 188.806C167.463 189.409 170.339 189.35 173.085 188.635C175.815 187.855 178.277 186.339 180.201 184.252C182.125 182.166 183.436 179.589 183.99 176.807C180.233 178.737 176.227 180.138 172.085 180.972C167.614 181.57 163.065 180.861 158.988 178.933C154.91 177.004 151.479 173.937 149.108 170.102L149.705 170.74" fill="black"/>
</g>
<g opacity="0.3">
<path d="M212.23 182.593C204.354 167.322 196.019 151.496 182.238 141.223C185.294 151.662 188.031 161.477 191.406 171.764C192.365 174.694 193.879 178.109 196.963 178.595C198.088 178.775 199.241 178.497 200.353 178.719C202.27 179.094 203.576 180.802 204.604 182.454C205.439 184.219 206.753 185.715 208.396 186.771C210.147 187.632 212.814 186.771 212.98 184.883C212.95 184.065 212.69 183.271 212.23 182.593Z" fill="black"/>
</g>
<path d="M234.597 153.442L197.02 171.045C197.02 171.045 180.35 137.727 179.058 133.104C177.766 128.481 174.89 120.609 179.155 110.892C181.063 106.764 184.395 103.462 188.54 101.588C192.686 99.7141 197.368 99.3946 201.729 100.688C218.302 106.602 234.597 153.442 234.597 153.442Z" fill="#0061FE"/>
<path d="M125.633 153.444C123.883 153.444 103.726 163.981 103.726 163.981L90.3755 125.291C107.699 115.906 126.953 102.662 136.969 99.9688L128.259 130.177L125.633 153.444Z" fill="#0061FE"/>
<path d="M200.703 168.713C207.816 180.403 212.789 187.122 212.789 187.122L148.956 225.993L156.388 243.263L233.988 211.333C236.598 210.297 238.924 208.657 240.776 206.547C242.629 204.438 243.954 201.92 244.643 199.2C245.282 196.644 245.219 193.963 244.463 191.439L231.265 155.039L200.703 168.713Z" fill="#FFBE9D"/>
<path d="M228.321 193.068C225.879 191.552 223.325 190.225 220.68 189.098C216.221 187.418 212.276 187.376 212.345 187.127C215.287 186.917 218.239 187.339 221.004 188.363C223.769 189.388 226.283 190.992 228.376 193.068H228.321Z" fill="#EB996E"/>
<path d="M127.953 119.031C127.525 119.58 127.161 120.176 126.869 120.808C126.04 122.466 125.348 124.188 124.8 125.959C123.068 131.708 122.01 137.638 121.646 143.631C121.189 149.577 121.259 155.551 121.855 161.484C122.032 163.289 122.31 165.083 122.688 166.857C122.788 167.523 122.965 168.175 123.216 168.8C123.233 168.133 123.167 167.466 123.021 166.815C122.855 165.552 122.632 163.719 122.48 161.456C122.054 155.536 122.054 149.593 122.48 143.673C122.858 137.73 123.821 131.838 125.355 126.084C125.852 124.324 126.45 122.595 127.147 120.905C127.484 120.312 127.754 119.684 127.953 119.031Z" fill="#263238"/>
<path d="M99.4204 237.808L115.382 230.201L146.444 227.73L148.987 225.98L156.419 243.25C156.419 243.25 148.278 247.137 144.013 247.485L117.883 246.693L104.227 248.082L99.4204 237.808Z" fill="#FFBE9D"/>
<path d="M234.599 153.443C234.344 153.5 234.096 153.589 233.863 153.707L231.779 154.582L224.181 157.955L199.175 169.325L196.133 170.713L196.605 170.88C192.271 161.953 188.478 153.957 185.783 148.182C184.478 145.405 183.422 143.059 182.644 141.366L181.797 139.519C181.711 139.296 181.594 139.085 181.449 138.895C181.5 139.127 181.57 139.354 181.658 139.575C181.824 140.005 182.06 140.644 182.394 141.463C183.047 143.115 184.047 145.475 185.339 148.404C187.909 154.235 191.632 162.287 195.966 171.213L196.119 171.532L196.439 171.38L199.481 169.991L224.333 158.441L231.835 154.859L233.863 153.846C234.123 153.74 234.37 153.605 234.599 153.443Z" fill="#263238"/>
<path d="M200.022 100.79C200.022 100.929 198.258 100.873 195.535 101.526C191.997 102.358 188.733 104.087 186.057 106.545C183.381 109.003 181.382 112.108 180.254 115.561C179.351 118.212 179.254 119.976 179.115 119.962C179.052 119.552 179.052 119.136 179.115 118.726C179.225 117.603 179.439 116.492 179.754 115.408C180.797 111.797 182.817 108.543 185.591 106.005C188.366 103.468 191.788 101.745 195.479 101.026C196.55 100.812 197.638 100.7 198.73 100.693C199.163 100.652 199.6 100.685 200.022 100.79Z" fill="#263238"/>
<path d="M221.624 124.988C221.528 125.562 221.36 126.122 221.124 126.654C220.617 128.16 219.896 129.586 218.985 130.888L217.999 132.124L217.457 132.79L216.818 133.387L215.429 134.623L213.817 135.72C211.347 137.223 208.677 138.368 205.885 139.121C199.995 140.773 194.535 141.55 190.757 142.73C188.715 143.369 186.711 144.125 184.755 144.993C185.207 144.625 185.701 144.312 186.228 144.063C186.813 143.72 187.427 143.428 188.062 143.188L189.242 142.689L190.632 142.244C194.424 140.856 199.897 140.051 205.718 138.427C208.448 137.692 211.065 136.589 213.498 135.15L215.081 134.109L216.47 132.943C216.679 132.749 216.901 132.582 217.096 132.388L217.624 131.763L218.624 130.597C219.545 129.341 220.315 127.98 220.916 126.543C221.099 126.002 221.336 125.481 221.624 124.988Z" fill="white"/>
<path d="M216.68 116.14C216.143 116.201 215.616 116.327 215.11 116.515C213.788 117.148 212.696 118.177 211.984 119.458C211.484 120.249 210.984 121.152 210.317 122.082C209.592 123.054 208.742 123.927 207.789 124.678C205.571 126.334 203.058 127.554 200.385 128.274C197.606 129.12 194.828 129.662 192.452 130.203C190.306 130.689 188.208 131.372 186.187 132.244C184.357 133.108 182.651 134.215 181.117 135.534C181.117 135.534 181.186 135.395 181.367 135.187C181.629 134.872 181.912 134.575 182.214 134.299C183.339 133.277 184.607 132.426 185.979 131.772C188.003 130.817 190.121 130.077 192.3 129.565C194.731 128.926 197.44 128.412 200.176 127.579C202.761 126.877 205.199 125.716 207.372 124.15C208.295 123.452 209.122 122.635 209.831 121.721C210.484 120.86 211.012 119.958 211.568 119.18C212.357 117.847 213.57 116.816 215.013 116.251C215.409 116.107 215.828 116.041 216.249 116.057C216.527 116.071 216.68 116.112 216.68 116.14Z" fill="white"/>
<path d="M186.369 149.527C186.189 149.663 185.993 149.774 185.785 149.861L184.021 150.68C182.493 151.374 180.256 152.359 177.45 153.456C174.159 154.758 170.774 155.807 167.323 156.594C163.074 157.595 158.684 157.853 154.348 157.357C150.057 156.652 145.862 155.455 141.845 153.789C138.59 152.499 135.203 151.568 131.746 151.013C129.415 150.667 127.043 150.719 124.73 151.165C123.091 151.513 122.23 151.901 122.216 151.832C122.202 151.762 122.41 151.707 122.813 151.513C123.413 151.259 124.03 151.05 124.661 150.888C126.998 150.326 129.417 150.194 131.801 150.499C135.315 150.993 138.76 151.892 142.067 153.178C146.049 154.784 150.195 155.948 154.431 156.649C158.686 157.13 162.992 156.895 167.17 155.955C170.596 155.204 173.966 154.216 177.256 152.998C180.034 151.971 182.34 151.068 183.896 150.444L185.702 149.749C185.91 149.64 186.136 149.565 186.369 149.527Z" fill="white"/>
<path d="M124.699 136.787C124.699 136.787 124.852 136.634 125.185 136.398C125.682 136.073 126.213 135.803 126.769 135.593C128.837 134.815 131.072 134.586 133.256 134.927C136.473 135.419 139.564 136.532 142.355 138.203C145.678 140.265 149.141 142.093 152.719 143.673C156.393 144.975 160.284 145.56 164.179 145.394C167.368 145.275 170.541 144.895 173.668 144.256C176.349 143.742 178.516 143.229 180.002 142.868C180.767 142.655 181.547 142.501 182.336 142.41C181.6 142.71 180.844 142.956 180.072 143.145C178.599 143.576 176.46 144.159 173.779 144.742C170.628 145.459 167.421 145.896 164.193 146.047C160.211 146.255 156.226 145.674 152.469 144.339C148.857 142.751 145.37 140.894 142.036 138.786C139.322 137.126 136.32 135.991 133.187 135.441C131.077 135.062 128.907 135.205 126.866 135.857C125.435 136.315 124.74 136.787 124.699 136.787Z" fill="white"/>
<path d="M117.55 156.525C117.55 156.525 117.397 156.525 117.119 156.525C116.714 156.444 116.318 156.323 115.938 156.164C114.514 155.547 113.26 154.594 112.284 153.387C110.823 151.648 109.761 149.611 109.173 147.418C108.527 144.749 108.191 142.014 108.173 139.269C108.151 136.568 107.937 133.873 107.533 131.203C107.146 129.047 106.375 126.978 105.255 125.094C104.182 123.375 102.703 121.945 100.949 120.93C100.949 120.93 101.102 120.93 101.366 121.055C101.751 121.202 102.123 121.383 102.477 121.596C103.759 122.438 104.844 123.546 105.658 124.845C106.882 126.749 107.731 128.869 108.159 131.092C108.611 133.794 108.848 136.528 108.867 139.269C108.884 141.964 109.191 144.649 109.784 147.279C110.329 149.393 111.303 151.373 112.646 153.096C113.563 154.248 114.713 155.194 116.021 155.872C116.98 156.33 117.563 156.455 117.55 156.525Z" fill="white"/>
<path d="M121.356 146.675C120.597 145.209 119.929 143.698 119.356 142.15L114.702 131.238C112.84 126.976 111.118 123.13 109.798 120.396C108.478 117.661 107.562 116.009 107.645 115.953C107.967 116.265 108.239 116.626 108.451 117.022C108.909 117.744 109.534 118.813 110.257 120.16C111.646 122.853 113.507 126.67 115.369 130.946C117.23 135.222 118.772 139.137 119.828 142.052C120.356 143.441 120.759 144.648 121.023 145.467C121.186 145.854 121.298 146.26 121.356 146.675Z" fill="white"/>
<path d="M9.80691 176.516L99.3816 177.251C102.285 177.251 105.063 178.64 105.494 181.513L115.288 246.761H161.423C162.137 246.761 162.823 247.045 163.328 247.55C163.834 248.055 164.118 248.74 164.118 249.455C164.118 250.169 163.834 250.854 163.328 251.359C162.823 251.864 162.137 252.148 161.423 252.148H14.1273L4.05566 183.29C3.92603 182.457 3.97733 181.607 4.20604 180.795C4.43475 179.984 4.83551 179.231 5.38113 178.589C5.92675 177.946 6.60441 177.428 7.36808 177.071C8.13175 176.713 8.96354 176.524 9.80691 176.516Z" fill="#E0E0E0"/>
<path d="M9.80211 176.516C9.33482 176.497 8.86715 176.543 8.41293 176.655C7.0399 176.977 5.82765 177.78 4.99554 178.918C4.38154 179.758 3.99836 180.744 3.88417 181.777C3.8639 183.012 3.9757 184.245 4.2176 185.456L5.50953 194.549C7.48218 208.224 10.3161 227.868 13.8446 252.176V252.412H14.0947L157.042 252.495H160.89C161.594 252.561 162.302 252.427 162.932 252.107C163.406 251.841 163.801 251.455 164.076 250.986C164.351 250.518 164.496 249.984 164.496 249.441C164.496 248.898 164.351 248.365 164.076 247.896C163.801 247.428 163.406 247.041 162.932 246.776C162.309 246.464 161.612 246.329 160.918 246.387H115.38L115.727 246.692C112.199 223.328 108.907 201.532 106.003 181.972C105.915 180.667 105.322 179.447 104.35 178.571C103.373 177.751 102.183 177.226 100.919 177.057C99.7186 176.94 98.5123 176.899 97.3069 176.932H93.7922L80.3033 176.835L56.3398 176.696L22.2214 176.516H9.80211C9.80211 176.516 10.066 176.516 10.6078 176.516H12.9555L22.0825 176.641L56.2009 177.016L80.1643 177.252L93.6533 177.391H97.168C98.3456 177.362 99.5238 177.404 100.696 177.515C101.849 177.673 102.933 178.154 103.822 178.904C104.663 179.71 105.16 180.809 105.211 181.972C108.143 201.518 111.393 223.328 114.936 246.692V246.998H160.779C161.351 246.937 161.928 247.038 162.446 247.289C162.931 247.562 163.303 247.997 163.496 248.519C163.69 249.04 163.691 249.613 163.502 250.135C163.312 250.654 162.942 251.088 162.46 251.357C161.936 251.62 161.347 251.726 160.765 251.662H157.056L14.1086 251.746L14.3725 251.982C10.7884 227.757 7.85727 208.057 5.82906 194.383C5.31506 190.982 4.85663 187.941 4.43988 185.317C4.17845 184.123 4.05722 182.903 4.07868 181.68C4.17028 180.68 4.52493 179.722 5.10666 178.904C5.90446 177.772 7.08278 176.964 8.42683 176.627C8.88317 176.567 9.34214 176.53 9.80211 176.516Z" fill="#263238"/>
<path d="M54.4805 219.108C57.5801 219.108 60.0928 216.597 60.0928 213.499C60.0928 210.402 57.5801 207.891 54.4805 207.891C51.3809 207.891 48.8682 210.402 48.8682 213.499C48.8682 216.597 51.3809 219.108 54.4805 219.108Z" fill="white"/>
<path d="M111.711 251.526C111.572 251.526 108.724 234.936 105.335 214.431C101.945 193.927 99.3055 177.268 99.4305 177.254C99.5556 177.24 102.403 193.844 105.793 214.348C109.183 234.853 111.836 251.512 111.711 251.526Z" fill="#263238"/>
</svg>
