<svg width="74" height="67" viewBox="0 0 74 67" fill="none" xmlns="http://www.w3.org/2000/svg">
<path opacity="0.8" d="M71.8005 20.701L71.6197 20.5942L71.513 20.5368L67.5859 18.2379C67.5859 18.1394 67.5859 18.0491 67.5859 17.9588C67.5859 13.1395 65.9428 9.74869 63.4041 8.33655L55.854 3.97698C53.7755 2.7783 51.0725 2.89324 48.1149 4.60094C46.7439 5.41682 45.4893 6.41376 44.385 7.5648C43.8996 7.05893 43.3467 6.62242 42.7419 6.2676L35.4382 2.06402C32.7599 0.298844 29.1862 0.331684 25.2509 2.60589C16.9778 7.37596 10.2738 20.1755 10.2738 31.1935C10.2706 32.4141 10.364 33.633 10.5531 34.8388L9.51797 35.4299C4.25999 38.4677 -0.00391388 46.6121 -0.00391388 53.6153C-0.00391388 57.4905 1.29417 60.2491 3.34807 61.4314L11.005 65.8566C12.6481 66.8008 14.8088 66.7269 17.1585 65.3722L31.01 57.3838L67.9063 36.0949C71.0693 34.2723 73.6572 29.3873 73.6572 25.1837C73.6244 22.9834 72.9178 21.4071 71.8005 20.701Z" fill="#0061FE"/>
<path opacity="0.2" d="M71.8005 20.701L71.6197 20.5942L71.513 20.5368L67.5859 18.2379C67.5859 18.1394 67.5859 18.0491 67.5859 17.9588C67.5859 13.1395 65.9428 9.74869 63.4041 8.33655L55.854 3.97698C53.7755 2.7783 51.0725 2.89324 48.1149 4.60094C46.7439 5.41682 45.4893 6.41376 44.385 7.5648C43.8996 7.05893 43.3467 6.62242 42.7419 6.2676L35.4382 2.06402C32.7599 0.298844 29.1862 0.331684 25.2509 2.60589C16.9778 7.37596 10.2738 20.1755 10.2738 31.1935C10.2706 32.4141 10.364 33.633 10.5531 34.8388L9.51797 35.4299C4.25999 38.4677 -0.00391388 46.6121 -0.00391388 53.6153C-0.00391388 57.4905 1.29417 60.2491 3.34807 61.4314L11.005 65.8566C12.6481 66.8008 14.8088 66.7269 17.1585 65.3722L31.01 57.3838L67.9063 36.0949C71.0693 34.2723 73.6572 29.3873 73.6572 25.1837C73.6244 22.9834 72.9178 21.4071 71.8005 20.701Z" fill="white"/>
<path opacity="0.35" d="M63.4209 8.33104C61.3506 7.18162 58.6723 7.31298 55.7475 9.00427C54.3003 9.86378 52.9811 10.9223 51.8287 12.1487L44.9029 8.12579L44.221 7.7317L44.3936 7.55929C45.5027 6.41254 46.7598 5.41858 48.1316 4.60365C51.0893 2.89594 53.8004 2.78921 55.8708 3.97968L63.4209 8.33104Z" fill="white"/>
<path opacity="0.8" d="M44.3861 7.56641C44.5669 7.74715 44.7312 7.93611 44.8955 8.13328L44.2136 7.73893L44.3861 7.56641Z" fill="white"/>
<path opacity="0.35" d="M42.5684 6.1604C39.964 4.71542 36.5792 4.87962 32.8904 6.98141C29.2016 9.0832 25.7099 12.9666 23.0809 17.5232L15.4651 13.1308C18.0941 8.57417 21.52 4.75647 25.2663 2.589C29.2098 0.314798 32.7836 0.281959 35.4619 2.05534L42.5684 6.1604Z" fill="white"/>
<path opacity="0.35" d="M18.1855 39.2483L17.1504 39.8394C13.5848 41.8919 10.4711 46.3008 8.84441 51.1119L1.22855 46.7113C2.43808 42.9928 4.56901 39.6404 7.42312 36.9659L10.5615 34.8477L18.1855 39.2483Z" fill="white"/>
<path d="M67.9063 20.8655L67.3641 21.1775C67.5134 20.1084 67.5902 19.0304 67.5941 17.9509C67.5941 9.23181 62.2868 5.22527 55.739 9.00192C52.7074 10.7507 49.9388 13.8705 47.8438 17.5815C47.548 7.08075 40.9673 2.35173 32.8832 7.01507C24.6183 11.7852 17.9143 24.5765 17.9143 35.5945C17.9108 36.8178 18.0042 38.0394 18.1937 39.248L17.1585 39.8391C11.9005 42.8686 7.65305 51.0213 7.65305 58.0245C7.65305 65.036 11.9169 68.4103 17.1749 65.4136L31.0265 57.4252L67.9063 36.0953C71.0693 34.2727 73.6572 29.3876 73.6572 25.1841C73.6244 20.9805 71.0693 19.0593 67.9063 20.8655Z" fill="#0061FE"/>
<path opacity="0.7" d="M67.9063 20.8655L67.3641 21.1775C67.5134 20.1084 67.5902 19.0304 67.5941 17.9509C67.5941 9.23181 62.2868 5.22527 55.739 9.00192C52.7074 10.7507 49.9388 13.8705 47.8438 17.5815C47.548 7.08075 40.9673 2.35173 32.8832 7.01507C24.6183 11.7852 17.9143 24.5765 17.9143 35.5945C17.9108 36.8178 18.0042 38.0394 18.1937 39.248L17.1585 39.8391C11.9005 42.8686 7.65305 51.0213 7.65305 58.0245C7.65305 65.036 11.9169 68.4103 17.1749 65.4136L31.0265 57.4252L67.9063 36.0953C71.0693 34.2727 73.6572 29.3876 73.6572 25.1841C73.6244 20.9805 71.0693 19.0593 67.9063 20.8655Z" fill="white"/>
<path opacity="0.7" d="M13.4042 64.5407C11.0627 64.5407 9.54281 61.9791 9.54281 58.0218C9.54281 51.7575 13.4617 44.196 18.0953 41.5277L19.1551 40.9284C19.4994 40.7335 19.7754 40.4376 19.9459 40.0808C20.1163 39.7239 20.173 39.3234 20.1081 38.9333C19.9401 37.8275 19.8577 36.7103 19.8616 35.5918C19.8616 25.2142 26.1383 13.1535 33.8281 8.69545C35.31 7.76471 37.0089 7.23559 38.7575 7.16016C42.9393 7.16016 45.6422 11.1749 45.8229 17.6363C45.8359 18.0625 45.9881 18.4728 46.2563 18.8046C46.5245 19.1363 46.8939 19.3713 47.3081 19.4736C47.7224 19.5759 48.1588 19.54 48.5507 19.3713C48.9427 19.2027 49.2686 18.9105 49.4789 18.5394C51.4835 14.9844 54.0303 12.2012 56.6511 10.6823C57.7734 9.98071 59.0585 9.58185 60.381 9.52467C63.5358 9.52467 65.5733 12.8087 65.5733 17.9483C65.5718 18.9397 65.5032 19.9299 65.3679 20.9121C65.3166 21.274 65.3683 21.643 65.5171 21.9768C65.6659 22.3107 65.9059 22.5959 66.2094 22.7998C66.5129 23.0037 66.8677 23.1181 67.2332 23.1298C67.5988 23.1415 67.9602 23.0501 68.2762 22.8661L68.8184 22.5541C69.2055 22.3054 69.6492 22.1585 70.1083 22.1272C71.1434 22.1272 71.6035 23.6625 71.6035 25.1814C71.6035 28.6953 69.4346 32.9235 66.8713 34.4013L16.1153 63.6868C15.2898 64.1924 14.3472 64.4753 13.3795 64.5078L13.4042 64.5407Z" fill="white"/>
</svg>
