<svg width="2759" height="3224" viewBox="0 0 2759 3224" fill="none" xmlns="http://www.w3.org/2000/svg">
<path d="M2736.16 1541.34C2742.13 1596.91 2738.6 1653.29 2725.79 1707.29C2712.66 1760.22 2688.36 1809.53 2653.75 1842.74C2645.3 1850.99 2636.25 1858.37 2626.69 1864.8C2617.28 1870.89 2607.4 1875.92 2597.17 1879.84C2577.23 1887.51 2556.23 1890.76 2535.25 1889.42C2493.58 1886.8 2453.51 1868.63 2417.06 1842.38C2414.91 1840.75 2412.33 1839.05 2410.43 1837.49L2405.21 1832.95C2401.78 1829.68 2398.34 1826.56 2395.03 1822.94C2388.11 1815.79 2381.71 1808.01 2375.88 1799.67C2363.08 1781.71 2351.75 1762.39 2342.07 1741.99C2320.76 1697.05 2302.3 1650.39 2286.84 1602.36C2253.7 1503.03 2224.55 1396.61 2191.78 1289.4C2183.6 1262.58 2175.09 1235.65 2166.25 1208.59C2157.6 1181.49 2148.21 1154.39 2138.45 1127.14C2118.77 1070.39 2095.36 1015.45 2068.43 962.824C2061.07 948.635 2053.15 935.012 2043.88 921.035C2039.34 913.94 2034.37 906.846 2029.09 900.176C2023.82 893.507 2018.29 887.051 2012.65 880.949C1990.84 857.823 1966.34 838.336 1939.87 823.055C1889.61 793.398 1839.59 777.363 1791.36 760.832C1743.12 744.301 1695.81 729.615 1650.22 709.962C1605.36 691.228 1562.48 666.689 1522.39 636.813C1483.39 607.597 1448.93 570.996 1420.46 528.545C1392.54 485.975 1370.5 439.291 1360.62 391.826C1355.68 369.234 1353.61 345.931 1354.49 322.65C1355.5 301.778 1359.98 281.326 1367.68 262.414C1374.67 245.693 1384.58 230.822 1396.78 218.735C1408.97 206.648 1423.2 197.606 1438.56 192.175C1454.17 186.361 1470.46 183.393 1486.86 183.377C1504.37 183.304 1521.82 185.686 1538.83 190.472C1543.25 191.678 1547.67 193.168 1552.09 194.658L1567.8 200.121C1578.17 203.952 1588.54 207.925 1598.48 212.324C1618.86 221.051 1638.86 230.771 1658.75 241.839C1698.45 263.833 1738.09 291.503 1782.09 321.16C1828.42 353.136 1876.7 381.165 1926.55 405.022C1978.29 428.651 2031.89 446.447 2086.6 458.163C2093.35 459.795 2100.1 460.859 2106.85 462.207L2125.26 465.613C2135.26 467.528 2145.45 469.799 2155.57 472.708C2175.91 477.886 2196 484.256 2215.77 491.793C2294.94 521.875 2366.18 569.837 2420.43 636.884C2448.37 671.125 2472.51 709.258 2492.29 750.403C2502.78 771.944 2512.11 794.218 2520.21 817.095C2528.79 840.794 2536.29 864.998 2542.67 889.605C2548.81 914.65 2554.95 940.405 2559.3 966.869C2561.58 979.214 2563.91 995.248 2566.3 1010.15C2568.69 1025.05 2571.64 1039.95 2574.71 1054.63C2586.82 1112.89 2602.45 1170.1 2621.47 1225.83C2639.88 1280.96 2661.36 1333.89 2682.84 1385.82C2693.64 1411.79 2704.38 1437.62 2714.32 1463.87C2724.55 1488.45 2731.9 1514.51 2736.16 1541.34ZM2755.19 1539C2753.58 1524.02 2750.75 1509.24 2746.72 1494.87C2743.04 1480.68 2738.68 1467.13 2734.45 1453.58C2725.85 1426.48 2716.89 1399.8 2708.98 1372.84C2701.06 1345.88 2693.76 1318.85 2687.62 1291.53C2681.49 1264.22 2676.76 1236.62 2672.83 1209.09C2665.52 1154.35 2662.91 1098.9 2665.04 1043.56C2665.47 1029.87 2666.39 1016.18 2667.25 1002.56C2668.11 988.934 2669.64 976.376 2670.75 959.987C2673.03 928.938 2673.83 897.768 2673.14 866.617C2671.96 801.767 2662.75 737.446 2645.77 675.622C2627.88 611.051 2600.54 550.506 2564.95 496.617C2528.69 442.524 2485.38 395.275 2436.57 356.564C2388.67 318.622 2336.57 288.292 2281.68 266.387C2254.64 255.444 2227.03 246.463 2199.02 239.498C2185.03 235.95 2170.85 233.041 2156.43 230.558L2121.57 224.669C2078.68 217.216 2036.41 205.562 1995.22 189.833C1952.46 172.995 1910.76 152.774 1870.4 129.314C1827.44 105.191 1780.13 77.3788 1728.89 54.2494C1703.05 42.5499 1676.71 32.3908 1649.97 23.8122C1636.59 19.5553 1623.09 15.795 1609.59 12.3185L1589.28 7.56486C1581.61 5.93303 1573.94 4.51404 1566.14 3.37886C1534.32 -1.49961 1502.07 -1.09345 1470.35 4.58499C1437.39 10.3089 1405.55 22.6507 1376.27 41.0529C1346.36 59.9309 1320.06 85.6091 1298.95 116.543C1278.16 147.063 1263.22 182.349 1255.14 220.058C1247.58 255.724 1245.87 292.713 1250.1 329.107C1253.94 363.024 1262 396.122 1274.04 427.371C1297.23 484.938 1328.92 537.396 1367.68 582.395C1386.08 604.406 1405.77 624.935 1426.59 643.837C1447.28 662.386 1468.88 679.537 1491.27 695.204C1580.44 757.498 1678.14 793.114 1767.43 838.238C1812.1 860.445 1855.12 885.632 1888.93 916.779C1904.78 931.292 1918.73 948.378 1930.36 967.507C1932.99 972.048 1935.45 976.589 1937.72 981.2C1939.99 985.812 1942.01 990.353 1944.16 995.39C1948.34 1005.47 1952.39 1016.67 1956.44 1028.31C1964.05 1051.65 1970.73 1077.12 1976.93 1103.16C1983.13 1129.2 1989.21 1155.88 1995.34 1182.84L2013.2 1264.64C2019.34 1292.1 2025.47 1319.77 2031.98 1347.51C2058.49 1458.26 2089.3 1570.65 2136.3 1680.4C2160.42 1737.44 2190.29 1790.97 2225.28 1839.9C2234.67 1852.39 2244.43 1864.73 2255.17 1876.65C2265.85 1888.88 2277.25 1900.23 2289.29 1910.63C2301.74 1921.6 2314.91 1931.42 2328.69 1940.01C2335.73 1944.33 2342.96 1948.24 2350.35 1951.71L2361.64 1956.82C2365.26 1958.38 2368.45 1959.45 2371.89 1960.8C2399.1 1971.04 2427.18 1977.84 2455.66 1981.09C2484.55 1984.46 2513.72 1982.95 2542.24 1976.62C2570.62 1970.3 2597.83 1958.29 2622.64 1941.14C2634.78 1932.95 2646.22 1923.45 2656.82 1912.76C2667.3 1902.39 2676.97 1890.97 2685.72 1878.64C2718.58 1830.71 2740.61 1774.1 2749.85 1713.89C2759.08 1656.22 2760.88 1597.28 2755.19 1539Z" fill="#DFE7FE" fill-opacity="0.04"/>
<path d="M849.802 2960.91C905.449 2971.11 959.695 2989.84 1011.13 3016.62C1063.06 3042.45 1113.04 3073.39 1163.33 3105.18C1188.65 3120.79 1213.92 3137.04 1240.09 3152.16C1266.65 3168.15 1293.97 3182.37 1321.91 3194.74C1351.99 3208.11 1383.39 3217.08 1415.36 3221.42C1452.04 3226.32 1489.19 3221.47 1524.03 3207.23C1533.22 3203.32 1542.3 3198.22 1551.12 3193.46C1559.95 3188.71 1568.17 3181.96 1576.63 3175.86C1585.09 3169.76 1592.34 3162.24 1599.95 3155.07C1607.56 3147.9 1614.01 3139.88 1620.95 3132.08C1646.47 3101.4 1668.05 3066.57 1684.99 3028.68C1701.53 2991.54 1714.09 2952.16 1722.37 2911.45C1730.1 2873.15 1735.09 2834.18 1737.29 2794.92C1740.63 2723.03 1739.49 2650.96 1733.88 2579.26L1727 2479.13C1725.84 2462.81 1725.05 2446.7 1724.14 2430.66L1722.92 2406.74L1722.13 2383.18C1721.17 2352.62 1721.55 2322.02 1723.29 2291.5C1724.76 2262.54 1728.36 2233.79 1734.06 2205.56C1740.54 2176.02 1749.26 2147.21 1760.12 2119.48C1771.14 2090.24 1783.8 2060.72 1797.5 2031.2C1824.89 1971.87 1855.94 1912.76 1886.26 1851.59L1908.72 1805.32C1916.03 1789.56 1923.27 1773.81 1930.15 1757.56C1944.55 1724.88 1956.77 1690.95 1966.68 1656.08C1977.24 1619.77 1982.76 1581.73 1983.06 1543.39C1982.88 1504.31 1975.12 1465.78 1960.35 1430.7C1953.12 1413.85 1944.52 1397.86 1934.66 1382.94L1919.62 1361.65C1914.51 1354.55 1909.15 1348.8 1903.91 1342.34C1882.44 1317.2 1859.02 1294.42 1833.96 1274.29C1808.5 1254.42 1781.44 1237.48 1753.18 1223.69C1746.06 1220.5 1739.05 1216.59 1731.75 1213.83L1709.89 1205.17C1695.16 1200.27 1680.31 1195.38 1665.21 1191.83C1604.61 1177.2 1542.49 1173.16 1480.87 1179.84C1450.07 1182.76 1419.43 1187.76 1389.12 1194.81C1358.69 1201.41 1328.86 1210.63 1299.21 1220.71C1284.54 1226.1 1269.62 1231.07 1255.19 1237.17L1233.34 1246.05L1211.73 1255.63C1182.99 1268.64 1154.74 1282.83 1126.98 1298.2C1113.1 1306.01 1099.4 1314.03 1085.65 1322.05C1071.89 1330.07 1058.49 1338.87 1045.1 1347.6C1031.71 1356.32 1018.31 1365.12 1005.23 1374.42C992.136 1383.72 978.926 1392.87 966.141 1402.81L892.296 1458.51C880.12 1467.6 867.944 1476.11 855.769 1484.98L837.505 1498.11L819.242 1510.81C722.234 1578.27 621.779 1638.75 518.441 1691.92C466.573 1718.74 414.156 1744.5 358.696 1773.67C331.057 1787.86 302.627 1804.4 273.466 1823.34C242.265 1843.74 212.772 1867.5 185.375 1894.31C156.2 1923.15 130.319 1956.22 108.364 1992.74C87.5396 2027.59 69.9293 2064.91 55.8253 2104.08C48.5199 2122.81 42.9801 2141.27 37.1357 2159.86C34.3353 2169.08 31.9609 2178.24 29.4041 2187.39C26.8472 2196.55 24.2904 2205.63 22.2205 2215.78L15.6456 2244.8L12.4799 2259.35L10.0448 2274.47C6.43457 2294.57 3.85291 2314.9 2.31323 2335.35C1.46094 2345.72 0.608643 2356.08 -0.00012207 2366.44V2413.42C-0.00012207 2418.67 0.730347 2424.06 1.0957 2429.38L3.896 2461.25C5.23535 2471.82 7.36621 2482.54 9.19263 2492.83L12.0538 2508.51C13.1497 2513.69 14.6716 2518.87 16.011 2523.98C18.7505 2534.2 21.4292 2544.49 24.4122 2554.49C27.3953 2564.5 31.6566 2574.15 35.3702 2583.8C50.4148 2621.29 70.2651 2655.89 94.2399 2686.42L102.763 2697.63C105.746 2701.18 108.851 2704.73 111.895 2707.92C117.982 2714.66 124.07 2721.47 130.158 2727.86C143.186 2739.71 155.727 2752.34 169.364 2762.35C195.478 2782.88 223.032 2800.8 251.732 2815.93C279.506 2830.32 307.962 2842.86 336.962 2853.47C393.161 2873.84 450.396 2890.1 508.335 2902.15C522.642 2905.06 536.887 2908.47 550.95 2910.95C565.013 2913.43 579.38 2916.84 593.565 2919.18C607.75 2921.52 622.117 2924.22 636.18 2926.7L678.795 2933.8L849.802 2960.91ZM852.968 2939.19C796.534 2929.68 740.526 2917.9 685.309 2902.29L664.61 2896.54L644.033 2890.16C630.336 2886.11 616.76 2881.22 603.245 2876.46C576.093 2867.24 549.428 2856.45 523.129 2844.95C470.995 2822.49 420.708 2794.58 372.88 2761.57C349.702 2745.54 327.343 2727.96 305.914 2708.91C285.587 2690.48 266.571 2670.17 249.054 2648.17C240.105 2637.88 233.104 2626.17 225.311 2615.38L215.144 2598.28C213.501 2595.44 211.735 2592.67 210.152 2589.76L205.952 2580.96C194.533 2558.64 185.845 2534.56 180.139 2509.43C178.922 2503.26 177.704 2497.23 176.243 2491.26L173.869 2472.67C173.504 2469.55 172.956 2466.57 172.712 2463.45L172.408 2453.94C172.408 2447.55 171.677 2441.38 171.616 2435.06L172.225 2415.76C172.225 2412.56 172.225 2409.44 172.529 2406.18L173.564 2396.31L175.391 2376.73L178.739 2356.71C183.56 2329.08 190.132 2301.89 198.403 2275.39C200.107 2268.65 202.603 2261.2 204.978 2254.1C207.352 2247 209.604 2239.91 212.1 2232.81C217.275 2219.4 222.084 2205.49 227.624 2193.07C237.469 2169.03 249.337 2146.18 263.056 2124.87C275.745 2105.52 290.379 2088.01 306.645 2072.71C339.458 2041.63 384.569 2014.45 435.403 1986.49C460.667 1972.3 486.967 1958.53 513.693 1943.91C540.418 1929.29 567.387 1914.18 594.296 1898.85C703.055 1836.06 807.866 1764.37 907.941 1684.32L926.753 1669.49L945.016 1654.23C957.192 1644.02 969.794 1634.01 981.97 1623.58L1053.08 1562.41C1075.72 1543.03 1098.73 1524.3 1121.81 1505.63L1156.75 1478.6C1168.5 1469.94 1180.25 1461.14 1192.12 1452.55C1215.93 1435.95 1239.73 1419.06 1264.14 1404.01L1282.4 1392.45L1300.67 1381.45C1312.84 1373.92 1325.39 1367.25 1337.87 1360.51C1387.29 1333.78 1438.8 1312.68 1491.71 1297.49C1517.76 1290.38 1544.2 1285.38 1570.85 1282.52C1597.17 1279.59 1623.67 1279.59 1649.99 1282.52C1702.68 1287.61 1753.74 1306.25 1799.51 1337.09C1822.3 1352.84 1843.56 1371.45 1862.88 1392.59C1867.57 1398.05 1872.62 1403.3 1877.13 1408.84L1889.79 1425.59C1897.52 1437.05 1904.31 1449.33 1910.06 1462.27C1921.44 1487.96 1927.15 1516.54 1926.68 1545.45C1925.82 1575.94 1920.34 1606.02 1910.49 1634.29C1900.09 1664.31 1887.46 1693.2 1872.74 1720.66C1857.77 1748.62 1841.33 1776.15 1823.74 1803.12C1788.85 1857.26 1750.68 1910.13 1713.18 1966.34C1694.49 1994.72 1676.17 2023.96 1658.76 2055.33C1640.41 2087.72 1624.48 2121.88 1611.15 2157.45C1583.51 2233.73 1572.86 2310.94 1568.53 2385.17C1560.19 2533.35 1576.45 2669.67 1574.07 2791.87C1572.98 2852.83 1567.26 2909.1 1552.04 2958.92C1544.39 2983.99 1534.06 3007.83 1521.29 3029.89C1510.53 3049.64 1496.34 3066.56 1479.65 3079.56C1461.4 3092.72 1440.84 3100.92 1419.5 3103.55C1394.31 3106.65 1368.88 3105.98 1343.83 3101.56C1316.73 3097.05 1289.88 3090.72 1263.41 3082.61C1236.5 3074.03 1209.35 3064.59 1182.44 3054.23C1128.38 3033.65 1074.69 3010.16 1020.14 2989.29C965.658 2967.08 909.65 2950.32 852.725 2939.19H852.968Z" fill="#DFE7FE" fill-opacity="0.04"/>
<path d="M1116.52 451.745C1098.29 446.421 1079.79 442.533 1061.12 440.107C1052.23 438.759 1043.58 437.978 1034.88 437.056C1026.17 436.133 1017.65 435.92 1009.19 435.707C992.263 434.998 975.765 435.707 959.267 436.133C893.884 439.185 831.422 450.823 769.692 461.964L747.836 465.796L738.157 467.429L728.233 468.351C721.598 469.061 714.718 468.848 707.9 469.061C701.082 469.274 694.02 468.351 686.897 467.713C679.774 467.074 672.773 466.222 665.528 464.874C658.284 463.526 651.222 462.39 643.917 460.687C629.549 457.281 614.817 453.591 600.328 448.907C541.641 430.882 483.624 404.057 418.849 386.813C384.645 377.307 349.363 374.194 314.32 377.587C285.819 380.855 258.047 390.035 232.317 404.696C227.995 407.18 223.551 409.521 219.35 411.792L207.175 420.237C191.061 431.909 175.827 445.156 161.637 459.835C154.454 466.932 147.635 475.873 140.695 484.176C133.755 492.479 128.215 501.847 122.005 510.859C115.796 519.872 111.169 529.523 105.812 539.245C103.072 544.071 100.942 548.967 98.75 553.438L92.0533 568.199L88.7659 575.721L86.0262 583.243L80.6691 598.43C76.9825 608.419 73.8113 618.656 71.172 629.086C60.3406 669.379 53.9177 711.106 52.0562 753.275C50.4066 793.988 52.3241 834.791 57.7787 875.05C63.3522 914.689 72.3678 953.565 84.6869 991.078C87.7917 1000.37 91.0792 1009.6 94.4275 1018.68C97.7758 1027.77 101.733 1036.78 105.447 1045.65C109.16 1054.52 113.178 1063.39 117.622 1072.05C122.066 1080.71 125.902 1089.29 130.589 1097.74C148.545 1131.22 168.803 1162.95 191.163 1192.62C212.981 1221.95 236.802 1249.17 262.391 1274.01C287.166 1298.46 313.846 1320.15 342.081 1338.81C370.082 1357.17 400.229 1370.68 431.573 1378.9C463.786 1386.75 497.121 1385.83 528.978 1376.2C561.044 1366.13 591.771 1350.97 620.296 1331.14C676.971 1291.51 730.01 1245.22 778.58 1192.97C802.931 1167.43 825.761 1140.81 847.433 1113.49C849.499 1110.9 851.761 1108.52 854.191 1106.4L859.853 1100.65C864.236 1097.17 867.584 1093.55 872.028 1090L878.116 1084.89C880.369 1083.26 882.682 1081.77 884.813 1080.07C889.013 1076.66 894.249 1073.82 898.632 1070.49C920.286 1056.73 942.651 1044.54 965.598 1034.01L1005.66 1015.63L1027.09 1005.91L1049.43 995.123C1064.59 988.026 1080.54 979.014 1096.73 969.646C1114.07 959.291 1130.83 947.653 1146.89 934.803C1165.04 920.303 1181.85 903.656 1197.06 885.127C1213.57 864.826 1227.64 842.003 1238.88 817.285L1243.27 807.918L1246.98 798.337C1249.35 791.88 1251.85 785.422 1254.04 778.893C1258.03 766.04 1261.32 752.91 1263.9 739.579L1267.37 719.992L1269.5 700.974C1270.81 688.588 1271.5 676.125 1271.57 663.646C1271.57 660.382 1271.57 657.898 1271.57 654.137C1271.57 649.098 1271.57 644.202 1271.03 639.305C1270.55 628.972 1269.26 618.711 1267.19 608.649C1266.76 606.165 1266.22 603.539 1265.67 600.984L1263.54 593.178C1262.08 588.069 1260.43 582.959 1258.79 577.921C1255.11 568.076 1250.78 558.585 1245.82 549.535C1243.33 545.206 1240.77 541.019 1238.09 536.903C1236.75 534.845 1235.41 532.716 1234.07 530.871L1229.87 525.407C1227.13 521.93 1224.27 518.31 1221.29 515.046C1218.31 511.782 1215.63 509.085 1212.64 506.104C1209.66 503.124 1206.56 500.498 1203.82 497.944L1195.23 490.847C1192.37 488.718 1189.14 486.305 1186.59 484.46L1178.25 479.067C1158.63 467.246 1137.92 458.079 1116.52 451.745Z" fill="#DFE7FE" fill-opacity="0.04"/>
</svg>
