<svg width="306" height="324" viewBox="0 0 306 324" fill="none" xmlns="http://www.w3.org/2000/svg">
<path d="M282.325 299.763L279.056 294.761L250.942 312.537L257.525 323.645L259.374 322.721C267.535 318.553 300.632 300.98 305.005 296.293C309.965 291.066 282.325 299.763 282.325 299.763Z" fill="#0061FE"/>
<g opacity="0.5">
<path d="M267.875 317.361C266.101 315.114 263.568 313.592 260.75 313.08C259.308 312.821 257.826 312.889 256.413 313.279C255.001 313.669 253.694 314.371 252.589 315.333L257.391 323.309L267.875 317.361Z" fill="white"/>
</g>
<g opacity="0.5">
<path d="M296.099 295.934C296.099 295.934 306.086 293.433 305.838 295.461C305.59 297.489 272.81 316.504 257.614 323.646L257.276 322.97L295.603 301.116C295.603 301.116 294.475 296.97 296.099 295.934Z" fill="white"/>
</g>
<path d="M256.829 323.218L257.348 322.971L258.813 322.25L264.156 319.433C268.665 317.045 274.843 313.643 281.561 309.745C288.28 305.848 294.322 302.175 298.65 299.472L303.746 296.227L305.098 295.326L305.572 294.988C305.386 295.052 305.211 295.143 305.053 295.259L303.655 296.092L298.493 299.224C294.141 301.882 288.099 305.487 281.358 309.407C274.617 313.328 268.485 316.73 264.021 319.186L258.746 322.114L257.303 322.903C256.987 323.106 256.807 323.196 256.829 323.218Z" fill="#263238"/>
<path d="M295.852 301.564C295.574 300.564 295.415 299.536 295.379 298.499C295.466 297.473 295.67 296.46 295.987 295.48C295.293 296.33 294.932 297.403 294.973 298.499C294.883 299.594 295.195 300.683 295.852 301.564Z" fill="#263238"/>
<path d="M284.986 302.173C285.213 301.664 285.306 301.106 285.256 300.551C285.349 300 285.302 299.435 285.121 298.906C284.906 299.419 284.814 299.974 284.851 300.528C284.771 301.08 284.817 301.642 284.986 302.173Z" fill="#263238"/>
<path d="M281.965 302.284C281.965 302.284 282.348 301.766 282.573 301.023C282.777 300.595 282.863 300.12 282.821 299.648C282.821 299.648 282.438 300.167 282.19 300.91C281.942 301.654 281.852 302.262 281.965 302.284Z" fill="#263238"/>
<path d="M278.919 300.443C279.496 300.337 280.042 300.106 280.52 299.767C281.354 299.294 281.985 298.843 281.94 298.73C281.358 298.842 280.806 299.072 280.317 299.406C279.483 299.879 278.851 300.353 278.919 300.443Z" fill="#263238"/>
<path d="M277.299 298.818C277.986 298.874 278.674 298.708 279.26 298.345C280.275 297.849 280.906 297.196 280.838 297.105C280.226 297.344 279.638 297.638 279.08 297.984C278.463 298.211 277.868 298.49 277.299 298.818Z" fill="#263238"/>
<path d="M284.581 299.112C285.256 298.861 285.881 298.495 286.43 298.03C287.042 297.55 287.615 297.023 288.144 296.453C288.455 296.112 288.735 295.742 288.978 295.349C289.126 295.09 289.175 294.785 289.113 294.493C289.065 294.341 288.973 294.206 288.849 294.106C288.724 294.006 288.573 293.944 288.414 293.93C287.505 293.991 286.646 294.366 285.984 294.991C285.322 295.615 284.897 296.451 284.784 297.354C284.713 297.883 284.76 298.422 284.92 298.931C284.92 299.292 285.123 299.45 285.145 299.45C285.035 298.771 285.035 298.078 285.145 297.399C285.271 296.672 285.608 295.999 286.115 295.462C286.395 295.132 286.74 294.863 287.127 294.669C287.514 294.476 287.937 294.362 288.369 294.335C288.775 294.335 288.865 294.786 288.662 295.169C288.432 295.538 288.168 295.885 287.873 296.205C287.386 296.783 286.85 297.318 286.272 297.805C285.19 298.638 284.581 299.044 284.581 299.112Z" fill="#263238"/>
<path d="M285.053 298.927C285.042 298.406 284.851 297.904 284.512 297.508C284.176 297.061 283.734 296.705 283.227 296.471C282.906 296.305 282.55 296.219 282.19 296.219C281.829 296.219 281.473 296.305 281.152 296.471C280.997 296.631 280.91 296.845 280.91 297.068C280.91 297.291 280.997 297.506 281.152 297.665C281.37 297.927 281.638 298.142 281.942 298.296C282.423 298.567 282.939 298.771 283.475 298.905C283.95 299.081 284.463 299.128 284.963 299.04C284.963 299.04 284.399 299.04 283.565 298.634C283.069 298.469 282.592 298.25 282.144 297.981C281.648 297.733 281.085 297.147 281.491 296.787C281.749 296.654 282.035 296.585 282.325 296.585C282.615 296.585 282.901 296.654 283.159 296.787C283.624 296.987 284.04 297.287 284.376 297.665C284.64 298.064 284.867 298.486 285.053 298.927Z" fill="#263238"/>
<path d="M252.837 315.015C252.837 315.015 253.626 314.475 255.092 313.866C256.89 313.062 258.88 312.788 260.829 313.075C262.778 313.362 264.605 314.2 266.094 315.489C267.243 316.457 267.785 317.268 267.83 317.223C267.875 317.178 267.83 316.998 267.491 316.638C267.146 316.143 266.745 315.69 266.297 315.286C264.802 313.911 262.929 313.015 260.92 312.714C258.91 312.413 256.857 312.72 255.024 313.596C254.476 313.869 253.955 314.193 253.468 314.565C253.237 314.684 253.025 314.836 252.837 315.015Z" fill="#263238"/>
<path d="M269.879 312.467C271.464 311.989 272.98 311.307 274.388 310.439C275.841 309.693 277.19 308.762 278.401 307.668C278.401 307.668 276.53 308.794 274.185 310.101C271.841 311.408 269.834 312.354 269.879 312.467Z" fill="#263238"/>
<path d="M264.291 315.712C264.291 315.825 264.674 316.027 265.102 316.343C265.531 316.659 265.869 316.997 265.981 316.929C266.094 316.862 265.981 316.388 265.35 316.028C264.719 315.667 264.291 315.622 264.291 315.712Z" fill="#263238"/>
<path d="M260.59 314.319C260.59 314.432 260.905 314.612 261.379 314.747C261.852 314.883 262.258 314.883 262.303 314.747C262.348 314.612 261.965 314.432 261.491 314.319C261.018 314.206 260.612 314.206 260.59 314.319Z" fill="#263238"/>
<path d="M256.846 314.879C256.846 314.879 257.297 314.743 257.815 314.631C258.334 314.518 258.762 314.631 258.785 314.473C258.807 314.315 258.356 314.112 257.725 314.247C257.094 314.383 256.778 314.811 256.846 314.879Z" fill="#263238"/>
<path d="M254.366 315.553C254.366 315.666 254.637 315.711 254.907 315.666C255.178 315.621 255.426 315.508 255.426 315.396C255.426 315.283 255.155 315.238 254.862 315.283C254.569 315.328 254.344 315.441 254.366 315.553Z" fill="#263238"/>
<path d="M46.999 278.604L159.296 172.713C162.735 169.198 166.841 166.404 171.375 164.497C175.908 162.59 180.777 161.606 185.696 161.605C192.201 161.609 198.59 163.33 204.216 166.594C209.841 169.858 214.504 174.549 217.733 180.193L285.053 291.694L243.998 316.928L183.397 229.624L127.958 279.685L46.999 278.604Z" fill="#263238"/>
<path d="M14.0374 283.901C13.5639 285.32 10.2272 321.481 58.7894 321.481H188.424C192.328 321.481 196.194 320.712 199.8 319.219C203.407 317.725 206.683 315.536 209.443 312.776C212.203 310.016 214.391 306.74 215.883 303.134C217.375 299.529 218.141 295.665 218.138 291.764C218.138 283.886 215.008 276.331 209.436 270.759C203.864 265.186 196.307 262.053 188.424 262.047H67.6271C63.3039 262.047 59.0331 262.993 55.1145 264.818L14.0374 283.901Z" fill="#263238"/>
<path d="M199.876 262.046C199.876 262.339 173.093 262.587 140.042 262.587C106.991 262.587 80.2071 262.339 80.2071 262.046C80.2071 261.753 106.991 261.527 140.042 261.527C173.093 261.527 199.876 261.775 199.876 262.046Z" fill="#455A64"/>
<path d="M179.855 204.84C180.171 204.84 180.171 210.45 181.208 217.254C182.245 224.058 183.8 229.443 183.462 229.533C181.719 225.694 180.6 221.602 180.148 217.412C179.368 213.265 179.269 209.019 179.855 204.84Z" fill="#455A64"/>
<path d="M185.382 204.074C186.019 212.582 185.257 221.136 183.127 229.398C182.834 229.398 183.623 223.72 184.209 216.736C184.795 209.752 185.066 204.074 185.382 204.074Z" fill="#455A64"/>
<path d="M84.7878 44.88C84.8747 45.6206 84.7394 46.3702 84.3992 47.0338C84.0589 47.6974 83.529 48.2451 82.8768 48.6072C82.2246 48.9693 81.4794 49.1295 80.7358 49.0676C79.9923 49.0057 79.2839 48.7245 78.7006 48.2595C76.4461 46.5473 76.8294 43.1001 77.8439 40.4867C78.8584 37.8732 80.3464 35.1471 79.6926 32.4209C78.903 30.43 77.7825 28.5866 76.3784 26.9686C75.3401 25.4064 74.6795 23.6244 74.4486 21.7632C74.2178 19.902 74.4231 18.0127 75.0483 16.2444C75.71 14.4921 76.8434 12.9566 78.3234 11.8075C79.8034 10.6585 81.5724 9.94064 83.4351 9.73317C87.2452 9.44028 91.4611 11.4004 94.7076 9.32765C96.9621 7.81814 97.7512 4.82163 99.6901 2.7714C102.711 -0.270154 107.761 0.135392 111.842 1.50972C115.923 2.88406 119.891 5.0695 124.174 4.84419C127.759 4.66395 130.938 2.81645 134.522 1.98284C138.33 1.07365 142.326 1.37468 145.954 2.84394C149.582 4.3132 152.661 6.87749 154.761 10.179C156.861 13.4805 157.877 17.3546 157.668 21.261C157.459 25.1674 156.035 28.9112 153.595 31.9703C151.859 34.2233 147.914 40.6669 140.068 39.0448" fill="#263238"/>
<path d="M89.2496 15.3867L88.19 21.0192L71.8899 105.056C69.9961 114.812 76.8949 124.207 87.3559 126.167C97.9295 128.127 108.188 121.661 110.262 111.928C112.516 101.609 114.906 90.7948 114.906 90.7948C114.906 90.7948 128.681 91.358 135.039 74.5731C138.195 66.237 140.698 52.0431 142.366 40.3049C142.729 37.8053 142.581 35.2581 141.931 32.817C141.282 30.376 140.145 28.0918 138.588 26.1021C137.031 24.1124 135.086 22.4586 132.872 21.2404C130.658 20.0222 128.22 19.2648 125.705 19.014L89.2496 15.3867Z" fill="#FFBE9D"/>
<path d="M135.667 51.639C135.558 52.2236 135.221 52.7411 134.731 53.0787C134.242 53.4164 133.638 53.5467 133.052 53.4414C132.482 53.3469 131.97 53.037 131.621 52.5758C131.273 52.1145 131.115 51.5372 131.181 50.9632C131.291 50.3832 131.624 49.8695 132.109 49.5324C132.594 49.1954 133.191 49.0619 133.774 49.1607C134.348 49.25 134.866 49.5577 135.219 50.0196C135.572 50.4814 135.733 51.0616 135.667 51.639Z" fill="#263238"/>
<path d="M137.766 47.1361C137.451 47.3614 136.008 45.7618 133.618 45.2661C131.228 44.7704 129.222 45.6266 129.109 45.2661C128.996 44.9056 129.402 44.6578 130.281 44.2522C131.46 43.7434 132.769 43.6173 134.024 43.8917C135.277 44.1403 136.417 44.7886 137.27 45.7392C137.789 46.3475 138.037 46.9108 137.766 47.1361Z" fill="#263238"/>
<path d="M112.017 46.7747C111.907 47.3593 111.571 47.8768 111.081 48.2145C110.591 48.5521 109.987 48.6825 109.402 48.5772C108.827 48.4826 108.311 48.1694 107.962 47.7032C107.613 47.237 107.459 46.654 107.53 46.0763C107.64 45.4917 107.977 44.9742 108.466 44.6366C108.956 44.299 109.56 44.1686 110.146 44.2739C110.721 44.3684 111.236 44.6816 111.585 45.1478C111.934 45.614 112.089 46.197 112.017 46.7747Z" fill="#263238"/>
<path d="M114.139 42.6235C113.8 42.8488 112.38 41.2492 109.99 40.7536C107.601 40.2579 105.481 41.114 105.369 40.7536C105.256 40.3931 105.662 40.1452 106.541 39.7397C107.728 39.232 109.044 39.106 110.306 39.3792C111.558 39.6324 112.696 40.2799 113.552 41.2267C114.161 41.9026 114.296 42.4658 114.139 42.6235Z" fill="#263238"/>
<path d="M119.142 62.1403C120.482 61.9758 121.837 61.9758 123.178 62.1403C123.809 62.1403 124.418 62.1403 124.598 61.8249C124.78 61.1995 124.78 60.5352 124.598 59.9099C124.327 58.3328 124.034 56.643 123.741 54.8856C122.884 50.5927 122.371 46.238 122.208 41.8633C123.411 46.0765 124.277 50.3781 124.801 54.7279C125.049 56.5078 125.319 58.175 125.545 59.7746C125.787 60.5953 125.723 61.4758 125.365 62.2529C125.23 62.4495 125.053 62.6126 124.846 62.7298C124.639 62.8469 124.407 62.9151 124.17 62.9289C123.818 62.9768 123.462 62.9768 123.11 62.9289C121.76 62.8283 120.428 62.5635 119.142 62.1403Z" fill="#263238"/>
<path d="M114.905 90.7946C106.706 89.2244 99.1038 85.4104 92.9458 79.7773C92.9458 79.7773 96.1247 92.8673 113.823 94.8499L114.905 90.7946Z" fill="#EB996E"/>
<path d="M111.749 62.3187C112.155 62.3187 111.614 64.9773 113.463 67.2979C115.311 69.6184 118.129 69.8888 117.972 70.2493C117.814 70.6098 117.25 70.6322 116.078 70.4069C114.558 70.142 113.183 69.343 112.2 68.1539C111.255 66.9978 110.802 65.5175 110.938 64.031C111.163 62.9045 111.569 62.2736 111.749 62.3187Z" fill="#263238"/>
<path d="M116.708 33.3196C116.324 33.928 114.002 33.1169 111.116 32.8691C108.231 32.6213 105.818 32.869 105.57 32.2607C105.57 31.9453 105.976 31.4271 107.013 30.9765C108.4 30.4643 109.884 30.2712 111.356 30.4117C112.827 30.5521 114.248 31.0224 115.513 31.7876C116.46 32.4185 116.865 33.0268 116.708 33.3196Z" fill="#263238"/>
<path d="M138.329 39.899C137.81 40.3496 136.277 39.4484 134.293 39.0203C132.309 38.5922 130.551 38.6148 130.28 37.9614C130.168 37.6685 130.551 37.1729 131.385 36.8124C132.5 36.379 133.722 36.3079 134.88 36.6096C136.041 36.8621 137.091 37.4776 137.878 38.3669C138.464 39.0653 138.577 39.6737 138.329 39.899Z" fill="#263238"/>
<path d="M144.552 32.7124C144.552 32.7124 134.723 35.5287 123.969 27.5756C116.89 22.3711 108.187 18.9015 105.933 20.1181C103.678 21.3347 101.852 29.1301 93.7808 30.189C93.7808 30.189 91.639 45.4869 85.6871 43.8873C79.7352 42.2876 86.9046 12.1875 86.9046 12.1875L103.723 14.756L120.452 14.5306L135.331 19.3521L146.604 24.6466L144.552 32.7124Z" fill="#263238"/>
<path d="M87.4212 7.79825C87.4212 7.55042 88.9092 7.3251 90.4648 8.27137C92.0204 9.21763 92.4939 10.682 92.2459 10.7722C91.9979 10.8623 91.2765 9.84848 89.9914 9.05993C88.7063 8.27138 87.4212 8.06861 87.4212 7.79825Z" fill="#263238"/>
<path d="M93.4855 3.74219C93.5241 5.06302 93.4259 6.38432 93.1924 7.68494C93.0571 9.80277 93.6432 11.47 93.3953 11.5827C92.9289 11.0487 92.5861 10.4185 92.3913 9.73704C92.1964 9.05556 92.1544 8.3395 92.268 7.63991C92.216 6.2398 92.6457 4.86414 93.4855 3.74219Z" fill="#263238"/>
<path d="M87.3315 37.7404C87.1286 37.5827 78.0204 32.2205 75.811 42.2464C73.6016 52.2723 84.1978 52.4751 84.288 52.2047C84.3782 51.9343 87.3315 37.7404 87.3315 37.7404Z" fill="#FFBE9D"/>
<path d="M82.035 47.764C82.035 47.764 81.8321 47.764 81.5164 47.9217C81.0547 48.0081 80.5775 47.9111 80.1863 47.6513C79.6223 47.1008 79.2177 46.4082 79.0153 45.6467C78.8129 44.8852 78.8202 44.0832 79.0365 43.3255C79.185 42.4508 79.5405 41.6243 80.0736 40.9148C80.2374 40.6195 80.4709 40.3688 80.7538 40.1842C81.0367 39.9997 81.3604 39.8869 81.6968 39.8559C81.9094 39.8406 82.1204 39.903 82.2904 40.0314C82.4605 40.1599 82.578 40.3457 82.6212 40.5543C82.6212 40.8697 82.6212 41.05 82.6212 41.0725C82.6212 41.0951 82.8692 40.9599 82.8692 40.5318C82.8768 40.2694 82.7887 40.0131 82.6212 39.8109C82.3839 39.5422 82.0536 39.3732 81.6968 39.3378C81.2516 39.321 80.8098 39.4202 80.4145 39.6256C80.0193 39.831 79.6843 40.1355 79.4423 40.5093C78.8291 41.2936 78.4118 42.2127 78.2249 43.1904C77.9772 44.0776 77.9993 45.0184 78.2884 45.893C78.5774 46.7677 79.1204 47.5366 79.8481 48.1019C80.1095 48.223 80.3942 48.2857 80.6823 48.2857C80.9704 48.2857 81.255 48.223 81.5164 48.1019C81.9674 48.0118 82.0801 47.7865 82.035 47.764Z" fill="#EB996E"/>
<path d="M101.357 261.212V254.543L196.204 256.48L250.831 169.289L255.836 172.894L199.879 262.045L101.357 261.212Z" fill="#E0E0E0"/>
<path d="M166.981 232.15L171.851 239.225V253.779C171.198 253.947 170.51 253.902 169.885 253.65C169.26 253.399 168.733 252.955 168.379 252.382C167.402 249.539 166.648 246.624 166.124 243.663L163.87 249.634C163.418 250.802 162.554 251.765 161.442 252.342C160.329 252.919 159.044 253.069 157.828 252.765L140.242 248.259L147.434 227.734L166.981 232.15Z" fill="#FFBE9D"/>
<path d="M81.8293 94.4479C75.5469 92.4385 68.7342 92.8978 62.7787 95.7321C53.9185 99.9227 45.7346 111.075 40.7972 124.097C35.8598 137.12 23.3924 159.244 13.7431 197.252C5.31121 230.417 -5.69079 265.316 3.43998 277.73L3.64288 277.978C6.05768 281.207 9.44794 283.575 13.3129 284.731C17.1778 285.888 21.3124 285.771 25.1058 284.399L34.0111 281.222C53.5182 274.233 71.4425 263.443 86.7441 249.477L117.744 221.179L105.299 211.717C105.299 211.717 114.971 150.007 110.935 126.531C107.486 106.231 92.2902 97.8724 81.8293 94.4479Z" fill="#0061FE"/>
<path d="M61.7221 124.145L44.3849 205.253C42.9176 212.102 43.9786 219.25 47.3722 225.378C50.7658 231.507 56.263 236.202 62.8493 238.597L138.263 253.039L147.664 224.944L86.4541 205.884L104.49 127.569L61.7221 124.145Z" fill="#0061FE"/>
<path d="M43.7274 220.614C43.7836 220.767 43.8215 220.926 43.8401 221.087L44.1332 222.484C44.1332 222.8 44.2685 223.16 44.3361 223.521L44.787 224.737L45.283 226.134L46.1172 227.644C47.6446 230.222 49.7327 232.424 52.2269 234.087C55.5923 236.34 59.3335 237.972 63.274 238.909L137.898 252.562L137.38 252.855C140.491 243.955 143.783 234.538 147.187 224.737L147.503 225.368L86.1798 206.33L85.7289 206.172L85.8417 205.699L89.2009 192.542C92.763 178.348 96.0997 164.469 98.9854 150.974C100.406 144.215 101.759 137.591 102.683 131.035C102.953 129.413 102.953 127.79 103.089 126.168C103.098 124.576 102.924 122.989 102.57 121.437C101.848 118.379 100.419 115.532 98.3993 113.123C96.4279 110.822 93.9689 108.986 91.2005 107.751C88.432 106.516 85.4233 105.911 82.3923 105.981C79.5363 106.146 76.745 106.897 74.1925 108.188C71.6401 109.479 69.3815 111.282 67.5576 113.484C64.0598 117.6 61.4501 122.394 59.8922 127.565C58.4508 132.358 57.2989 137.233 56.4428 142.165C52.7229 160.955 49.6793 176.162 47.6277 186.729C46.5906 191.956 45.7565 196.034 45.1929 198.828C44.8998 200.179 44.6968 201.238 44.539 201.982C44.3812 202.725 44.2685 203.041 44.2685 203.041C44.2685 203.041 44.2685 202.68 44.4263 201.959C44.5841 201.238 44.7419 200.157 44.9899 198.805C45.5085 195.966 46.275 191.888 47.2444 186.661C49.251 176.072 52.1367 160.842 55.7214 142.029C56.5551 137.059 57.6996 132.145 59.1482 127.317C60.7072 122.026 63.3481 117.116 66.9038 112.898C68.8069 110.602 71.1617 108.722 73.8221 107.373C76.4826 106.024 79.3919 105.236 82.3697 105.058C85.5411 104.977 88.6904 105.605 91.5882 106.895C94.486 108.185 97.0594 110.105 99.1207 112.515C101.303 115.008 102.85 117.992 103.63 121.212C103.999 122.846 104.188 124.515 104.193 126.191C104.058 127.835 104.058 129.525 103.788 131.17C102.863 137.771 101.533 144.418 100.09 151.199C97.2044 164.717 93.8677 178.596 90.3281 192.79C89.1783 197.296 88.0736 201.802 86.9689 205.947L86.6082 205.339L147.796 224.444L148.269 224.602L148.111 225.075C144.662 234.853 141.348 244.248 138.236 253.148L138.101 253.508H137.718C106.854 247.74 81.1748 243.032 63.1613 239.494C59.1347 238.514 55.3167 236.82 51.8887 234.493C49.3753 232.768 47.2863 230.495 45.779 227.846L44.9899 226.314L44.4939 224.872C44.3361 224.422 44.2009 224.016 44.0881 223.633L43.9078 222.597L43.6823 221.155C43.6843 220.974 43.6994 220.793 43.7274 220.614Z" fill="#263238"/>
<path d="M75.9466 216.449C75.8113 216.449 75.7211 215.503 76.1044 214.016C76.6431 212.101 77.6864 210.366 79.1254 208.991C80.5666 207.613 82.3483 206.641 84.2883 206.175C85.7762 205.837 86.7231 205.995 86.7231 206.175C86.7231 206.355 85.8213 206.468 84.4686 206.941C82.7438 207.573 81.1642 208.546 79.8243 209.803C78.5149 211.083 77.4795 212.616 76.7807 214.309C76.2622 215.57 76.1044 216.471 75.9466 216.449Z" fill="#263238"/>
<g opacity="0.2">
<path d="M59.9599 123.062C51.1703 151.283 45.0858 180.274 41.7885 209.645C40.6678 216.349 40.5387 223.181 41.4053 229.922C41.8532 233.309 42.988 236.568 44.7402 239.5C46.4924 242.433 48.8252 244.977 51.5957 246.978C57.1663 250.212 63.7581 251.21 70.0376 249.771C76.2825 248.6 86.4053 247.203 92.1543 244.477L58.3366 237.538C58.3366 237.538 36.5806 236.186 45.9143 194.55C55.248 152.915 59.9599 123.062 59.9599 123.062Z" fill="black"/>
</g>
<path d="M108.726 124.141L114.836 105.058L74.9085 78.6758L69.5203 97.2856C69.5203 97.2856 90.2392 99.5386 95.6049 105.149C100.971 110.759 108.726 124.141 108.726 124.141Z" fill="#0061FE"/>
<path d="M106.789 112.471C107.887 110.932 108.654 109.183 109.044 107.334C109.789 105.606 110.165 103.741 110.148 101.859C109.051 103.399 108.284 105.147 107.894 106.996C107.148 108.724 106.772 110.589 106.789 112.471Z" fill="#263238"/>
<path d="M99.1661 107.647C100.253 106.102 101.019 104.355 101.421 102.51C102.166 100.782 102.542 98.917 102.525 97.0352C100.677 100.298 99.5397 103.914 99.1887 107.647H99.1661Z" fill="#263238"/>
<path d="M91.5473 102.892C92.6337 101.347 93.4002 99.6004 93.8018 97.7551C94.5504 96.02 94.9267 94.1473 94.9064 92.2578C93.8096 93.797 93.0421 95.5457 92.6519 97.3947C91.9033 99.1298 91.527 101.003 91.5473 102.892Z" fill="#263238"/>
<path d="M84.5326 98.6146C85.6295 97.0755 86.397 95.3268 86.7871 93.4778C87.5358 91.7427 87.9121 89.8699 87.8918 87.9805C86.8053 89.5255 86.0388 91.272 85.6373 93.1173C84.8886 94.8525 84.5123 96.7252 84.5326 98.6146Z" fill="#263238"/>
<path d="M77.3682 93.4554C78.4733 91.9292 79.2417 90.186 79.6227 88.3411C80.3568 86.6006 80.7399 84.7325 80.75 82.8438C78.8815 86.0992 77.7358 89.7183 77.3908 93.4554H77.3682Z" fill="#263238"/>
<path d="M141.577 240.893C140.973 240.634 140.346 240.43 139.705 240.284L134.25 238.752L114.117 233.368L84.2219 225.505L75.5646 223.252C74.0947 222.939 72.6542 222.502 71.2585 221.945C69.8954 221.329 68.6632 220.457 67.6287 219.377C65.4634 217.142 64.2579 214.151 64.2695 211.04C64.3254 209.449 64.5985 207.872 65.0811 206.354C65.4869 204.732 65.8927 203.132 66.2985 201.488L83.027 134.844C85.0786 126.373 86.7695 119.501 87.9418 114.567L89.2269 109.047C89.4112 108.414 89.5394 107.765 89.6102 107.109C89.3508 107.713 89.147 108.339 89.0015 108.979C88.6407 110.331 88.1447 112.156 87.5135 114.454C86.2284 119.321 84.4248 126.17 82.2154 134.596C77.7064 151.719 71.8221 175.15 65.1713 201.172C64.7655 202.794 64.3371 204.417 63.9313 206.016C63.4333 207.632 63.1528 209.306 63.0971 210.995C63.0989 213.513 63.8244 215.977 65.1874 218.093C66.5503 220.21 68.4933 221.891 70.785 222.936C72.2474 223.518 73.7556 223.978 75.294 224.311L83.9513 226.564L113.914 234.134L134.204 239.18L139.705 240.487C140.32 240.662 140.945 240.797 141.577 240.893Z" fill="#E0E0E0"/>
<path d="M140.041 245.241L139.545 245.06L138.079 244.61L132.375 242.988L111.386 237.265L80.2058 228.929L71.1878 226.518C69.6773 226.113 68.054 225.752 66.6788 225.256C65.2062 224.727 63.8508 223.915 62.6883 222.868C61.494 221.791 60.5305 220.483 59.8563 219.023C59.1821 217.563 58.811 215.982 58.7654 214.374C58.7553 212.712 59.0219 211.06 59.5545 209.485L60.9072 204.439L79.4168 135.114C81.6713 126.304 83.565 119.14 84.8952 114.071C85.5039 111.66 85.9774 109.745 86.3381 108.348L86.6763 106.839C86.6763 106.501 86.6763 106.32 86.6763 106.32C86.582 106.473 86.5135 106.641 86.4734 106.816C86.3381 107.199 86.2028 107.695 86.0225 108.28C85.6166 109.677 85.053 111.57 84.3767 113.958C82.9563 119.005 80.9724 126.147 78.515 134.911C73.6678 152.71 66.9944 177.155 59.6447 204.146C59.1712 205.836 58.7203 207.525 58.2694 209.192C57.7138 210.878 57.4395 212.644 57.4578 214.419C57.5111 216.183 57.9223 217.916 58.6664 219.516C59.4105 221.115 60.472 222.547 61.7865 223.724C63.0632 224.868 64.5481 225.755 66.1602 226.338C67.806 226.856 69.3166 227.171 70.8722 227.622L79.8902 229.875L111.138 237.986L132.217 243.348L137.966 244.745L139.477 245.083C139.653 245.172 139.844 245.225 140.041 245.241Z" fill="#E0E0E0"/>
</svg>
