<svg width="18" height="20" viewBox="0 0 18 20" fill="none" xmlns="http://www.w3.org/2000/svg">
<path d="M14.3461 2.50518H9.89151V1.67251C9.89151 1.45168 9.79765 1.23988 9.63057 1.08373C9.46349 0.927571 9.23689 0.839844 9.0006 0.839844C8.76432 0.839844 8.53771 0.927571 8.37064 1.08373C8.20356 1.23988 8.10969 1.45168 8.10969 1.67251V2.50518H3.65515C2.9463 2.50518 2.26648 2.76836 1.76525 3.23683C1.26401 3.7053 0.982422 4.34068 0.982422 5.00319V11.6645C0.982422 12.3271 1.26401 12.9624 1.76525 13.4309C2.26648 13.8994 2.9463 14.1625 3.65515 14.1625H5.08951L3.69969 18.0594C3.65493 18.1657 3.63405 18.2795 3.63835 18.3937C3.64265 18.5078 3.67203 18.6199 3.72468 18.723C3.77733 18.8261 3.8521 18.918 3.94436 18.9929C4.03662 19.0678 4.14439 19.1242 4.26097 19.1586C4.3556 19.17 4.45142 19.17 4.54606 19.1586C4.74034 19.168 4.93259 19.1178 5.09346 19.0156C5.25433 18.9133 5.37498 18.7647 5.43697 18.5923L6.96933 14.1625H11.0319L12.6088 18.5923C12.6686 18.7577 12.7824 18.9014 12.9343 19.003C13.0862 19.1046 13.2684 19.159 13.4551 19.1586C13.5517 19.1563 13.6475 19.1423 13.7402 19.1169C13.8556 19.0865 13.9631 19.0347 14.0565 18.9645C14.1499 18.8944 14.2272 18.8073 14.2837 18.7086C14.3403 18.6099 14.375 18.5015 14.3857 18.3899C14.3964 18.2784 14.3829 18.166 14.3461 18.0594L12.9117 14.1625H14.3461C15.0549 14.1625 15.7347 13.8994 16.236 13.4309C16.7372 12.9624 17.0188 12.3271 17.0188 11.6645V5.00319C17.0188 4.34068 16.7372 3.7053 16.236 3.23683C15.7347 2.76836 15.0549 2.50518 14.3461 2.50518ZM5.43697 5.83586H9.0006C9.23689 5.83586 9.46349 5.92358 9.63057 6.07974C9.79765 6.2359 9.89151 6.44769 9.89151 6.66853C9.89151 6.88936 9.79765 7.10116 9.63057 7.25731C9.46349 7.41347 9.23689 7.50119 9.0006 7.50119H5.43697C5.20068 7.50119 4.97408 7.41347 4.807 7.25731C4.63992 7.10116 4.54606 6.88936 4.54606 6.66853C4.54606 6.44769 4.63992 6.2359 4.807 6.07974C4.97408 5.92358 5.20068 5.83586 5.43697 5.83586ZM12.5642 10.8319H5.43697C5.20068 10.8319 4.97408 10.7441 4.807 10.588C4.63992 10.4318 4.54606 10.22 4.54606 9.9992C4.54606 9.77836 4.63992 9.56657 4.807 9.41042C4.97408 9.25426 5.20068 9.16653 5.43697 9.16653H12.5642C12.8005 9.16653 13.0271 9.25426 13.1942 9.41042C13.3613 9.56657 13.4551 9.77836 13.4551 9.9992C13.4551 10.22 13.3613 10.4318 13.1942 10.588C13.0271 10.7441 12.8005 10.8319 12.5642 10.8319Z" fill="white"/>
</svg>
