<svg width="33" height="30" viewBox="0 0 33 30" fill="none" xmlns="http://www.w3.org/2000/svg">
<path d="M29.7001 29.0938C30.5753 29.0938 31.4146 28.7543 32.0335 28.15C32.6523 27.5457 33 26.7261 33 25.8715V18.0029C33 17.1483 32.6523 16.3287 32.0335 15.7244C31.4146 15.1201 30.5753 14.7806 29.7001 14.7806H25.1197C25.1197 13.6496 25.189 12.5154 25.3243 11.3844C25.5289 10.1858 25.8721 9.11919 26.3473 8.18797C26.8258 7.25353 27.4396 6.52208 28.192 5.98719C28.9411 5.38786 29.8948 5.0882 31.0563 5.0882V0.09375C29.1457 0.09375 27.4759 0.493306 26.0404 1.29242C24.6174 2.08343 23.394 3.17565 22.46 4.48886C21.5226 5.93665 20.8316 7.52322 20.414 9.18686C19.9932 11.0228 19.7873 12.8994 19.8002 14.7806V25.8715C19.8002 26.7261 20.1479 27.5457 20.7668 28.15C21.3856 28.7543 22.225 29.0938 23.1002 29.0938H29.7001ZM9.9004 29.0938C10.7756 29.0938 11.615 28.7543 12.2338 28.15C12.8527 27.5457 13.2003 26.7261 13.2003 25.8715V18.0029C13.2003 17.1483 12.8527 16.3287 12.2338 15.7244C11.615 15.1201 10.7756 14.7806 9.9004 14.7806H5.32008C5.32008 13.6496 5.38938 12.5154 5.52468 11.3844C5.72927 10.1858 6.07247 9.11919 6.54766 8.18797C7.02615 7.25353 7.63994 6.52208 8.39233 5.98719C9.14141 5.38786 10.0951 5.0882 11.2567 5.0882V0.09375C9.34601 0.09375 7.67624 0.493306 6.24076 1.29242C4.81778 2.08343 3.59435 3.17565 2.66033 4.48886C1.72289 5.93665 1.03195 7.52322 0.614362 9.18686C0.193572 11.0228 -0.0123437 12.8994 0.000571808 14.7806V25.8715C0.000571808 26.7261 0.348243 27.5457 0.967102 28.15C1.58596 28.7543 2.42532 29.0938 3.30051 29.0938H9.9004Z" fill="url(#paint0_linear_7303_14196)"/>
<defs>
<linearGradient id="paint0_linear_7303_14196" x1="5.55413" y1="1.7778" x2="22.3952" y2="26.7611" gradientUnits="userSpaceOnUse">
<stop stop-color="#0061FE"/>
<stop offset="1" stop-color="#5F96FF"/>
</linearGradient>
</defs>
</svg>
