<svg width="17" height="17" viewBox="0 0 17 17" fill="none" xmlns="http://www.w3.org/2000/svg">
<path d="M15.7819 1.89453C15.9537 2.01953 16.024 2.1862 15.9928 2.39453L13.9928 14.3945C13.9668 14.5456 13.8835 14.6628 13.7428 14.7461C13.6699 14.7878 13.5892 14.8086 13.5006 14.8086C13.4434 14.8086 13.3809 14.7956 13.3132 14.7695L9.77416 13.3242L7.88357 15.6289C7.78982 15.7487 7.66222 15.8086 7.50076 15.8086C7.43306 15.8086 7.37577 15.7982 7.32889 15.7773C7.22994 15.7409 7.15051 15.6797 7.09061 15.5938C7.03072 15.5078 7.00077 15.4128 7.00077 15.3086V12.582L13.7506 4.30859L5.39924 11.5352L2.31336 10.2695C2.12066 10.1966 2.01649 10.0534 2.00087 9.83984C1.99045 9.63151 2.07378 9.47786 2.25086 9.37891L15.2506 1.87891C15.3287 1.83203 15.4121 1.80859 15.5006 1.80859C15.6048 1.80859 15.6985 1.83724 15.7819 1.89453Z" fill="white"/>
</svg>
