<svg width="20" height="20" viewBox="0 0 20 20" fill="none" xmlns="http://www.w3.org/2000/svg">
<path d="M18.7312 5.77688L16.975 12.8031C16.8356 13.3606 16.3369 13.75 15.7619 13.75H4.93125C4.29688 13.75 3.76312 13.275 3.69 12.645L2.42437 2.5H1.5625C1.04438 2.5 0.625 2.08063 0.625 1.5625C0.625 1.04438 1.04438 0.625 1.5625 0.625H3.24187C3.71062 0.625 4.10687 0.97125 4.17062 1.435L4.65938 5H18.125C18.5312 5 18.83 5.3825 18.7312 5.77688Z" fill="#F7F5F2"/>
<path d="M4.375 16.875C4.375 17.9088 5.21625 18.75 6.25 18.75C7.28375 18.75 8.125 17.9088 8.125 16.875C8.125 15.8412 7.28375 15 6.25 15C5.21625 15 4.375 15.8412 4.375 16.875Z" fill="#F7F5F2"/>
<path d="M15.625 16.875C15.625 15.8412 14.7838 15 13.75 15C12.7162 15 11.875 15.8412 11.875 16.875C11.875 17.9088 12.7162 18.75 13.75 18.75C14.7838 18.75 15.625 17.9088 15.625 16.875Z" fill="#F7F5F2"/>
</svg>
