<svg width="25" height="25" viewBox="0 0 25 25" fill="none" xmlns="http://www.w3.org/2000/svg">
<path d="M10.537 1.00098C11.748 -0.0211595 13.5196 -0.0211611 14.7306 1.00098L15.8334 1.93186C16.3482 2.3663 16.9852 2.63015 17.6563 2.68691L19.0944 2.80852C20.6735 2.94206 21.9262 4.19474 22.0596 5.77382L22.1812 7.2119C22.2381 7.88306 22.5019 8.52001 22.9364 9.03472L23.8673 10.1376C24.8893 11.3486 24.8893 13.1202 23.8673 14.3312L22.9364 15.434C22.5019 15.9487 22.2381 16.5857 22.1812 17.2569L22.0596 18.695C21.9262 20.2741 20.6735 21.5268 19.0944 21.6602L17.6563 21.7818C16.9852 21.8387 16.3482 22.1025 15.8334 22.537L14.7306 23.4678C13.5196 24.4899 11.748 24.4899 10.537 23.4678L9.43415 22.537C8.91942 22.1025 8.28248 21.8387 7.61132 21.7818L6.17323 21.6602C4.59416 21.5268 3.34148 20.2741 3.20794 18.695L3.08632 17.2569C3.02956 16.5857 2.76571 15.9487 2.33128 15.434L1.40039 14.3312C0.378255 13.1202 0.378253 11.3486 1.40039 10.1376L2.33128 9.03474C2.76571 8.52001 3.02956 7.88306 3.08632 7.2119L3.20794 5.77382C3.34148 4.19474 4.59416 2.94206 6.17323 2.80852L7.61132 2.68691C8.28248 2.63015 8.91942 2.3663 9.43414 1.93186L10.537 1.00098Z" fill="#0061FE"/>
</svg>
